<svg width="1280" height="118" viewBox="0 0 1280 118" fill="none" xmlns="http://www.w3.org/2000/svg">
<g clip-path="url(#clip0_5_57)">
<path d="M580.911 83.7667H583.68V97.2533H580.911V83.7667Z" fill="#737680"/>
<path d="M585.231 92.6334C585.231 91.6631 585.516 90.7145 586.049 89.9081C586.583 89.1017 587.342 88.4738 588.229 88.1037C589.116 87.7336 590.092 87.6382 591.033 87.8297C591.973 88.021 592.837 88.4905 593.513 89.1785C594.19 89.8666 594.649 90.7423 594.833 91.6947C595.017 92.647 594.917 93.6331 594.546 94.5279C594.175 95.4228 593.55 96.1862 592.749 96.7212C591.949 97.2563 591.009 97.5389 590.049 97.5334C589.413 97.5384 588.782 97.4148 588.193 97.17C587.604 96.9252 587.07 96.564 586.621 96.1076C586.172 95.6513 585.818 95.1088 585.579 94.5122C585.341 93.9157 585.222 93.2769 585.231 92.6334ZM592.172 92.6334C592.161 92.215 592.029 91.8092 591.791 91.4667C591.553 91.1242 591.221 90.8602 590.835 90.7077C590.45 90.5552 590.029 90.5209 589.624 90.6092C589.22 90.6976 588.85 90.9045 588.561 91.2042C588.272 91.504 588.077 91.8831 588 92.2944C587.924 92.7055 587.968 93.1305 588.129 93.5161C588.29 93.9017 588.56 94.2308 588.904 94.4622C589.249 94.6937 589.654 94.8172 590.068 94.8174C590.349 94.8229 590.629 94.7696 590.89 94.6608C591.15 94.5521 591.386 94.3902 591.582 94.1851C591.777 93.9802 591.929 93.7366 592.028 93.4695C592.126 93.2026 592.169 92.9178 592.154 92.6334H592.172Z" fill="#737680"/>
<path d="M605.825 88.0133V96.796C605.825 99.8947 603.425 101.211 600.997 101.211C600.141 101.282 599.282 101.11 598.517 100.714C597.752 100.318 597.112 99.7144 596.668 98.9707L599.003 97.608C599.192 97.9937 599.493 98.3121 599.866 98.5205C600.239 98.7289 600.665 98.8176 601.089 98.7747C601.359 98.8083 601.633 98.7812 601.892 98.6952C602.15 98.6094 602.386 98.4668 602.584 98.2778C602.782 98.0887 602.935 97.8578 603.034 97.6016C603.133 97.3455 603.175 97.0704 603.157 96.796V95.9467C602.835 96.3417 602.426 96.6553 601.963 96.8627C601.5 97.0701 600.995 97.1655 600.489 97.1413C599.265 97.1413 598.091 96.6496 597.226 95.7745C596.36 94.8993 595.874 93.7124 595.874 92.4747C595.874 91.237 596.36 90.05 597.226 89.1749C598.091 88.2997 599.265 87.808 600.489 87.808C600.995 87.7838 601.5 87.8792 601.963 88.0866C602.426 88.2939 602.835 88.6076 603.157 89.0027V88.0693L605.825 88.0133ZM603.157 92.4467C603.175 92.0002 603.061 91.5582 602.829 91.1778C602.597 90.7974 602.258 90.4958 601.855 90.3118C601.452 90.1279 601.004 90.07 600.569 90.1456C600.133 90.2212 599.73 90.4268 599.411 90.736C599.092 91.0453 598.871 91.444 598.778 91.8809C598.685 92.3177 598.723 92.7728 598.888 93.1875C599.052 93.6023 599.336 93.9578 599.702 94.2083C600.068 94.4588 600.5 94.593 600.942 94.5933C601.23 94.6143 601.52 94.5739 601.792 94.4748C602.064 94.3756 602.312 94.2198 602.521 94.0175C602.73 93.8152 602.894 93.5709 603.004 93.3003C603.113 93.0297 603.165 92.7389 603.157 92.4467Z" fill="#737680"/>
<path d="M607.385 92.6334C607.385 91.6638 607.669 90.7161 608.202 89.9101C608.735 89.104 609.492 88.476 610.378 88.1055C611.264 87.7348 612.239 87.6383 613.18 87.8282C614.12 88.018 614.983 88.4856 615.661 89.1718C616.338 89.8581 616.799 90.7321 616.985 91.6831C617.171 92.6343 617.074 93.6198 616.705 94.515C616.337 95.4102 615.715 96.1748 614.916 96.7121C614.118 97.2493 613.18 97.5352 612.222 97.5334C611.584 97.5396 610.951 97.4171 610.361 97.1729C609.771 96.9287 609.235 96.5679 608.784 96.1115C608.334 95.6551 607.978 95.1124 607.737 94.5151C607.497 93.9179 607.377 93.2781 607.385 92.6334ZM614.326 92.6334C614.315 92.2147 614.182 91.8085 613.944 91.4658C613.706 91.1231 613.373 90.8591 612.987 90.7069C612.601 90.5546 612.179 90.5209 611.775 90.6101C611.37 90.6991 611 90.9071 610.712 91.2077C610.423 91.5083 610.229 91.8884 610.153 92.3002C610.077 92.7119 610.123 93.1372 610.286 93.5225C610.448 93.908 610.719 94.2364 611.065 94.4668C611.411 94.697 611.816 94.819 612.231 94.8174C612.512 94.8229 612.792 94.7697 613.053 94.6608C613.313 94.5521 613.549 94.3902 613.745 94.1852C613.94 93.9802 614.092 93.7366 614.191 93.4696C614.289 93.2026 614.332 92.9179 614.317 92.6334H614.326Z" fill="#737680"/>
<path d="M618.342 85.54C618.342 85.2114 618.438 84.8902 618.618 84.617C618.799 84.3438 619.056 84.1309 619.356 84.0051C619.656 83.8794 619.986 83.8465 620.305 83.9106C620.624 83.9747 620.917 84.1329 621.146 84.3653C621.376 84.5976 621.533 84.8936 621.596 85.2159C621.66 85.5381 621.627 85.8722 621.503 86.1758C621.378 86.4793 621.168 86.7388 620.897 86.9213C620.627 87.1039 620.31 87.2013 619.985 87.2013C619.55 87.1965 619.135 87.0199 618.828 86.7094C618.521 86.3989 618.346 85.9791 618.342 85.54ZM618.609 88.0133H621.378V97.2533H618.609V88.0133Z" fill="#737680"/>
<path d="M633.231 92.6333C633.262 93.2478 633.172 93.8624 632.968 94.4418C632.763 95.0212 632.447 95.554 632.037 96.0095C631.628 96.4648 631.134 96.834 630.583 97.0955C630.032 97.357 629.436 97.5058 628.828 97.5333C628.312 97.568 627.795 97.4844 627.315 97.2889C626.836 97.0933 626.406 96.7908 626.058 96.404V100.968H623.289V88.0133H626.058V88.8813C626.407 88.4956 626.837 88.1944 627.316 88.0004C627.796 87.8065 628.312 87.7247 628.828 87.7613C629.433 87.7888 630.027 87.9368 630.576 88.1965C631.125 88.4563 631.618 88.8228 632.027 89.2753C632.436 89.7277 632.753 90.257 632.959 90.8332C633.166 91.4094 633.258 92.021 633.231 92.6333ZM630.462 92.6333C630.451 92.1998 630.313 91.7792 630.067 91.4243C629.821 91.0692 629.476 90.7957 629.077 90.6378C628.678 90.4799 628.241 90.4447 627.822 90.5368C627.403 90.6287 627.02 90.8437 626.721 91.1548C626.422 91.4659 626.221 91.8592 626.142 92.2855C626.064 92.7118 626.111 93.1521 626.279 93.5511C626.447 93.9502 626.727 94.2903 627.085 94.5288C627.444 94.7673 627.863 94.8937 628.292 94.892C628.586 94.9046 628.879 94.8543 629.152 94.7443C629.425 94.6344 629.673 94.4672 629.877 94.254C630.082 94.0407 630.24 93.7861 630.341 93.5068C630.441 93.2275 630.483 92.9298 630.462 92.6333Z" fill="#737680"/>
<path d="M641.658 94.4813C641.658 96.6093 639.812 97.5147 637.855 97.5147C637.057 97.5873 636.256 97.4162 635.555 97.0235C634.854 96.6309 634.285 96.0347 633.923 95.312L636.305 93.9493C636.399 94.2823 636.604 94.5725 636.884 94.7713C637.165 94.9701 637.504 95.0654 637.846 95.0413C638.502 95.0413 638.834 94.836 638.834 94.4627C638.834 93.4453 634.338 93.9867 634.338 90.7853C634.338 88.7693 636.018 87.7613 637.92 87.7613C638.643 87.7286 639.361 87.8944 639.998 88.2412C640.635 88.5879 641.167 89.1026 641.538 89.7307L639.157 91C639.052 90.7592 638.88 90.5543 638.662 90.4103C638.444 90.2662 638.19 90.1889 637.929 90.188C637.449 90.188 637.163 90.3747 637.163 90.7013C637.163 91.7653 641.658 91.0653 641.658 94.4813Z" fill="#737680"/>
<path d="M651.692 88.0133V97.2533H648.923V96.3853C648.608 96.7695 648.209 97.0735 647.757 97.273C647.305 97.4724 646.813 97.5616 646.32 97.5333C644.474 97.5333 642.895 96.1986 642.895 93.7066V88.0133H645.665V93.2866C645.642 93.5071 645.668 93.7297 645.74 93.9391C645.812 94.1485 645.928 94.3396 646.079 94.4994C646.231 94.6591 646.416 94.7836 646.62 94.8643C646.824 94.945 647.043 94.9799 647.262 94.9666C648.258 94.9666 648.96 94.3693 648.96 93.1V88.0133H651.692Z" fill="#737680"/>
<path d="M667.385 91.5787V97.2533H664.615V91.8213C664.615 90.888 664.182 90.3093 663.305 90.3093C662.428 90.3093 661.874 90.9533 661.874 92.0453V97.2533H659.105V91.8213C659.105 90.888 658.671 90.3093 657.794 90.3093C656.917 90.3093 656.363 90.9533 656.363 92.0453V97.2533H653.594V88.0133H656.363V88.8627C656.65 88.4875 657.024 88.1903 657.453 87.998C657.882 87.8058 658.351 87.7244 658.818 87.7613C659.286 87.7367 659.754 87.8355 660.173 88.0482C660.592 88.2609 660.949 88.5802 661.209 88.9747C661.514 88.5626 661.916 88.2351 662.38 88.0229C662.842 87.8107 663.352 87.7207 663.858 87.7613C666.018 87.7613 667.385 89.2733 667.385 91.5787Z" fill="#737680"/>
<path d="M564.415 81.34V77.3734H552.046V104.627H564.415V100.66C561.882 100.66 559.452 99.6423 557.66 97.8307C555.868 96.0191 554.862 93.562 554.862 91C554.862 88.438 555.868 85.981 557.66 84.1694C559.452 82.3578 561.882 81.34 564.415 81.34Z" fill="#737680"/>
<path d="M564.415 81.34V100.66C566.949 100.66 569.379 99.6423 571.171 97.8307C572.963 96.0191 573.969 93.562 573.969 91C573.969 88.438 572.963 85.981 571.171 84.1694C569.379 82.3578 566.949 81.34 564.415 81.34Z" fill="#737680"/>
<path d="M669.711 87.9573C670.832 87.9573 671.742 87.0381 671.742 85.904C671.742 84.77 670.832 83.8507 669.711 83.8507C668.589 83.8507 667.68 84.77 667.68 85.904C667.68 87.0381 668.589 87.9573 669.711 87.9573Z" fill="#737680"/>
</g>
<g clip-path="url(#clip1_5_57)">
<path d="M738.228 85.6427H741.238V97.776H738.228V85.6427ZM742.438 93.212C742.438 90.2067 744.313 88.4053 747.125 88.4053C749.938 88.4053 751.813 90.2067 751.813 93.212C751.813 96.2174 750.003 98.0373 747.125 98.0373C744.247 98.0373 742.438 96.2827 742.438 93.212ZM748.831 93.212C748.831 91.56 748.184 90.5893 747.153 90.5893C746.122 90.5893 745.484 91.5227 745.484 93.212C745.484 94.9013 746.122 95.8253 747.153 95.8253C748.184 95.8253 748.85 94.9013 748.85 93.2213L748.831 93.212ZM753.013 98.4013H755.919C756.051 98.7128 756.282 98.9727 756.577 99.1412C756.871 99.3098 757.213 99.3777 757.55 99.3347C758.703 99.3347 759.303 98.7187 759.303 97.804V96.124H759.313C759.064 96.6471 758.663 97.0831 758.161 97.3747C757.659 97.6663 757.08 97.7996 756.5 97.7573C754.297 97.7573 752.834 96.0867 752.834 93.212C752.834 90.3373 754.231 88.5453 756.584 88.5453C757.179 88.5137 757.769 88.6663 758.272 88.9822C758.776 89.2982 759.169 89.7619 759.397 90.3093H759.313V88.62H762.294V97.7107C762.294 99.904 760.344 101.276 757.475 101.276C754.869 101.267 753.2 100.081 753.031 98.4107L753.013 98.4013ZM759.313 93.212C759.313 91.7467 758.638 90.8227 757.569 90.8227C756.5 90.8227 755.844 91.756 755.844 93.212C755.844 94.668 756.491 95.5267 757.569 95.5267C758.647 95.5267 759.313 94.7333 759.313 93.212ZM763.484 93.212C763.484 90.2067 765.359 88.4053 768.172 88.4053C770.984 88.4053 772.859 90.2067 772.859 93.212C772.859 96.2174 771.041 98.0373 768.172 98.0373C765.303 98.0373 763.503 96.2827 763.503 93.212H763.484ZM769.878 93.212C769.878 91.56 769.222 90.5893 768.2 90.5893C767.178 90.5893 766.531 91.5227 766.531 93.212C766.531 94.9013 767.169 95.8253 768.2 95.8253C769.231 95.8253 769.897 94.9013 769.897 93.2213L769.878 93.212ZM774.078 86.408C774.065 86.1028 774.144 85.8007 774.305 85.5406C774.466 85.2804 774.701 85.0741 774.98 84.9482C775.26 84.8222 775.571 84.7824 775.873 84.8339C776.176 84.8854 776.456 85.0258 776.677 85.237C776.899 85.4482 777.052 85.7207 777.117 86.0192C777.182 86.3178 777.155 86.6288 777.041 86.9123C776.927 87.1958 776.73 87.4389 776.476 87.6101C776.222 87.7814 775.922 87.8731 775.616 87.8733C775.42 87.8783 775.224 87.8444 775.042 87.7738C774.859 87.703 774.692 87.5968 774.551 87.4614C774.409 87.3259 774.296 87.1639 774.219 86.9846C774.141 86.8054 774.099 86.6126 774.097 86.4173L774.078 86.408ZM774.078 88.6107H777.125V97.8133H774.125L774.078 88.6107ZM788.084 93.212C788.084 96.208 786.734 97.944 784.438 97.944C783.85 97.9801 783.265 97.8357 782.762 97.5303C782.259 97.2248 781.862 96.7731 781.625 96.236H781.569V100.772H778.559V88.6387H781.55V90.2813H781.606C781.835 89.7338 782.228 89.2696 782.731 88.9523C783.234 88.6349 783.824 88.4798 784.419 88.508C786.781 88.4893 788.141 90.216 788.141 93.2213L788.084 93.212ZM785.019 93.212C785.019 91.756 784.334 90.8133 783.275 90.8133C782.216 90.8133 781.55 91.7467 781.541 93.212C781.531 94.6774 782.216 95.6013 783.275 95.6013C784.334 95.6013 785.075 94.7333 785.075 93.2213L785.019 93.212ZM793.222 88.396C795.744 88.396 797.309 89.5813 797.328 91.4853H794.581C794.581 90.8227 794.028 90.412 793.203 90.412C792.378 90.412 791.984 90.7293 791.984 91.2053C791.984 91.6813 792.331 91.8307 793.025 91.9707L794.956 92.3627C796.831 92.7547 797.581 93.5013 797.581 94.892C797.581 96.7587 795.847 98.028 793.269 98.028C790.691 98.028 789.013 96.796 788.891 94.92H791.806C791.891 95.6013 792.434 96.0027 793.316 96.0027C794.197 96.0027 794.609 95.7227 794.609 95.228C794.609 94.7333 794.328 94.6493 793.606 94.5L791.863 94.136C790.053 93.7533 789.106 92.8107 789.106 91.4013C789.163 89.572 790.738 88.4053 793.278 88.4053L793.222 88.396ZM807.659 97.804H804.744V96.0773H804.688C804.524 96.6533 804.169 97.1567 803.68 97.5044C803.19 97.8523 802.597 98.0237 801.997 97.9907C801.544 98.0053 801.092 97.9245 800.673 97.7533C800.254 97.5823 799.875 97.3247 799.563 96.9978C799.25 96.6708 799.011 96.2817 798.86 95.8561C798.709 95.4305 798.65 94.9778 798.688 94.528V88.62H801.697V93.884C801.697 94.9667 802.269 95.5547 803.206 95.5547C803.427 95.553 803.643 95.5044 803.843 95.4122C804.043 95.3199 804.22 95.186 804.362 95.0197C804.506 94.8534 804.612 94.6584 804.673 94.448C804.733 94.2376 804.748 94.0166 804.716 93.8V88.62H807.716L807.659 97.804ZM809.113 88.6107H812.038V90.384H812.103C812.264 89.8159 812.611 89.3172 813.088 88.9659C813.565 88.6147 814.145 88.4306 814.738 88.4427C815.333 88.3912 815.926 88.5625 816.401 88.9233C816.876 89.284 817.198 89.8082 817.306 90.3933H817.438C817.625 89.8051 818.002 89.2949 818.511 88.9422C819.019 88.5894 819.631 88.4138 820.25 88.4427C820.662 88.4271 821.072 88.4982 821.454 88.6514C821.836 88.8044 822.181 89.0362 822.467 89.3314C822.753 89.6265 822.973 89.9785 823.112 90.3641C823.253 90.7498 823.309 91.1605 823.278 91.5693V97.8133H820.25V92.3347C820.25 91.4013 819.809 90.8787 818.956 90.8787C818.767 90.8756 818.579 90.9133 818.406 90.9891C818.233 91.065 818.079 91.1773 817.953 91.3182C817.828 91.4592 817.734 91.6254 817.678 91.8058C817.624 91.9861 817.609 92.176 817.634 92.3627V97.8133H814.766V92.3067C814.766 91.3733 814.306 90.8787 813.481 90.8787C813.29 90.8772 813.101 90.9164 812.926 90.9937C812.751 91.071 812.595 91.1846 812.468 91.327C812.341 91.4693 812.247 91.637 812.19 91.8188C812.133 92.0007 812.116 92.1925 812.141 92.3813V97.8133H809.131L809.113 88.6107Z" fill="#737680"/>
<path d="M732.275 86.436C732.275 84.5783 731.712 82.764 730.658 81.2306C729.605 79.6972 728.111 78.5162 726.373 77.8423C724.634 77.1684 722.731 77.0331 720.914 77.454C719.096 77.875 717.449 78.8325 716.188 80.2013H704.488V104.785H729.191V93.296C730.16 92.4326 730.936 91.3754 731.468 90.1934C731.999 89.0113 732.274 87.731 732.275 86.436ZM727.522 86.436C727.524 87.3261 727.26 88.1968 726.765 88.9378C726.269 89.6788 725.564 90.2569 724.739 90.5988C723.913 90.9407 723.005 91.0312 722.127 90.8587C721.25 90.6861 720.444 90.2584 719.811 89.6297C719.178 89.0009 718.747 88.1993 718.572 87.3264C718.397 86.4534 718.486 85.5485 718.828 84.7259C719.169 83.9033 719.748 83.2002 720.492 82.7054C721.235 82.2107 722.109 81.9466 723.003 81.9466C724.2 81.9466 725.348 82.4193 726.195 83.2609C727.042 84.1026 727.519 85.2444 727.522 86.436ZM724.438 100.053H709.241V84.9333H713.872C713.782 85.4293 713.735 85.932 713.731 86.436C713.734 88.8834 714.711 91.2298 716.45 92.9603C718.188 94.6908 720.545 95.6641 723.003 95.6666C723.484 95.6641 723.963 95.6235 724.438 95.5453V100.053Z" fill="#737680"/>
</g>
<g clip-path="url(#clip2_5_57)">
<path d="M890.87 85.07H893.87V97.2H890.87V85.07ZM895.06 92.62C895.06 89.62 896.9 87.83 899.74 87.83C902.58 87.83 904.42 89.62 904.42 92.62C904.42 95.62 902.62 97.42 899.74 97.42C896.86 97.42 895.06 95.67 895.06 92.62ZM901.41 92.62C901.41 90.97 900.76 90 899.74 90C898.72 90 898.08 91 898.08 92.62C898.08 94.24 898.71 95.22 899.74 95.22C900.77 95.22 901.41 94.3 901.41 92.63V92.62ZM905.55 97.79H908.43C908.567 98.0945 908.799 98.3466 909.091 98.5088C909.383 98.6709 909.719 98.7345 910.05 98.69C911.19 98.69 911.79 98.07 911.79 97.17V95.49H911.73C911.491 96.0049 911.103 96.4363 910.616 96.7287C910.13 97.021 909.567 97.1608 909 97.13C906.81 97.13 905.36 95.46 905.36 92.59C905.36 89.72 906.74 87.91 909.04 87.91C909.625 87.8871 910.202 88.0434 910.695 88.3579C911.189 88.6725 911.574 89.1303 911.8 89.67V88H914.8V97.1C914.8 99.29 912.87 100.65 910.02 100.65C907.37 100.65 905.72 99.46 905.55 97.8V97.79ZM911.8 92.61C911.8 91.15 911.13 90.23 910.07 90.23C909.01 90.23 908.36 91.14 908.36 92.61C908.36 94.08 909 94.91 910.07 94.91C911.14 94.91 911.8 94.1 911.8 92.62V92.61ZM915.93 92.61C915.93 89.61 917.77 87.82 920.61 87.82C923.45 87.82 925.3 89.61 925.3 92.61C925.3 95.61 923.5 97.41 920.61 97.41C917.72 97.41 915.93 95.67 915.93 92.62V92.61ZM922.28 92.61C922.28 90.96 921.63 89.99 920.61 89.99C919.59 89.99 919 91 919 92.63C919 94.26 919.63 95.23 920.65 95.23C921.67 95.23 922.28 94.3 922.28 92.63V92.61ZM926.44 85.82C926.432 85.5171 926.514 85.2187 926.676 84.9626C926.838 84.7065 927.073 84.5043 927.35 84.3815C927.627 84.2588 927.934 84.221 928.232 84.2731C928.531 84.3251 928.807 84.4646 929.026 84.6739C929.245 84.8832 929.397 85.1528 929.463 85.4486C929.529 85.7444 929.505 86.053 929.395 86.3354C929.285 86.6177 929.094 86.8611 928.846 87.0346C928.597 87.2081 928.303 87.304 928 87.31C927.799 87.3238 927.598 87.2959 927.408 87.2281C927.219 87.1603 927.045 87.0541 926.899 86.916C926.752 86.778 926.636 86.6111 926.557 86.4259C926.478 86.2408 926.438 86.0413 926.44 85.84V85.82ZM926.44 88.02H929.44V97.2H926.44V88.02ZM940.33 92.61C940.33 95.61 939 97.32 936.72 97.32C936.135 97.3575 935.553 97.2146 935.052 96.9106C934.552 96.6065 934.156 96.156 933.92 95.62H933.86V100.14H930.86V88H933.86V89.64H933.92C934.145 89.0951 934.533 88.6329 935.031 88.3162C935.528 87.9995 936.111 87.8437 936.7 87.87C939 87.91 940.37 89.63 940.37 92.63L940.33 92.61ZM937.33 92.61C937.33 91.15 936.66 90.22 935.61 90.22C934.56 90.22 933.89 91.16 933.88 92.61C933.87 94.06 934.56 94.99 935.61 94.99C936.66 94.99 937.33 94.08 937.33 92.63V92.61ZM945.48 87.81C947.97 87.81 949.48 88.99 949.55 90.88H946.82C946.82 90.23 946.28 89.82 945.45 89.82C944.62 89.82 944.25 90.14 944.25 90.61C944.25 91.08 944.58 91.23 945.25 91.37L947.17 91.76C949 92.15 949.78 92.89 949.78 94.28C949.78 96.18 948.05 97.4 945.5 97.4C942.95 97.4 941.28 96.18 941.15 94.31H944.04C944.13 94.99 944.67 95.39 945.55 95.39C946.43 95.39 946.83 95.1 946.83 94.62C946.83 94.14 946.55 94.04 945.83 93.89L944.1 93.52C942.31 93.15 941.37 92.2 941.37 90.8C941.39 89 943 87.83 945.48 87.83V87.81ZM959.79 97.18H956.9V95.47H956.84C956.681 96.0441 956.331 96.5466 955.847 96.8941C955.363 97.2415 954.775 97.413 954.18 97.38C953.724 97.4059 953.268 97.3337 952.843 97.1682C952.417 97.0027 952.032 96.7479 951.714 96.4208C951.395 96.0938 951.15 95.7021 950.996 95.2724C950.842 94.8427 950.782 94.3849 950.82 93.93V88H953.82V93.24C953.82 94.33 954.38 94.91 955.31 94.91C955.528 94.9104 955.744 94.8643 955.942 94.7746C956.141 94.6849 956.319 94.5537 956.463 94.3899C956.606 94.226 956.714 94.0333 956.777 93.8247C956.84 93.616 956.859 93.3962 956.83 93.18V88H959.83L959.79 97.18ZM961.24 88H964.14V89.77H964.2C964.359 89.2035 964.702 88.7057 965.174 88.3547C965.646 88.0037 966.222 87.8191 966.81 87.83C967.409 87.7821 968.003 87.9612 968.476 88.3318C968.948 88.7024 969.264 89.2372 969.36 89.83H969.42C969.601 89.2309 969.977 88.7093 970.488 88.3472C970.998 87.9851 971.615 87.8031 972.24 87.83C972.648 87.8163 973.054 87.8886 973.432 88.0422C973.811 88.1957 974.152 88.4272 974.435 88.7214C974.718 89.0157 974.936 89.3662 975.075 89.7501C975.213 90.134 975.27 90.5429 975.24 90.95V97.2H972.24V91.75C972.24 90.75 971.79 90.29 970.95 90.29C970.763 90.2884 970.577 90.327 970.406 90.4032C970.235 90.4794 970.082 90.5914 969.958 90.7317C969.834 90.872 969.741 91.0372 969.686 91.2163C969.631 91.3955 969.616 91.5843 969.64 91.77V97.2H966.79V91.71C966.79 90.79 966.34 90.29 965.52 90.29C965.331 90.2901 965.143 90.3303 964.971 90.408C964.798 90.4858 964.643 90.5993 964.518 90.741C964.392 90.8827 964.298 91.0495 964.241 91.2304C964.185 91.4112 964.167 91.6019 964.19 91.79V97.2H961.19L961.24 88Z" fill="#737680"/>
<path d="M882.48 85.62C881.971 84.4564 881.297 83.372 880.48 82.4C879.271 80.9204 877.763 79.7134 876.055 78.8586C874.346 78.0038 872.476 77.5206 870.567 77.4407C868.658 77.3608 866.754 77.686 864.98 78.395C863.206 79.104 861.602 80.1807 860.274 81.5541C858.946 82.9276 857.924 84.5668 857.275 86.3637C856.626 88.1606 856.365 90.0746 856.51 91.9796C856.654 93.8847 857.2 95.7376 858.112 97.4164C859.023 99.0953 860.28 100.562 861.8 101.72C862.775 102.478 863.852 103.094 865 103.55C866.609 104.209 868.331 104.549 870.07 104.55C873.659 104.542 877.099 103.111 879.635 100.571C882.172 98.0314 883.597 94.5894 883.6 91C883.603 89.1485 883.221 87.3166 882.48 85.62ZM870.06 80.19C871.622 80.1898 873.164 80.5311 874.58 81.19C874.235 81.3392 873.872 81.4434 873.5 81.5C872.277 81.6771 871.143 82.2451 870.269 83.1192C869.395 83.9933 868.827 85.1266 868.65 86.35C868.572 87.0361 868.26 87.6744 867.767 88.1572C867.273 88.64 866.628 88.9377 865.94 89C864.717 89.1771 863.583 89.7451 862.709 90.6192C861.835 91.4933 861.267 92.6266 861.09 93.85C861.03 94.5024 860.752 95.1155 860.3 95.59C859.521 93.9433 859.171 92.1261 859.282 90.3077C859.394 88.4893 859.964 86.7287 860.939 85.1898C861.914 83.6508 863.263 82.3835 864.859 81.5059C866.455 80.6282 868.248 80.1686 870.07 80.17L870.06 80.19ZM861.79 98C861.91 97.89 862.03 97.79 862.15 97.67C863.04 96.8075 863.611 95.6689 863.77 94.44C863.835 93.7493 864.143 93.1041 864.64 92.62C865.118 92.1222 865.762 91.8163 866.45 91.76C867.673 91.5829 868.807 91.0149 869.681 90.1408C870.555 89.2667 871.123 88.1334 871.3 86.91C871.343 86.1875 871.653 85.5068 872.17 85C872.66 84.5119 873.31 84.2171 874 84.17C875.124 84.0154 876.172 83.5157 877 82.74C877.943 83.5221 878.741 84.4629 879.36 85.52C879.322 85.5714 879.278 85.6183 879.23 85.66C878.753 86.1622 878.11 86.4748 877.42 86.54C876.195 86.714 875.06 87.281 874.186 88.1557C873.311 89.0303 872.744 90.1654 872.57 91.39C872.5 92.0784 872.193 92.7213 871.703 93.2098C871.213 93.6982 870.569 94.0021 869.88 94.07C868.653 94.2458 867.515 94.8126 866.636 95.6863C865.757 96.5601 865.183 97.6941 865 98.92C864.946 99.4087 864.778 99.878 864.51 100.29C863.484 99.6808 862.565 98.9072 861.79 98ZM870.06 101.86C869.045 101.861 868.035 101.72 867.06 101.44C867.394 100.818 867.611 100.14 867.7 99.44C867.77 98.7531 868.075 98.1114 868.563 97.6232C869.051 97.135 869.693 96.8301 870.38 96.76C871.605 96.5849 872.741 96.0178 873.617 95.1435C874.493 94.2693 875.062 93.1349 875.24 91.91C875.31 91.2231 875.615 90.5814 876.103 90.0932C876.591 89.605 877.233 89.3001 877.92 89.23C878.842 89.1101 879.721 88.7668 880.48 88.23C880.901 89.8279 880.951 91.5012 880.626 93.1214C880.3 94.7416 879.608 96.2657 878.602 97.5768C877.596 98.8879 876.303 99.9511 874.822 100.685C873.342 101.419 871.713 101.804 870.06 101.81V101.86Z" fill="#737680"/>
</g>
<g clip-path="url(#clip3_5_57)">
<path d="M1026.02 90.0455C1025.68 90.386 1025.43 90.7969 1025.27 91.2488C1025.11 91.7009 1025.05 92.183 1025.09 92.6607L1025.08 92.6447C1025.12 93.2071 1025.05 93.773 1024.86 94.303C1024.67 94.833 1024.36 95.3144 1023.97 95.7135C1023.57 96.1125 1023.1 96.4197 1022.58 96.6136C1022.05 96.8074 1021.49 96.8832 1020.94 96.8357L1020.95 96.8518C1020.29 96.7892 1019.62 96.9355 1019.04 97.271C1018.46 97.6064 1018 98.1146 1017.71 98.7262C1017.43 99.3378 1017.34 100.023 1017.45 100.688C1017.57 101.354 1017.89 101.967 1018.36 102.445C1018.83 102.922 1019.44 103.241 1020.09 103.357C1020.75 103.473 1021.43 103.381 1022.03 103.093C1022.64 102.805 1023.14 102.336 1023.47 101.749C1023.8 101.163 1023.94 100.487 1023.88 99.8143L1023.9 99.8304C1023.85 99.268 1023.93 98.7021 1024.12 98.1721C1024.31 97.642 1024.61 97.1606 1025.01 96.7615C1025.4 96.3625 1025.88 96.0554 1026.4 95.8615C1026.93 95.6677 1027.49 95.5918 1028.04 95.6393L1028.02 95.6232C1028.57 95.6727 1029.11 95.5826 1029.61 95.3613C1030.11 95.14 1030.55 94.7948 1030.88 94.3575C1031.21 93.9203 1031.43 93.4051 1031.52 92.8599C1031.6 92.3147 1031.54 91.757 1031.36 91.2385C1031.17 90.7199 1030.86 90.2574 1030.45 89.8938C1030.04 89.5301 1029.54 89.2772 1029.01 89.1581C1028.48 89.0392 1027.93 89.0581 1027.4 89.2133C1026.88 89.3684 1026.4 89.6547 1026.02 90.0455H1026.02Z" fill="#737680"/>
<path d="M1019.51 94.7465L1019.49 94.7304C1019.96 94.7785 1020.44 94.7198 1020.89 94.5586C1021.33 94.3973 1021.74 94.1376 1022.08 93.7981C1022.41 93.4585 1022.67 93.0476 1022.83 92.5952C1022.99 92.1428 1023.05 91.6602 1023 91.1822L1023.02 91.1982C1022.97 90.6358 1023.04 90.0699 1023.24 89.5398C1023.43 89.0098 1023.73 88.5285 1024.13 88.1294C1024.52 87.7304 1025 87.4232 1025.52 87.2294C1026.04 87.0355 1026.6 86.9597 1027.16 87.0072L1027.14 86.9911C1027.81 87.0543 1028.47 86.9084 1029.05 86.5733C1029.63 86.2383 1030.1 85.7304 1030.38 85.1189C1030.67 84.5074 1030.76 83.8221 1030.64 83.1565C1030.53 82.4908 1030.21 81.8773 1029.74 81.3995C1029.27 80.9217 1028.66 80.6029 1028 80.4866C1027.35 80.3703 1026.67 80.4622 1026.06 80.7497C1025.46 81.0372 1024.96 81.5064 1024.63 82.0932C1024.3 82.68 1024.15 83.3558 1024.21 84.0286L1024.2 84.0116C1024.25 84.574 1024.17 85.14 1023.98 85.6702C1023.79 86.2003 1023.48 86.6817 1023.09 87.0808C1022.7 87.4799 1022.22 87.7871 1021.7 87.9808C1021.17 88.1746 1020.61 88.2503 1020.06 88.2027L1020.07 88.2197C1019.6 88.1715 1019.12 88.2302 1018.68 88.3915C1018.23 88.5526 1017.82 88.8124 1017.49 89.152C1017.15 89.4915 1016.89 89.9024 1016.73 90.3548C1016.57 90.8073 1016.52 91.2898 1016.56 91.7679L1016.55 91.7518C1016.59 92.3141 1016.52 92.88 1016.33 93.41C1016.14 93.9399 1015.83 94.4213 1015.44 94.8203C1015.04 95.2193 1014.57 95.5265 1014.04 95.7204C1013.52 95.9142 1012.96 95.9902 1012.41 95.9429L1012.42 95.959C1011.76 95.8957 1011.09 96.0416 1010.51 96.3767C1009.93 96.7118 1009.47 97.2197 1009.18 97.8312C1008.9 98.4427 1008.81 99.128 1008.92 99.7936C1009.04 100.459 1009.35 101.073 1009.82 101.551C1010.3 102.028 1010.9 102.347 1011.56 102.463C1012.22 102.58 1012.89 102.488 1013.5 102.2C1014.1 101.913 1014.61 101.444 1014.94 100.857C1015.27 100.27 1015.41 99.5942 1015.35 98.9215L1015.37 98.9375C1015.32 98.3751 1015.39 97.8092 1015.59 97.2791C1015.78 96.7491 1016.08 96.2678 1016.48 95.8687C1016.87 95.4697 1017.35 95.1624 1017.87 94.9687C1018.39 94.7748 1018.95 94.699 1019.51 94.7465Z" fill="#737680"/>
<path d="M1013.59 92.9544C1013.93 92.6141 1014.18 92.2032 1014.34 91.7511C1014.5 91.2991 1014.56 90.8169 1014.52 90.3393L1014.53 90.3553C1014.49 89.7928 1014.56 89.2267 1014.75 88.6965C1014.94 88.1663 1015.25 87.6849 1015.64 87.2858C1016.04 86.8867 1016.51 86.5796 1017.04 86.3859C1017.56 86.1921 1018.12 86.1165 1018.68 86.1643L1018.66 86.1482C1019.32 86.2112 1019.99 86.0652 1020.57 85.7302C1021.15 85.3952 1021.61 84.8874 1021.9 84.2761C1022.18 83.6648 1022.27 82.9797 1022.16 82.3143C1022.04 81.649 1021.73 81.0356 1021.26 80.558C1020.78 80.0804 1020.18 79.7617 1019.52 79.6454C1018.86 79.5292 1018.19 79.621 1017.58 79.9083C1016.98 80.1957 1016.48 80.6646 1016.15 81.2511C1015.81 81.8376 1015.67 82.5132 1015.73 83.1857L1015.72 83.1696C1015.76 83.732 1015.69 84.2979 1015.5 84.828C1015.31 85.358 1015 85.8394 1014.61 86.2384C1014.21 86.6375 1013.74 86.9447 1013.21 87.1385C1012.69 87.3323 1012.13 87.4082 1011.57 87.3607L1011.59 87.3768C1011.05 87.3275 1010.5 87.4177 1010 87.6391C1009.5 87.8604 1009.07 88.2058 1008.73 88.6431C1008.4 89.0803 1008.18 89.5955 1008.1 90.1407C1008.02 90.686 1008.07 91.2436 1008.26 91.762C1008.44 92.2805 1008.76 92.7429 1009.17 93.1065C1009.58 93.4702 1010.07 93.7231 1010.6 93.842C1011.14 93.9609 1011.69 93.9419 1012.21 93.7868C1012.74 93.6316 1013.21 93.3453 1013.6 92.9544H1013.59Z" fill="#737680"/>
<path d="M1040.93 84.0491H1043.55V96.9536H1040.93V84.0491Z" fill="#737680"/>
<path d="M1045.03 92.5348C1045.03 91.6075 1045.3 90.6998 1045.8 89.927C1046.31 89.1541 1047.03 88.5507 1047.88 88.1932C1048.72 87.8358 1049.65 87.7403 1050.55 87.919C1051.45 88.0976 1052.28 88.5423 1052.93 89.1968C1053.58 89.8512 1054.02 90.6859 1054.2 91.5952C1054.38 92.5045 1054.29 93.4474 1053.94 94.3045C1053.59 95.1616 1053 95.8945 1052.24 96.41C1051.47 96.9256 1050.58 97.2009 1049.66 97.2009C1049.05 97.2079 1048.45 97.0921 1047.89 96.8604C1047.32 96.6286 1046.81 96.2854 1046.38 95.851C1045.95 95.4166 1045.61 94.8995 1045.38 94.3302C1045.14 93.7608 1045.03 93.1504 1045.03 92.5348ZM1051.67 92.5348C1051.66 92.1351 1051.53 91.7475 1051.3 91.4204C1051.08 91.0935 1050.76 90.8415 1050.39 90.6962C1050.02 90.5509 1049.62 90.5186 1049.23 90.6034C1048.85 90.6882 1048.5 90.8862 1048.22 91.1729C1047.94 91.4595 1047.76 91.8221 1047.69 92.2151C1047.61 92.608 1047.66 93.0141 1047.81 93.3825C1047.96 93.7508 1048.22 94.0652 1048.55 94.2862C1048.88 94.5071 1049.27 94.625 1049.66 94.625C1049.93 94.6323 1050.2 94.5828 1050.45 94.4795C1050.7 94.3763 1050.93 94.2217 1051.12 94.0254C1051.31 93.8289 1051.45 93.5951 1051.55 93.3386C1051.64 93.082 1051.69 92.8084 1051.67 92.5348Z" fill="#737680"/>
<path d="M1064.74 88.1152V96.5081C1064.74 99.4777 1062.45 100.733 1060.12 100.733C1059.31 100.795 1058.49 100.628 1057.76 100.25C1057.03 99.8718 1056.41 99.2976 1055.98 98.5902L1058.22 97.2822C1058.4 97.6509 1058.69 97.9551 1059.04 98.1541C1059.4 98.3531 1059.81 98.4373 1060.21 98.3956C1060.47 98.4318 1060.73 98.4088 1060.98 98.3281C1061.23 98.2475 1061.46 98.1114 1061.65 97.9298C1061.84 97.7482 1061.98 97.5259 1062.08 97.2791C1062.17 97.0324 1062.21 96.7677 1062.18 96.5045V95.6964C1061.88 96.0764 1061.49 96.3782 1061.04 96.5778C1060.6 96.7773 1060.12 96.869 1059.63 96.8456C1058.48 96.8088 1057.39 96.3197 1056.59 95.4816C1055.78 94.6437 1055.33 93.5227 1055.33 92.3558C1055.33 91.189 1055.78 90.068 1056.59 89.23C1057.39 88.392 1058.48 87.9029 1059.63 87.8661C1060.12 87.8426 1060.6 87.9343 1061.04 88.1339C1061.49 88.3334 1061.88 88.6353 1062.18 89.0152V88.1134L1064.74 88.1152ZM1062.19 92.3572C1062.2 91.9298 1062.09 91.5069 1061.87 91.1429C1061.65 90.7788 1061.33 90.4903 1060.94 90.3145C1060.55 90.1386 1060.13 90.0835 1059.71 90.1562C1059.29 90.2289 1058.91 90.426 1058.6 90.7223C1058.3 91.0186 1058.09 91.4004 1058 91.8186C1057.91 92.2369 1057.95 92.6723 1058.11 93.069C1058.26 93.4657 1058.54 93.8056 1058.89 94.0447C1059.24 94.2838 1059.65 94.4113 1060.07 94.4107C1060.35 94.4302 1060.62 94.3911 1060.88 94.2959C1061.14 94.2007 1061.38 94.0516 1061.58 93.8581C1061.78 93.6647 1061.93 93.4312 1062.04 93.1726C1062.14 92.9141 1062.19 92.6364 1062.19 92.3572Z" fill="#737680"/>
<path d="M1066.22 92.5348C1066.22 91.6075 1066.48 90.6998 1066.99 89.927C1067.5 89.1541 1068.22 88.5507 1069.06 88.1932C1069.91 87.8358 1070.84 87.7403 1071.74 87.919C1072.64 88.0976 1073.47 88.5423 1074.12 89.1968C1074.77 89.8512 1075.21 90.6859 1075.39 91.5952C1075.57 92.5045 1075.48 93.4474 1075.13 94.3045C1074.78 95.1616 1074.18 95.8945 1073.42 96.41C1072.66 96.9256 1071.77 97.2009 1070.85 97.2009C1070.24 97.2079 1069.64 97.0921 1069.07 96.8604C1068.51 96.6286 1068 96.2854 1067.57 95.851C1067.14 95.4166 1066.79 94.8995 1066.56 94.3302C1066.33 93.7608 1066.21 93.1504 1066.22 92.5348ZM1072.86 92.5348C1072.85 92.1351 1072.72 91.7475 1072.49 91.4204C1072.27 91.0935 1071.95 90.8415 1071.58 90.6962C1071.21 90.5509 1070.81 90.5186 1070.42 90.6034C1070.04 90.6882 1069.68 90.8862 1069.41 91.1729C1069.13 91.4595 1068.95 91.8221 1068.87 92.2151C1068.8 92.608 1068.84 93.0141 1069 93.3825C1069.15 93.7508 1069.41 94.0652 1069.74 94.2862C1070.07 94.5071 1070.45 94.625 1070.85 94.625C1071.12 94.6323 1071.39 94.5828 1071.64 94.4795C1071.89 94.3763 1072.12 94.2217 1072.31 94.0254C1072.49 93.8289 1072.64 93.5951 1072.74 93.3386C1072.83 93.082 1072.87 92.8084 1072.86 92.5348Z" fill="#737680"/>
<path d="M1076.7 85.7464C1076.7 85.4317 1076.79 85.1241 1076.97 84.8625C1077.14 84.6008 1077.38 84.3969 1077.67 84.2764C1077.96 84.156 1078.28 84.1245 1078.58 84.1859C1078.89 84.2473 1079.17 84.3988 1079.39 84.6214C1079.61 84.8439 1079.75 85.1274 1079.82 85.436C1079.88 85.7446 1079.85 86.0646 1079.73 86.3553C1079.61 86.646 1079.41 86.8945 1079.15 87.0693C1078.89 87.2442 1078.58 87.3375 1078.27 87.3375C1077.86 87.3333 1077.46 87.1643 1077.17 86.8668C1076.87 86.5694 1076.71 86.1671 1076.7 85.7464ZM1076.97 88.1152H1079.59V96.9545H1076.96L1076.97 88.1152Z" fill="#737680"/>
<path d="M1090.9 92.5348C1090.93 93.119 1090.85 93.7035 1090.65 94.2547C1090.46 94.8058 1090.16 95.3128 1089.77 95.7464C1089.39 96.1801 1088.92 96.5318 1088.39 96.7814C1087.87 97.0311 1087.3 97.1736 1086.73 97.2009C1086.24 97.2278 1085.76 97.1448 1085.31 96.9583C1084.86 96.7718 1084.45 96.4862 1084.12 96.1223V100.489H1081.5V88.1152H1084.12V88.9456C1084.45 88.582 1084.86 88.2967 1085.31 88.1103C1085.76 87.9239 1086.24 87.8411 1086.73 87.8679C1087.3 87.8951 1087.87 88.0376 1088.39 88.2872C1088.92 88.5369 1089.39 88.8887 1089.77 89.3224C1090.16 89.7562 1090.46 90.2633 1090.66 90.8147C1090.85 91.366 1090.93 91.9506 1090.9 92.5348ZM1088.28 92.5348C1088.27 92.1212 1088.14 91.7197 1087.91 91.3808C1087.67 91.0418 1087.34 90.7805 1086.96 90.6293C1086.58 90.4781 1086.17 90.444 1085.77 90.5311C1085.37 90.6181 1085 90.8227 1084.72 91.1189C1084.43 91.4152 1084.24 91.7901 1084.16 92.1967C1084.08 92.6033 1084.13 93.0236 1084.29 93.4048C1084.45 93.7862 1084.71 94.1115 1085.05 94.3404C1085.39 94.5691 1085.79 94.6912 1086.2 94.6911C1086.48 94.7038 1086.76 94.6562 1087.03 94.5516C1087.29 94.447 1087.52 94.2876 1087.72 94.084C1087.92 93.8805 1088.07 93.6372 1088.16 93.3702C1088.26 93.1032 1088.3 92.8186 1088.28 92.5348Z" fill="#737680"/>
<path d="M1098.99 94.3018C1098.99 96.3348 1097.24 97.2009 1095.36 97.2009C1094.59 97.2707 1093.83 97.1076 1093.16 96.7326C1092.49 96.3576 1091.95 95.7879 1091.6 95.0973L1093.87 93.7893C1093.96 94.1085 1094.16 94.3862 1094.43 94.576C1094.7 94.7658 1095.03 94.8562 1095.35 94.8321C1095.98 94.8321 1096.3 94.6375 1096.3 94.2848C1096.3 93.3116 1092 93.825 1092 90.767C1092 88.8393 1093.61 87.8678 1095.42 87.8678C1096.11 87.846 1096.78 88.0099 1097.38 88.3425C1097.98 88.6751 1098.48 89.1643 1098.83 89.7589L1096.59 90.9786C1096.49 90.7471 1096.33 90.5498 1096.12 90.4115C1095.92 90.2732 1095.67 90.2 1095.42 90.2009C1094.97 90.2009 1094.69 90.3795 1094.69 90.6955C1094.69 91.7036 1098.99 91.0313 1098.99 94.3018Z" fill="#737680"/>
<path d="M1108.56 88.1152V96.9545H1105.94V96.1232C1105.64 96.49 1105.25 96.779 1104.82 96.9665C1104.39 97.154 1103.92 97.2346 1103.44 97.2018C1101.68 97.2018 1100.18 95.9295 1100.18 93.5411V88.1152H1102.8V93.1527C1102.78 93.3632 1102.8 93.576 1102.87 93.7763C1102.94 93.9767 1103.05 94.1596 1103.19 94.3127C1103.34 94.4656 1103.51 94.5848 1103.71 94.662C1103.9 94.7393 1104.11 94.7727 1104.32 94.7598C1105.28 94.7598 1105.94 94.1946 1105.94 92.9393V88.1179L1108.56 88.1152Z" fill="#737680"/>
<path d="M1123.59 91.5268V96.9536H1120.97V91.7562C1120.97 90.8723 1120.55 90.3071 1119.71 90.3071C1118.84 90.3071 1118.35 90.9259 1118.35 91.9687V96.9536H1115.73V91.7562C1115.73 90.8723 1115.31 90.3071 1114.47 90.3071C1113.6 90.3071 1113.11 90.9259 1113.11 91.9687V96.9536H1110.49V88.1143H1113.11V88.9268C1113.38 88.5663 1113.74 88.2804 1114.14 88.0954C1114.55 87.9102 1115 87.8317 1115.45 87.8669C1115.9 87.8447 1116.34 87.9405 1116.74 88.1448C1117.14 88.3492 1117.49 88.6552 1117.74 89.033C1118.03 88.6378 1118.41 88.3235 1118.85 88.1195C1119.3 87.9156 1119.78 87.8287 1120.27 87.8669C1122.27 87.8678 1123.59 89.317 1123.59 91.5268Z" fill="#737680"/>
<path d="M1125.8 88.0607C1126.88 88.0607 1127.75 87.1797 1127.75 86.0929C1127.75 85.006 1126.88 84.125 1125.8 84.125C1124.73 84.125 1123.86 85.006 1123.86 86.0929C1123.86 87.1797 1124.73 88.0607 1125.8 88.0607Z" fill="#737680"/>
</g>
<g clip-path="url(#clip4_5_57)">
<path d="M1198.52 98.39C1197.92 98.4222 1197.32 98.2531 1196.82 97.91C1196.62 97.7592 1196.45 97.5611 1196.34 97.3329C1196.23 97.1046 1196.17 96.8531 1196.18 96.6V87.33C1196.18 87.2907 1196.18 87.2509 1196.2 87.2135C1196.21 87.1761 1196.23 87.1421 1196.26 87.1142C1196.29 87.0862 1196.32 87.065 1196.36 87.0521C1196.4 87.0393 1196.44 87.0351 1196.48 87.04H1198.19C1198.38 87.04 1198.47 87.14 1198.47 87.33V95.88C1198.47 96.26 1198.64 96.45 1199 96.45C1199.15 96.4561 1199.3 96.4393 1199.45 96.4C1199.65 96.4 1199.76 96.46 1199.77 96.64L1199.93 97.89C1199.93 97.9264 1199.93 97.964 1199.92 98.0002C1199.91 98.0363 1199.9 98.0702 1199.88 98.0996C1199.85 98.129 1199.82 98.1531 1199.79 98.1705C1199.76 98.1878 1199.72 98.1978 1199.68 98.2C1199.31 98.3215 1198.92 98.3856 1198.52 98.39Z" fill="#737680"/>
<path d="M1208.13 97.32C1207.27 98.0175 1206.19 98.399 1205.08 98.399C1203.97 98.399 1202.89 98.0175 1202.03 97.32C1201.28 96.571 1200.85 95.5593 1200.85 94.505C1200.85 93.4507 1201.28 92.439 1202.03 91.69C1202.89 90.9961 1203.97 90.6169 1205.08 90.6169C1206.19 90.6169 1207.27 90.9961 1208.13 91.69C1208.87 92.4459 1209.28 93.4527 1209.28 94.5C1209.28 95.5473 1208.87 96.5541 1208.13 97.31V97.32ZM1203.64 96C1204.04 96.3548 1204.55 96.5514 1205.09 96.5514C1205.63 96.5514 1206.15 96.3548 1206.55 96C1206.91 95.5923 1207.1 95.0703 1207.1 94.53C1207.1 93.9897 1206.91 93.4676 1206.55 93.06C1206.15 92.7051 1205.63 92.5086 1205.09 92.5086C1204.55 92.5086 1204.04 92.7051 1203.64 93.06C1203.28 93.4676 1203.08 93.9897 1203.08 94.53C1203.08 95.0703 1203.28 95.5923 1203.64 96Z" fill="#737680"/>
<path d="M1218.69 90.87C1218.88 90.87 1218.97 90.97 1218.97 91.16V98.33C1218.99 98.8139 1218.9 99.2957 1218.7 99.7402C1218.51 100.185 1218.21 100.581 1217.84 100.9C1217.02 101.589 1215.96 101.947 1214.88 101.9C1213.91 101.934 1212.95 101.672 1212.13 101.15C1211.78 100.924 1211.48 100.63 1211.25 100.286C1211.02 99.9421 1210.87 99.5554 1210.8 99.15C1210.8 98.95 1210.8 98.86 1211.07 98.86H1212.78C1212.85 98.8624 1212.92 98.8854 1212.98 98.9262C1213.04 98.967 1213.09 99.0239 1213.12 99.09C1213.23 99.3937 1213.45 99.6465 1213.74 99.8C1214.09 99.9785 1214.48 100.068 1214.87 100.06C1215.11 100.073 1215.35 100.039 1215.58 99.9598C1215.8 99.8808 1216.01 99.7585 1216.19 99.6C1216.35 99.4342 1216.47 99.2379 1216.56 99.0231C1216.64 98.8083 1216.67 98.5793 1216.66 98.35V97.72C1216.05 98.1624 1215.31 98.3912 1214.55 98.37C1214.02 98.389 1213.49 98.3022 1212.99 98.1149C1212.5 97.9276 1212.04 97.6436 1211.66 97.28C1210.93 96.5341 1210.52 95.5374 1210.52 94.5C1210.52 93.4626 1210.93 92.4659 1211.66 91.72C1212.04 91.3596 1212.5 91.0783 1212.99 90.8929C1213.49 90.7074 1214.02 90.6214 1214.55 90.64C1215.33 90.6197 1216.09 90.8632 1216.72 91.33V91.17C1216.71 91.1317 1216.71 91.0928 1216.73 91.0562C1216.74 91.0196 1216.76 90.9863 1216.79 90.9585C1216.81 90.9307 1216.85 90.9093 1216.88 90.8957C1216.92 90.8821 1216.96 90.8768 1217 90.88L1218.69 90.87ZM1214.74 96.59C1215 96.598 1215.26 96.5493 1215.51 96.4473C1215.75 96.3454 1215.96 96.1927 1216.14 96C1216.47 95.5707 1216.66 95.043 1216.66 94.5C1216.66 93.957 1216.47 93.4293 1216.14 93C1215.96 92.8099 1215.75 92.6595 1215.51 92.5593C1215.27 92.4591 1215.01 92.4116 1214.75 92.42C1214.49 92.4118 1214.22 92.4603 1213.98 92.5622C1213.74 92.6641 1213.52 92.8169 1213.34 93.01C1212.96 93.4207 1212.77 93.9588 1212.79 94.51C1212.77 95.0558 1212.96 95.5882 1213.33 96C1213.51 96.1926 1213.73 96.345 1213.97 96.4469C1214.21 96.5487 1214.48 96.5975 1214.74 96.59Z" fill="#737680"/>
<path d="M1227.75 97.32C1226.89 98.0139 1225.81 98.3931 1224.7 98.3931C1223.59 98.3931 1222.51 98.0139 1221.65 97.32C1220.91 96.5624 1220.5 95.5539 1220.5 94.505C1220.5 93.456 1220.91 92.4476 1221.65 91.69C1222.51 90.9979 1223.59 90.6198 1224.7 90.6198C1225.81 90.6198 1226.89 90.9979 1227.75 91.69C1228.49 92.4459 1228.9 93.4527 1228.9 94.5C1228.9 95.5473 1228.49 96.5541 1227.75 97.31V97.32ZM1223.24 96C1223.44 96.1824 1223.67 96.3249 1223.92 96.4193C1224.17 96.5137 1224.44 96.5581 1224.71 96.55C1224.98 96.5568 1225.24 96.5117 1225.49 96.4174C1225.74 96.323 1225.97 96.1812 1226.16 96C1226.52 95.5896 1226.71 95.0686 1226.71 94.53C1226.71 93.9914 1226.52 93.4704 1226.16 93.06C1225.97 92.8788 1225.74 92.737 1225.49 92.6426C1225.24 92.5483 1224.98 92.5032 1224.71 92.51C1224.44 92.5018 1224.17 92.5463 1223.92 92.6407C1223.67 92.7351 1223.44 92.8776 1223.24 93.06C1222.89 93.4704 1222.69 93.9914 1222.69 94.53C1222.69 95.0686 1222.89 95.5896 1223.24 96Z" fill="#737680"/>
<path d="M1232.57 89.17C1232.3 89.4014 1231.96 89.5289 1231.6 89.5289C1231.24 89.5289 1230.9 89.4014 1230.63 89.17C1230.51 89.0569 1230.41 88.9205 1230.34 88.7692C1230.28 88.6179 1230.24 88.4548 1230.24 88.29C1230.24 88.1252 1230.28 87.9622 1230.34 87.8108C1230.41 87.6595 1230.51 87.5231 1230.63 87.41C1230.9 87.1844 1231.24 87.0607 1231.6 87.0607C1231.95 87.0607 1232.3 87.1844 1232.57 87.41C1232.69 87.5231 1232.79 87.6595 1232.85 87.8108C1232.92 87.9622 1232.96 88.1252 1232.96 88.29C1232.96 88.4548 1232.92 88.6179 1232.85 88.7692C1232.79 88.9205 1232.69 89.0569 1232.57 89.17ZM1232.78 98.39C1232.18 98.4192 1231.58 98.2504 1231.08 97.91C1230.88 97.757 1230.72 97.5582 1230.61 97.3303C1230.5 97.1024 1230.45 96.852 1230.45 96.6V91.16C1230.45 91.1208 1230.45 91.0809 1230.47 91.0435C1230.48 91.0061 1230.5 90.9722 1230.53 90.9442C1230.56 90.9162 1230.59 90.895 1230.63 90.8822C1230.67 90.8693 1230.71 90.8652 1230.75 90.87H1232.46C1232.65 90.87 1232.74 90.97 1232.74 91.16V95.88C1232.74 96.26 1232.92 96.45 1233.26 96.45C1233.42 96.4555 1233.57 96.4386 1233.72 96.4C1233.92 96.4 1234.03 96.46 1234.04 96.64L1234.2 97.89C1234.2 97.9265 1234.2 97.964 1234.19 98.0002C1234.19 98.0363 1234.17 98.0702 1234.15 98.0996C1234.12 98.129 1234.09 98.1532 1234.06 98.1705C1234.03 98.1878 1233.99 98.1979 1233.95 98.2C1233.58 98.3223 1233.18 98.3864 1232.78 98.39Z" fill="#737680"/>
<path d="M1240.48 90.63C1241.01 90.6093 1241.55 90.6942 1242.05 90.8797C1242.55 91.0652 1243 91.3476 1243.39 91.71C1244.11 92.4689 1244.51 93.4677 1244.51 94.505C1244.51 95.5423 1244.11 96.5411 1243.39 97.3C1243.01 97.6656 1242.55 97.9508 1242.05 98.1381C1241.55 98.3255 1241.02 98.4112 1240.48 98.39C1239.72 98.4067 1238.97 98.1784 1238.36 97.74V101.35C1238.36 101.54 1238.25 101.63 1238.06 101.63H1236.35C1236.31 101.637 1236.27 101.635 1236.24 101.623C1236.2 101.612 1236.16 101.591 1236.14 101.564C1236.11 101.536 1236.09 101.502 1236.07 101.465C1236.06 101.428 1236.06 101.388 1236.07 101.35V93.15C1236.08 93.0698 1236.07 92.988 1236.05 92.911C1236.02 92.8341 1235.98 92.7641 1235.92 92.7068C1235.86 92.6495 1235.79 92.6064 1235.71 92.5809C1235.63 92.5554 1235.55 92.5482 1235.47 92.56H1235.13C1234.91 92.56 1234.8 92.48 1234.8 92.32V91.14C1234.79 91.067 1234.81 90.9944 1234.85 90.9344C1234.9 90.8743 1234.96 90.8304 1235.03 90.81C1235.38 90.6843 1235.75 90.6233 1236.13 90.63C1236.5 90.5975 1236.88 90.6753 1237.2 90.8535C1237.53 91.0317 1237.8 91.302 1237.97 91.63C1238.3 91.3042 1238.69 91.0474 1239.12 90.8755C1239.55 90.7036 1240.02 90.62 1240.48 90.63ZM1238.89 96C1239.08 96.1864 1239.29 96.3347 1239.54 96.436C1239.78 96.5373 1240.04 96.5895 1240.3 96.5895C1240.56 96.5895 1240.82 96.5373 1241.06 96.436C1241.3 96.3347 1241.52 96.1864 1241.7 96C1242.08 95.5811 1242.28 95.0322 1242.26 94.47C1242.29 93.9073 1242.09 93.3572 1241.7 92.94C1241.52 92.7537 1241.3 92.6054 1241.06 92.504C1240.82 92.4027 1240.56 92.3505 1240.3 92.3505C1240.04 92.3505 1239.78 92.4027 1239.54 92.504C1239.29 92.6054 1239.08 92.7537 1238.89 92.94C1238.52 93.3646 1238.33 93.9113 1238.36 94.47C1238.34 95.0283 1238.53 95.5739 1238.89 96Z" fill="#737680"/>
<path d="M1249.31 98.39C1248.4 98.4269 1247.49 98.2122 1246.69 97.77C1246.38 97.581 1246.1 97.3237 1245.9 97.0173C1245.7 96.7109 1245.56 96.3632 1245.52 96C1245.52 95.8 1245.59 95.7 1245.81 95.7H1247.31C1247.38 95.7027 1247.45 95.7247 1247.5 95.7635C1247.56 95.8024 1247.61 95.8565 1247.64 95.92C1247.85 96.46 1248.41 96.73 1249.31 96.73C1249.62 96.744 1249.93 96.6822 1250.21 96.55C1250.31 96.5068 1250.39 96.4384 1250.46 96.3521C1250.52 96.2658 1250.55 96.1648 1250.56 96.06C1250.56 95.8 1250.4 95.62 1250.07 95.5C1249.69 95.3737 1249.29 95.2898 1248.88 95.25C1248.4 95.1966 1247.93 95.1131 1247.46 95C1247 94.8986 1246.59 94.6652 1246.27 94.33C1246.08 94.1022 1245.94 93.8387 1245.86 93.556C1245.78 93.2733 1245.76 92.9773 1245.8 92.6866C1245.84 92.3958 1245.94 92.1164 1246.1 91.8659C1246.25 91.6153 1246.46 91.3989 1246.71 91.23C1247.44 90.7709 1248.3 90.5472 1249.17 90.59C1250.01 90.5621 1250.84 90.7665 1251.57 91.18C1251.86 91.3435 1252.11 91.5692 1252.31 91.8408C1252.5 92.1124 1252.63 92.423 1252.68 92.75C1252.68 92.95 1252.59 93.05 1252.41 93.05H1250.91C1250.84 93.0537 1250.78 93.0385 1250.72 93.0064C1250.67 92.9743 1250.63 92.9267 1250.6 92.87C1250.5 92.6332 1250.31 92.4434 1250.07 92.34C1249.8 92.2014 1249.5 92.1325 1249.2 92.14C1248.9 92.1241 1248.6 92.1826 1248.33 92.31C1248.24 92.346 1248.16 92.409 1248.1 92.491C1248.04 92.573 1248.01 92.6701 1248.01 92.77C1248.01 92.9068 1248.06 93.0379 1248.15 93.1441C1248.24 93.2502 1248.36 93.3259 1248.49 93.36C1248.89 93.5047 1249.29 93.6054 1249.71 93.66C1250.18 93.7216 1250.65 93.8083 1251.12 93.92C1251.57 94.0215 1251.99 94.2548 1252.31 94.59C1252.48 94.7747 1252.61 94.9908 1252.7 95.226C1252.78 95.4611 1252.82 95.7106 1252.81 95.96C1252.82 96.3057 1252.73 96.6477 1252.57 96.9527C1252.4 97.2576 1252.16 97.5151 1251.86 97.7C1251.1 98.1797 1250.21 98.4203 1249.31 98.39Z" fill="#737680"/>
<path d="M1263.56 97.89C1263.56 97.9255 1263.56 97.9618 1263.55 97.9967C1263.54 98.0316 1263.53 98.0645 1263.51 98.0934C1263.48 98.1222 1263.46 98.1466 1263.42 98.1649C1263.39 98.1832 1263.36 98.1951 1263.32 98.2C1262.95 98.3192 1262.56 98.3832 1262.17 98.39C1261.79 98.4294 1261.4 98.3699 1261.04 98.2175C1260.68 98.0651 1260.37 97.8249 1260.14 97.52C1259.42 98.1273 1258.49 98.4389 1257.55 98.39C1257.11 98.4099 1256.67 98.3392 1256.26 98.1825C1255.85 98.0258 1255.48 97.7865 1255.17 97.48C1254.86 97.1589 1254.62 96.7799 1254.46 96.3658C1254.31 95.9516 1254.24 95.5109 1254.26 95.07V91.16C1254.26 90.97 1254.35 90.87 1254.55 90.87H1256.25C1256.45 90.87 1256.54 90.97 1256.54 91.16V94.77C1256.52 95.2198 1256.68 95.6596 1256.98 96C1257.13 96.1559 1257.31 96.2786 1257.51 96.3596C1257.71 96.4407 1257.93 96.4784 1258.15 96.47C1258.37 96.4796 1258.59 96.4456 1258.8 96.3701C1259.01 96.2946 1259.2 96.179 1259.37 96.03C1259.52 95.873 1259.64 95.6863 1259.72 95.4816C1259.8 95.277 1259.83 95.0586 1259.82 94.84V91.16C1259.82 90.97 1259.92 90.87 1260.11 90.87H1261.84C1262.03 90.87 1262.12 90.97 1262.12 91.16V95.87C1262.12 96.26 1262.29 96.45 1262.63 96.45C1262.79 96.456 1262.95 96.4391 1263.1 96.4C1263.14 96.3894 1263.18 96.3875 1263.22 96.3944C1263.26 96.4014 1263.29 96.417 1263.33 96.4401C1263.36 96.4632 1263.38 96.4931 1263.4 96.5278C1263.42 96.5624 1263.43 96.6008 1263.43 96.64L1263.56 97.89Z" fill="#737680"/>
<path d="M1279.72 97.89C1279.72 97.9258 1279.73 97.9631 1279.72 97.9993C1279.71 98.0355 1279.69 98.0697 1279.67 98.0993C1279.65 98.1289 1279.62 98.1533 1279.59 98.1707C1279.56 98.1881 1279.52 98.1981 1279.48 98.2C1279.1 98.3209 1278.71 98.3849 1278.31 98.39C1277.71 98.4207 1277.11 98.2517 1276.61 97.91C1276.4 97.7636 1276.23 97.5675 1276.11 97.339C1275.99 97.1104 1275.93 96.8566 1275.93 96.6V94.25C1275.95 93.8016 1275.8 93.3619 1275.51 93.02C1275.36 92.8637 1275.19 92.7405 1274.99 92.6592C1274.79 92.5779 1274.58 92.5406 1274.37 92.55C1274.17 92.5429 1273.98 92.5787 1273.81 92.655C1273.63 92.7312 1273.47 92.8457 1273.35 92.99C1273.08 93.3251 1272.94 93.7438 1272.96 94.17V97.86C1272.96 98.05 1272.87 98.15 1272.68 98.15H1270.96C1270.92 98.1549 1270.88 98.1507 1270.84 98.1379C1270.8 98.125 1270.77 98.1038 1270.74 98.0758C1270.71 98.0479 1270.69 98.0139 1270.68 97.9765C1270.66 97.9391 1270.66 97.8992 1270.66 97.86V94.25C1270.69 93.8065 1270.55 93.3699 1270.27 93.02C1270.14 92.873 1269.99 92.7547 1269.81 92.6735C1269.64 92.5922 1269.45 92.5501 1269.25 92.55C1269.04 92.5418 1268.84 92.5767 1268.64 92.6525C1268.45 92.7284 1268.28 92.8434 1268.13 92.99C1267.84 93.3144 1267.69 93.7381 1267.72 94.17V97.86C1267.72 97.8992 1267.72 97.9391 1267.7 97.9765C1267.69 98.0139 1267.67 98.0479 1267.64 98.0758C1267.61 98.1038 1267.58 98.125 1267.54 98.1379C1267.5 98.1507 1267.46 98.1549 1267.42 98.15H1265.76C1265.57 98.15 1265.48 98.05 1265.48 97.86V93.15C1265.49 93.0698 1265.48 92.988 1265.46 92.911C1265.43 92.834 1265.39 92.7641 1265.33 92.7068C1265.27 92.6495 1265.2 92.6064 1265.12 92.5809C1265.04 92.5554 1264.96 92.5482 1264.88 92.56H1264.54C1264.32 92.56 1264.21 92.48 1264.21 92.32V91.14C1264.2 91.067 1264.22 90.9944 1264.26 90.9343C1264.31 90.8743 1264.37 90.8304 1264.44 90.81C1264.79 90.6843 1265.16 90.6232 1265.54 90.63C1265.9 90.5999 1266.26 90.6703 1266.58 90.8331C1266.9 90.9959 1267.17 91.2444 1267.35 91.55C1267.69 91.2302 1268.1 90.9835 1268.54 90.8252C1268.99 90.6669 1269.46 90.6005 1269.93 90.63C1270.39 90.608 1270.85 90.6925 1271.27 90.8767C1271.68 91.0609 1272.05 91.3395 1272.34 91.69C1272.68 91.3303 1273.09 91.0486 1273.55 90.8653C1274.01 90.682 1274.51 90.6016 1275.01 90.63C1275.45 90.6096 1275.89 90.6799 1276.31 90.8365C1276.72 90.9932 1277.1 91.2327 1277.42 91.54C1277.73 91.8605 1277.97 92.2394 1278.12 92.6536C1278.28 93.0679 1278.35 93.509 1278.32 93.95V95.88C1278.32 96.26 1278.49 96.45 1278.82 96.45C1278.98 96.4572 1279.14 96.4404 1279.29 96.4C1279.5 96.4 1279.61 96.48 1279.62 96.64L1279.72 97.89Z" fill="#737680"/>
<path d="M1160.47 89.57C1161.22 86.6047 1162.96 83.9714 1165.4 82.0895C1167.85 80.2076 1170.87 79.1853 1173.98 79.1853C1177.09 79.1853 1180.1 80.2076 1182.55 82.0895C1185 83.9714 1186.74 86.6047 1187.49 89.57H1186.27C1184.21 89.5402 1182.19 90.1452 1180.5 91.3C1180.4 91.3695 1180.3 91.433 1180.2 91.49H1180.05C1179.95 91.433 1179.85 91.3695 1179.75 91.3C1178.04 90.1719 1176.03 89.5694 1173.98 89.5694C1171.92 89.5694 1169.91 90.1719 1168.21 91.3C1168.11 91.3695 1168.01 91.433 1167.9 91.49H1167.76C1167.65 91.433 1167.55 91.3695 1167.45 91.3C1165.76 90.1452 1163.75 89.5402 1161.69 89.57H1160.47ZM1184.07 95.84C1184.7 95.3603 1185.47 95.1093 1186.27 95.13H1187.91V91.92H1186.27C1184.87 91.9034 1183.5 92.3313 1182.37 93.14C1181.74 93.6013 1180.97 93.8502 1180.18 93.8502C1179.39 93.8502 1178.62 93.6013 1177.98 93.14C1176.82 92.3464 1175.44 91.921 1174.03 91.921C1172.62 91.921 1171.24 92.3464 1170.08 93.14C1169.44 93.6013 1168.67 93.8502 1167.88 93.8502C1167.09 93.8502 1166.32 93.6013 1165.68 93.14C1164.54 92.321 1163.15 91.8925 1161.74 91.92H1160.05V95.13H1161.69C1162.48 95.1093 1163.26 95.3603 1163.88 95.84C1165.04 96.6342 1166.42 97.06 1167.83 97.06C1169.24 97.06 1170.62 96.6342 1171.78 95.84C1172.4 95.3618 1173.18 95.111 1173.97 95.13C1174.77 95.1076 1175.54 95.3588 1176.17 95.84C1177.33 96.6337 1178.71 97.0591 1180.12 97.0591C1181.53 97.0591 1182.91 96.6337 1184.07 95.84ZM1184.07 101.58C1184.7 101.1 1185.47 100.849 1186.27 100.87H1187.91V97.66H1186.27C1184.87 97.6434 1183.5 98.0713 1182.37 98.88C1181.74 99.3413 1180.97 99.5902 1180.18 99.5902C1179.39 99.5902 1178.62 99.3413 1177.98 98.88C1176.82 98.0864 1175.44 97.661 1174.03 97.661C1172.62 97.661 1171.24 98.0864 1170.08 98.88C1169.44 99.3413 1168.67 99.5902 1167.88 99.5902C1167.09 99.5902 1166.32 99.3413 1165.68 98.88C1164.54 98.061 1163.15 97.6325 1161.74 97.66H1160.05V100.87H1161.69C1162.48 100.849 1163.26 101.1 1163.88 101.58C1165.04 102.374 1166.42 102.8 1167.83 102.8C1169.24 102.8 1170.62 102.374 1171.78 101.58C1172.4 101.102 1173.18 100.851 1173.97 100.87C1174.77 100.848 1175.54 101.099 1176.17 101.58C1177.33 102.374 1178.71 102.799 1180.12 102.799C1181.53 102.799 1182.91 102.374 1184.07 101.58Z" fill="#737680"/>
</g>
<path d="M6.22266 75.3369L1.98633 87H0.254883L5.13281 74.2031H6.24902L6.22266 75.3369ZM9.77344 87L5.52832 75.3369L5.50195 74.2031H6.61816L11.5137 87H9.77344ZM9.55371 82.2627V83.6514H2.36426V82.2627H9.55371ZM18.5186 84.4775C18.5186 84.2432 18.4658 84.0264 18.3604 83.8271C18.2607 83.6221 18.0527 83.4375 17.7363 83.2734C17.4258 83.1035 16.957 82.957 16.3301 82.834C15.8027 82.7227 15.3252 82.5908 14.8975 82.4385C14.4756 82.2861 14.1152 82.1016 13.8164 81.8848C13.5234 81.668 13.2979 81.4131 13.1396 81.1201C12.9814 80.8271 12.9023 80.4844 12.9023 80.0918C12.9023 79.7168 12.9844 79.3623 13.1484 79.0283C13.3184 78.6943 13.5557 78.3984 13.8604 78.1406C14.1709 77.8828 14.543 77.6807 14.9766 77.5342C15.4102 77.3877 15.8936 77.3145 16.4268 77.3145C17.1885 77.3145 17.8389 77.4492 18.3779 77.7188C18.917 77.9883 19.3301 78.3486 19.6172 78.7998C19.9043 79.2451 20.0479 79.7402 20.0479 80.2852H18.4219C18.4219 80.0215 18.3428 79.7666 18.1846 79.5205C18.0322 79.2686 17.8066 79.0605 17.5078 78.8965C17.2148 78.7324 16.8545 78.6504 16.4268 78.6504C15.9756 78.6504 15.6094 78.7207 15.3281 78.8613C15.0527 78.9961 14.8506 79.1689 14.7217 79.3799C14.5986 79.5908 14.5371 79.8135 14.5371 80.0479C14.5371 80.2236 14.5664 80.3818 14.625 80.5225C14.6895 80.6572 14.8008 80.7832 14.959 80.9004C15.1172 81.0117 15.3398 81.1172 15.627 81.2168C15.9141 81.3164 16.2803 81.416 16.7256 81.5156C17.5049 81.6914 18.1465 81.9023 18.6504 82.1484C19.1543 82.3945 19.5293 82.6963 19.7754 83.0537C20.0215 83.4111 20.1445 83.8447 20.1445 84.3545C20.1445 84.7705 20.0566 85.1514 19.8809 85.4971C19.7109 85.8428 19.4619 86.1416 19.1338 86.3936C18.8115 86.6396 18.4248 86.833 17.9736 86.9736C17.5283 87.1084 17.0273 87.1758 16.4707 87.1758C15.6328 87.1758 14.9238 87.0264 14.3438 86.7275C13.7637 86.4287 13.3242 86.042 13.0254 85.5674C12.7266 85.0928 12.5771 84.5918 12.5771 84.0645H14.2119C14.2354 84.5098 14.3643 84.8643 14.5986 85.1279C14.833 85.3857 15.1201 85.5703 15.46 85.6816C15.7998 85.7871 16.1367 85.8398 16.4707 85.8398C16.916 85.8398 17.2881 85.7812 17.5869 85.6641C17.8916 85.5469 18.123 85.3857 18.2812 85.1807C18.4395 84.9756 18.5186 84.7412 18.5186 84.4775ZM32.2822 84.4775C32.2822 84.2432 32.2295 84.0264 32.124 83.8271C32.0244 83.6221 31.8164 83.4375 31.5 83.2734C31.1895 83.1035 30.7207 82.957 30.0938 82.834C29.5664 82.7227 29.0889 82.5908 28.6611 82.4385C28.2393 82.2861 27.8789 82.1016 27.5801 81.8848C27.2871 81.668 27.0615 81.4131 26.9033 81.1201C26.7451 80.8271 26.666 80.4844 26.666 80.0918C26.666 79.7168 26.748 79.3623 26.9121 79.0283C27.082 78.6943 27.3193 78.3984 27.624 78.1406C27.9346 77.8828 28.3066 77.6807 28.7402 77.5342C29.1738 77.3877 29.6572 77.3145 30.1904 77.3145C30.9521 77.3145 31.6025 77.4492 32.1416 77.7188C32.6807 77.9883 33.0938 78.3486 33.3809 78.7998C33.668 79.2451 33.8115 79.7402 33.8115 80.2852H32.1855C32.1855 80.0215 32.1064 79.7666 31.9482 79.5205C31.7959 79.2686 31.5703 79.0605 31.2715 78.8965C30.9785 78.7324 30.6182 78.6504 30.1904 78.6504C29.7393 78.6504 29.373 78.7207 29.0918 78.8613C28.8164 78.9961 28.6143 79.1689 28.4854 79.3799C28.3623 79.5908 28.3008 79.8135 28.3008 80.0479C28.3008 80.2236 28.3301 80.3818 28.3887 80.5225C28.4531 80.6572 28.5645 80.7832 28.7227 80.9004C28.8809 81.0117 29.1035 81.1172 29.3906 81.2168C29.6777 81.3164 30.0439 81.416 30.4893 81.5156C31.2686 81.6914 31.9102 81.9023 32.4141 82.1484C32.918 82.3945 33.293 82.6963 33.5391 83.0537C33.7852 83.4111 33.9082 83.8447 33.9082 84.3545C33.9082 84.7705 33.8203 85.1514 33.6445 85.4971C33.4746 85.8428 33.2256 86.1416 32.8975 86.3936C32.5752 86.6396 32.1885 86.833 31.7373 86.9736C31.292 87.1084 30.791 87.1758 30.2344 87.1758C29.3965 87.1758 28.6875 87.0264 28.1074 86.7275C27.5273 86.4287 27.0879 86.042 26.7891 85.5674C26.4902 85.0928 26.3408 84.5918 26.3408 84.0645H27.9756C27.999 84.5098 28.1279 84.8643 28.3623 85.1279C28.5967 85.3857 28.8838 85.5703 29.2236 85.6816C29.5635 85.7871 29.9004 85.8398 30.2344 85.8398C30.6797 85.8398 31.0518 85.7812 31.3506 85.6641C31.6553 85.5469 31.8867 85.3857 32.0449 85.1807C32.2031 84.9756 32.2822 84.7412 32.2822 84.4775ZM39.9902 87.1758C39.3281 87.1758 38.7275 87.0645 38.1885 86.8418C37.6553 86.6133 37.1953 86.2939 36.8086 85.8838C36.4277 85.4736 36.1348 84.9873 35.9297 84.4248C35.7246 83.8623 35.6221 83.2471 35.6221 82.5791V82.21C35.6221 81.4365 35.7363 80.748 35.9648 80.1445C36.1934 79.5352 36.5039 79.0195 36.8965 78.5977C37.2891 78.1758 37.7344 77.8564 38.2324 77.6396C38.7305 77.4229 39.2461 77.3145 39.7793 77.3145C40.459 77.3145 41.0449 77.4316 41.5371 77.666C42.0352 77.9004 42.4424 78.2285 42.7588 78.6504C43.0752 79.0664 43.3096 79.5586 43.4619 80.127C43.6143 80.6895 43.6904 81.3047 43.6904 81.9727V82.7021H36.5889V81.375H42.0645V81.252C42.041 80.8301 41.9531 80.4199 41.8008 80.0215C41.6543 79.623 41.4199 79.2949 41.0977 79.0371C40.7754 78.7793 40.3359 78.6504 39.7793 78.6504C39.4102 78.6504 39.0703 78.7295 38.7598 78.8877C38.4492 79.04 38.1826 79.2686 37.96 79.5732C37.7373 79.8779 37.5645 80.25 37.4414 80.6895C37.3184 81.1289 37.2568 81.6357 37.2568 82.21V82.5791C37.2568 83.0303 37.3184 83.4551 37.4414 83.8535C37.5703 84.2461 37.7549 84.5918 37.9951 84.8906C38.2412 85.1895 38.5371 85.4238 38.8828 85.5938C39.2344 85.7637 39.6328 85.8486 40.0781 85.8486C40.6523 85.8486 41.1387 85.7314 41.5371 85.4971C41.9355 85.2627 42.2842 84.9492 42.583 84.5566L43.5674 85.3389C43.3623 85.6494 43.1016 85.9453 42.7852 86.2266C42.4688 86.5078 42.0791 86.7363 41.6162 86.9121C41.1592 87.0879 40.6172 87.1758 39.9902 87.1758ZM49.5352 87.1758C48.873 87.1758 48.2725 87.0645 47.7334 86.8418C47.2002 86.6133 46.7402 86.2939 46.3535 85.8838C45.9727 85.4736 45.6797 84.9873 45.4746 84.4248C45.2695 83.8623 45.167 83.2471 45.167 82.5791V82.21C45.167 81.4365 45.2812 80.748 45.5098 80.1445C45.7383 79.5352 46.0488 79.0195 46.4414 78.5977C46.834 78.1758 47.2793 77.8564 47.7773 77.6396C48.2754 77.4229 48.791 77.3145 49.3242 77.3145C50.0039 77.3145 50.5898 77.4316 51.082 77.666C51.5801 77.9004 51.9873 78.2285 52.3037 78.6504C52.6201 79.0664 52.8545 79.5586 53.0068 80.127C53.1592 80.6895 53.2354 81.3047 53.2354 81.9727V82.7021H46.1338V81.375H51.6094V81.252C51.5859 80.8301 51.498 80.4199 51.3457 80.0215C51.1992 79.623 50.9648 79.2949 50.6426 79.0371C50.3203 78.7793 49.8809 78.6504 49.3242 78.6504C48.9551 78.6504 48.6152 78.7295 48.3047 78.8877C47.9941 79.04 47.7275 79.2686 47.5049 79.5732C47.2822 79.8779 47.1094 80.25 46.9863 80.6895C46.8633 81.1289 46.8018 81.6357 46.8018 82.21V82.5791C46.8018 83.0303 46.8633 83.4551 46.9863 83.8535C47.1152 84.2461 47.2998 84.5918 47.54 84.8906C47.7861 85.1895 48.082 85.4238 48.4277 85.5938C48.7793 85.7637 49.1777 85.8486 49.623 85.8486C50.1973 85.8486 50.6836 85.7314 51.082 85.4971C51.4805 85.2627 51.8291 84.9492 52.1279 84.5566L53.1123 85.3389C52.9072 85.6494 52.6465 85.9453 52.3301 86.2266C52.0137 86.5078 51.624 86.7363 51.1611 86.9121C50.7041 87.0879 50.1621 87.1758 49.5352 87.1758ZM56.7598 79.5205V87H55.1338V77.4902H56.6719L56.7598 79.5205ZM56.373 81.8848L55.6963 81.8584C55.7021 81.208 55.7988 80.6074 55.9863 80.0566C56.1738 79.5 56.4375 79.0166 56.7773 78.6064C57.1172 78.1963 57.5215 77.8799 57.9902 77.6572C58.4648 77.4287 58.9893 77.3145 59.5635 77.3145C60.0322 77.3145 60.4541 77.3789 60.8291 77.5078C61.2041 77.6309 61.5234 77.8301 61.7871 78.1055C62.0566 78.3809 62.2617 78.7383 62.4023 79.1777C62.543 79.6113 62.6133 80.1416 62.6133 80.7686V87H60.9785V80.751C60.9785 80.2529 60.9053 79.8545 60.7588 79.5557C60.6123 79.251 60.3984 79.0312 60.1172 78.8965C59.8359 78.7559 59.4902 78.6855 59.0801 78.6855C58.6758 78.6855 58.3066 78.7705 57.9727 78.9404C57.6445 79.1104 57.3604 79.3447 57.1201 79.6436C56.8857 79.9424 56.7012 80.2852 56.5664 80.6719C56.4375 81.0527 56.373 81.457 56.373 81.8848ZM69.1172 82.3506V82.1484C69.1172 81.4629 69.2168 80.8271 69.416 80.2412C69.6152 79.6494 69.9023 79.1367 70.2773 78.7031C70.6523 78.2637 71.1064 77.9238 71.6396 77.6836C72.1729 77.4375 72.7705 77.3145 73.4326 77.3145C74.1006 77.3145 74.7012 77.4375 75.2344 77.6836C75.7734 77.9238 76.2305 78.2637 76.6055 78.7031C76.9863 79.1367 77.2764 79.6494 77.4756 80.2412C77.6748 80.8271 77.7744 81.4629 77.7744 82.1484V82.3506C77.7744 83.0361 77.6748 83.6719 77.4756 84.2578C77.2764 84.8438 76.9863 85.3564 76.6055 85.7959C76.2305 86.2295 75.7764 86.5693 75.2432 86.8154C74.7158 87.0557 74.1182 87.1758 73.4502 87.1758C72.7822 87.1758 72.1816 87.0557 71.6484 86.8154C71.1152 86.5693 70.6582 86.2295 70.2773 85.7959C69.9023 85.3564 69.6152 84.8438 69.416 84.2578C69.2168 83.6719 69.1172 83.0361 69.1172 82.3506ZM70.7432 82.1484V82.3506C70.7432 82.8252 70.7988 83.2734 70.9102 83.6953C71.0215 84.1113 71.1885 84.4805 71.4111 84.8027C71.6396 85.125 71.9238 85.3799 72.2637 85.5674C72.6035 85.749 72.999 85.8398 73.4502 85.8398C73.8955 85.8398 74.2852 85.749 74.6191 85.5674C74.959 85.3799 75.2402 85.125 75.4629 84.8027C75.6855 84.4805 75.8525 84.1113 75.9639 83.6953C76.0811 83.2734 76.1396 82.8252 76.1396 82.3506V82.1484C76.1396 81.6797 76.0811 81.2373 75.9639 80.8213C75.8525 80.3994 75.6826 80.0273 75.4541 79.7051C75.2314 79.377 74.9502 79.1191 74.6104 78.9316C74.2764 78.7441 73.8838 78.6504 73.4326 78.6504C72.9873 78.6504 72.5947 78.7441 72.2549 78.9316C71.9209 79.1191 71.6396 79.377 71.4111 79.7051C71.1885 80.0273 71.0215 80.3994 70.9102 80.8213C70.7988 81.2373 70.7432 81.6797 70.7432 82.1484ZM81.4395 79.5205V87H79.8135V77.4902H81.3516L81.4395 79.5205ZM81.0527 81.8848L80.376 81.8584C80.3818 81.208 80.4785 80.6074 80.666 80.0566C80.8535 79.5 81.1172 79.0166 81.457 78.6064C81.7969 78.1963 82.2012 77.8799 82.6699 77.6572C83.1445 77.4287 83.6689 77.3145 84.2432 77.3145C84.7119 77.3145 85.1338 77.3789 85.5088 77.5078C85.8838 77.6309 86.2031 77.8301 86.4668 78.1055C86.7363 78.3809 86.9414 78.7383 87.082 79.1777C87.2227 79.6113 87.293 80.1416 87.293 80.7686V87H85.6582V80.751C85.6582 80.2529 85.585 79.8545 85.4385 79.5557C85.292 79.251 85.0781 79.0312 84.7969 78.8965C84.5156 78.7559 84.1699 78.6855 83.7598 78.6855C83.3555 78.6855 82.9863 78.7705 82.6523 78.9404C82.3242 79.1104 82.04 79.3447 81.7998 79.6436C81.5654 79.9424 81.3809 80.2852 81.2461 80.6719C81.1172 81.0527 81.0527 81.457 81.0527 81.8848ZM98.209 77.4902V78.7383H93.0674V77.4902H98.209ZM94.8076 75.1787H96.4336V84.6445C96.4336 84.9668 96.4834 85.21 96.583 85.374C96.6826 85.5381 96.8115 85.6465 96.9697 85.6992C97.1279 85.752 97.2979 85.7783 97.4795 85.7783C97.6143 85.7783 97.7549 85.7666 97.9014 85.7432C98.0537 85.7139 98.168 85.6904 98.2441 85.6729L98.2529 87C98.124 87.041 97.9541 87.0791 97.7432 87.1143C97.5381 87.1553 97.2891 87.1758 96.9961 87.1758C96.5977 87.1758 96.2314 87.0967 95.8975 86.9385C95.5635 86.7803 95.2969 86.5166 95.0977 86.1475C94.9043 85.7725 94.8076 85.2686 94.8076 84.6357V75.1787ZM101.742 73.5V87H100.116V73.5H101.742ZM101.355 81.8848L100.679 81.8584C100.685 81.208 100.781 80.6074 100.969 80.0566C101.156 79.5 101.42 79.0166 101.76 78.6064C102.1 78.1963 102.504 77.8799 102.973 77.6572C103.447 77.4287 103.972 77.3145 104.546 77.3145C105.015 77.3145 105.437 77.3789 105.812 77.5078C106.187 77.6309 106.506 77.8301 106.77 78.1055C107.039 78.3809 107.244 78.7383 107.385 79.1777C107.525 79.6113 107.596 80.1416 107.596 80.7686V87H105.961V80.751C105.961 80.2529 105.888 79.8545 105.741 79.5557C105.595 79.251 105.381 79.0312 105.1 78.8965C104.818 78.7559 104.473 78.6855 104.062 78.6855C103.658 78.6855 103.289 78.7705 102.955 78.9404C102.627 79.1104 102.343 79.3447 102.103 79.6436C101.868 79.9424 101.684 80.2852 101.549 80.6719C101.42 81.0527 101.355 81.457 101.355 81.8848ZM113.977 87.1758C113.314 87.1758 112.714 87.0645 112.175 86.8418C111.642 86.6133 111.182 86.2939 110.795 85.8838C110.414 85.4736 110.121 84.9873 109.916 84.4248C109.711 83.8623 109.608 83.2471 109.608 82.5791V82.21C109.608 81.4365 109.723 80.748 109.951 80.1445C110.18 79.5352 110.49 79.0195 110.883 78.5977C111.275 78.1758 111.721 77.8564 112.219 77.6396C112.717 77.4229 113.232 77.3145 113.766 77.3145C114.445 77.3145 115.031 77.4316 115.523 77.666C116.021 77.9004 116.429 78.2285 116.745 78.6504C117.062 79.0664 117.296 79.5586 117.448 80.127C117.601 80.6895 117.677 81.3047 117.677 81.9727V82.7021H110.575V81.375H116.051V81.252C116.027 80.8301 115.939 80.4199 115.787 80.0215C115.641 79.623 115.406 79.2949 115.084 79.0371C114.762 78.7793 114.322 78.6504 113.766 78.6504C113.396 78.6504 113.057 78.7295 112.746 78.8877C112.436 79.04 112.169 79.2686 111.946 79.5732C111.724 79.8779 111.551 80.25 111.428 80.6895C111.305 81.1289 111.243 81.6357 111.243 82.21V82.5791C111.243 83.0303 111.305 83.4551 111.428 83.8535C111.557 84.2461 111.741 84.5918 111.981 84.8906C112.228 85.1895 112.523 85.4238 112.869 85.5938C113.221 85.7637 113.619 85.8486 114.064 85.8486C114.639 85.8486 115.125 85.7314 115.523 85.4971C115.922 85.2627 116.271 84.9492 116.569 84.5566L117.554 85.3389C117.349 85.6494 117.088 85.9453 116.771 86.2266C116.455 86.5078 116.065 86.7363 115.603 86.9121C115.146 87.0879 114.604 87.1758 113.977 87.1758ZM126.448 85.3125L128.892 77.4902H129.964L129.753 79.0459L127.266 87H126.22L126.448 85.3125ZM124.805 77.4902L126.888 85.4004L127.037 87H125.938L123.179 77.4902H124.805ZM132.302 85.3389L134.288 77.4902H135.905L133.146 87H132.056L132.302 85.3389ZM130.201 77.4902L132.592 85.1807L132.864 87H131.827L129.27 79.0283L129.059 77.4902H130.201ZM137.145 82.3506V82.1484C137.145 81.4629 137.244 80.8271 137.443 80.2412C137.643 79.6494 137.93 79.1367 138.305 78.7031C138.68 78.2637 139.134 77.9238 139.667 77.6836C140.2 77.4375 140.798 77.3145 141.46 77.3145C142.128 77.3145 142.729 77.4375 143.262 77.6836C143.801 77.9238 144.258 78.2637 144.633 78.7031C145.014 79.1367 145.304 79.6494 145.503 80.2412C145.702 80.8271 145.802 81.4629 145.802 82.1484V82.3506C145.802 83.0361 145.702 83.6719 145.503 84.2578C145.304 84.8438 145.014 85.3564 144.633 85.7959C144.258 86.2295 143.804 86.5693 143.271 86.8154C142.743 87.0557 142.146 87.1758 141.478 87.1758C140.81 87.1758 140.209 87.0557 139.676 86.8154C139.143 86.5693 138.686 86.2295 138.305 85.7959C137.93 85.3564 137.643 84.8438 137.443 84.2578C137.244 83.6719 137.145 83.0361 137.145 82.3506ZM138.771 82.1484V82.3506C138.771 82.8252 138.826 83.2734 138.938 83.6953C139.049 84.1113 139.216 84.4805 139.438 84.8027C139.667 85.125 139.951 85.3799 140.291 85.5674C140.631 85.749 141.026 85.8398 141.478 85.8398C141.923 85.8398 142.312 85.749 142.646 85.5674C142.986 85.3799 143.268 85.125 143.49 84.8027C143.713 84.4805 143.88 84.1113 143.991 83.6953C144.108 83.2734 144.167 82.8252 144.167 82.3506V82.1484C144.167 81.6797 144.108 81.2373 143.991 80.8213C143.88 80.3994 143.71 80.0273 143.481 79.7051C143.259 79.377 142.978 79.1191 142.638 78.9316C142.304 78.7441 141.911 78.6504 141.46 78.6504C141.015 78.6504 140.622 78.7441 140.282 78.9316C139.948 79.1191 139.667 79.377 139.438 79.7051C139.216 80.0273 139.049 80.3994 138.938 80.8213C138.826 81.2373 138.771 81.6797 138.771 82.1484ZM149.467 78.9844V87H147.841V77.4902H149.423L149.467 78.9844ZM152.438 77.4375L152.429 78.9492C152.294 78.9199 152.165 78.9023 152.042 78.8965C151.925 78.8848 151.79 78.8789 151.638 78.8789C151.263 78.8789 150.932 78.9375 150.645 79.0547C150.357 79.1719 150.114 79.3359 149.915 79.5469C149.716 79.7578 149.558 80.0098 149.44 80.3027C149.329 80.5898 149.256 80.9062 149.221 81.252L148.764 81.5156C148.764 80.9414 148.819 80.4023 148.931 79.8984C149.048 79.3945 149.227 78.9492 149.467 78.5625C149.707 78.1699 150.012 77.8652 150.381 77.6484C150.756 77.4258 151.201 77.3145 151.717 77.3145C151.834 77.3145 151.969 77.3291 152.121 77.3584C152.273 77.3818 152.379 77.4082 152.438 77.4375ZM155.707 73.5V87H154.072V73.5H155.707ZM164.312 85.1543V73.5H165.946V87H164.452L164.312 85.1543ZM157.913 82.3506V82.166C157.913 81.4395 158.001 80.7803 158.177 80.1885C158.358 79.5908 158.613 79.0781 158.941 78.6504C159.275 78.2227 159.671 77.8945 160.128 77.666C160.591 77.4316 161.106 77.3145 161.675 77.3145C162.272 77.3145 162.794 77.4199 163.239 77.6309C163.69 77.8359 164.071 78.1377 164.382 78.5361C164.698 78.9287 164.947 79.4033 165.129 79.96C165.311 80.5166 165.437 81.1465 165.507 81.8496V82.6582C165.442 83.3555 165.316 83.9824 165.129 84.5391C164.947 85.0957 164.698 85.5703 164.382 85.9629C164.071 86.3555 163.69 86.6572 163.239 86.8682C162.788 87.0732 162.261 87.1758 161.657 87.1758C161.101 87.1758 160.591 87.0557 160.128 86.8154C159.671 86.5752 159.275 86.2383 158.941 85.8047C158.613 85.3711 158.358 84.8613 158.177 84.2754C158.001 83.6836 157.913 83.042 157.913 82.3506ZM159.548 82.166V82.3506C159.548 82.8252 159.595 83.2705 159.688 83.6865C159.788 84.1025 159.94 84.4688 160.146 84.7852C160.351 85.1016 160.611 85.3506 160.928 85.5322C161.244 85.708 161.622 85.7959 162.062 85.7959C162.601 85.7959 163.043 85.6816 163.389 85.4531C163.74 85.2246 164.021 84.9229 164.232 84.5479C164.443 84.1729 164.607 83.7656 164.725 83.3262V81.208C164.654 80.8857 164.552 80.5752 164.417 80.2764C164.288 79.9717 164.118 79.7021 163.907 79.4678C163.702 79.2275 163.447 79.0371 163.143 78.8965C162.844 78.7559 162.489 78.6855 162.079 78.6855C161.634 78.6855 161.25 78.7793 160.928 78.9668C160.611 79.1484 160.351 79.4004 160.146 79.7227C159.94 80.0391 159.788 80.4082 159.688 80.8301C159.595 81.2461 159.548 81.6914 159.548 82.166ZM169.471 73.5V74.4668L169.286 77.7012H168.152L168.161 74.6162V73.5H169.471ZM176.458 84.4775C176.458 84.2432 176.405 84.0264 176.3 83.8271C176.2 83.6221 175.992 83.4375 175.676 83.2734C175.365 83.1035 174.896 82.957 174.27 82.834C173.742 82.7227 173.265 82.5908 172.837 82.4385C172.415 82.2861 172.055 82.1016 171.756 81.8848C171.463 81.668 171.237 81.4131 171.079 81.1201C170.921 80.8271 170.842 80.4844 170.842 80.0918C170.842 79.7168 170.924 79.3623 171.088 79.0283C171.258 78.6943 171.495 78.3984 171.8 78.1406C172.11 77.8828 172.482 77.6807 172.916 77.5342C173.35 77.3877 173.833 77.3145 174.366 77.3145C175.128 77.3145 175.778 77.4492 176.317 77.7188C176.856 77.9883 177.27 78.3486 177.557 78.7998C177.844 79.2451 177.987 79.7402 177.987 80.2852H176.361C176.361 80.0215 176.282 79.7666 176.124 79.5205C175.972 79.2686 175.746 79.0605 175.447 78.8965C175.154 78.7324 174.794 78.6504 174.366 78.6504C173.915 78.6504 173.549 78.7207 173.268 78.8613C172.992 78.9961 172.79 79.1689 172.661 79.3799C172.538 79.5908 172.477 79.8135 172.477 80.0479C172.477 80.2236 172.506 80.3818 172.564 80.5225C172.629 80.6572 172.74 80.7832 172.898 80.9004C173.057 81.0117 173.279 81.1172 173.566 81.2168C173.854 81.3164 174.22 81.416 174.665 81.5156C175.444 81.6914 176.086 81.9023 176.59 82.1484C177.094 82.3945 177.469 82.6963 177.715 83.0537C177.961 83.4111 178.084 83.8447 178.084 84.3545C178.084 84.7705 177.996 85.1514 177.82 85.4971C177.65 85.8428 177.401 86.1416 177.073 86.3936C176.751 86.6396 176.364 86.833 175.913 86.9736C175.468 87.1084 174.967 87.1758 174.41 87.1758C173.572 87.1758 172.863 87.0264 172.283 86.7275C171.703 86.4287 171.264 86.042 170.965 85.5674C170.666 85.0928 170.517 84.5918 170.517 84.0645H172.151C172.175 84.5098 172.304 84.8643 172.538 85.1279C172.772 85.3857 173.06 85.5703 173.399 85.6816C173.739 85.7871 174.076 85.8398 174.41 85.8398C174.855 85.8398 175.228 85.7812 175.526 85.6641C175.831 85.5469 176.062 85.3857 176.221 85.1807C176.379 84.9756 176.458 84.7412 176.458 84.4775ZM184.676 73.5H186.311V85.1543L186.17 87H184.676V73.5ZM192.735 82.166V82.3506C192.735 83.042 192.653 83.6836 192.489 84.2754C192.325 84.8613 192.085 85.3711 191.769 85.8047C191.452 86.2383 191.065 86.5752 190.608 86.8154C190.151 87.0557 189.627 87.1758 189.035 87.1758C188.432 87.1758 187.901 87.0732 187.444 86.8682C186.993 86.6572 186.612 86.3555 186.302 85.9629C185.991 85.5703 185.742 85.0957 185.555 84.5391C185.373 83.9824 185.247 83.3555 185.177 82.6582V81.8496C185.247 81.1465 185.373 80.5166 185.555 79.96C185.742 79.4033 185.991 78.9287 186.302 78.5361C186.612 78.1377 186.993 77.8359 187.444 77.6309C187.896 77.4199 188.42 77.3145 189.018 77.3145C189.615 77.3145 190.146 77.4316 190.608 77.666C191.071 77.8945 191.458 78.2227 191.769 78.6504C192.085 79.0781 192.325 79.5908 192.489 80.1885C192.653 80.7803 192.735 81.4395 192.735 82.166ZM191.101 82.3506V82.166C191.101 81.6914 191.057 81.2461 190.969 80.8301C190.881 80.4082 190.74 80.0391 190.547 79.7227C190.354 79.4004 190.099 79.1484 189.782 78.9668C189.466 78.7793 189.076 78.6855 188.613 78.6855C188.203 78.6855 187.846 78.7559 187.541 78.8965C187.242 79.0371 186.987 79.2275 186.776 79.4678C186.565 79.7021 186.393 79.9717 186.258 80.2764C186.129 80.5752 186.032 80.8857 185.968 81.208V83.3262C186.062 83.7363 186.214 84.1318 186.425 84.5127C186.642 84.8877 186.929 85.1953 187.286 85.4355C187.649 85.6758 188.098 85.7959 188.631 85.7959C189.07 85.7959 189.445 85.708 189.756 85.5322C190.072 85.3506 190.327 85.1016 190.521 84.7852C190.72 84.4688 190.866 84.1025 190.96 83.6865C191.054 83.2705 191.101 82.8252 191.101 82.3506ZM198.738 87.1758C198.076 87.1758 197.476 87.0645 196.937 86.8418C196.403 86.6133 195.943 86.2939 195.557 85.8838C195.176 85.4736 194.883 84.9873 194.678 84.4248C194.473 83.8623 194.37 83.2471 194.37 82.5791V82.21C194.37 81.4365 194.484 80.748 194.713 80.1445C194.941 79.5352 195.252 79.0195 195.645 78.5977C196.037 78.1758 196.482 77.8564 196.98 77.6396C197.479 77.4229 197.994 77.3145 198.527 77.3145C199.207 77.3145 199.793 77.4316 200.285 77.666C200.783 77.9004 201.19 78.2285 201.507 78.6504C201.823 79.0664 202.058 79.5586 202.21 80.127C202.362 80.6895 202.438 81.3047 202.438 81.9727V82.7021H195.337V81.375H200.812V81.252C200.789 80.8301 200.701 80.4199 200.549 80.0215C200.402 79.623 200.168 79.2949 199.846 79.0371C199.523 78.7793 199.084 78.6504 198.527 78.6504C198.158 78.6504 197.818 78.7295 197.508 78.8877C197.197 79.04 196.931 79.2686 196.708 79.5732C196.485 79.8779 196.312 80.25 196.189 80.6895C196.066 81.1289 196.005 81.6357 196.005 82.21V82.5791C196.005 83.0303 196.066 83.4551 196.189 83.8535C196.318 84.2461 196.503 84.5918 196.743 84.8906C196.989 85.1895 197.285 85.4238 197.631 85.5938C197.982 85.7637 198.381 85.8486 198.826 85.8486C199.4 85.8486 199.887 85.7314 200.285 85.4971C200.684 85.2627 201.032 84.9492 201.331 84.5566L202.315 85.3389C202.11 85.6494 201.85 85.9453 201.533 86.2266C201.217 86.5078 200.827 86.7363 200.364 86.9121C199.907 87.0879 199.365 87.1758 198.738 87.1758ZM209.874 84.4775C209.874 84.2432 209.821 84.0264 209.716 83.8271C209.616 83.6221 209.408 83.4375 209.092 83.2734C208.781 83.1035 208.312 82.957 207.686 82.834C207.158 82.7227 206.681 82.5908 206.253 82.4385C205.831 82.2861 205.471 82.1016 205.172 81.8848C204.879 81.668 204.653 81.4131 204.495 81.1201C204.337 80.8271 204.258 80.4844 204.258 80.0918C204.258 79.7168 204.34 79.3623 204.504 79.0283C204.674 78.6943 204.911 78.3984 205.216 78.1406C205.526 77.8828 205.898 77.6807 206.332 77.5342C206.766 77.3877 207.249 77.3145 207.782 77.3145C208.544 77.3145 209.194 77.4492 209.733 77.7188C210.272 77.9883 210.686 78.3486 210.973 78.7998C211.26 79.2451 211.403 79.7402 211.403 80.2852H209.777C209.777 80.0215 209.698 79.7666 209.54 79.5205C209.388 79.2686 209.162 79.0605 208.863 78.8965C208.57 78.7324 208.21 78.6504 207.782 78.6504C207.331 78.6504 206.965 78.7207 206.684 78.8613C206.408 78.9961 206.206 79.1689 206.077 79.3799C205.954 79.5908 205.893 79.8135 205.893 80.0479C205.893 80.2236 205.922 80.3818 205.98 80.5225C206.045 80.6572 206.156 80.7832 206.314 80.9004C206.473 81.0117 206.695 81.1172 206.982 81.2168C207.27 81.3164 207.636 81.416 208.081 81.5156C208.86 81.6914 209.502 81.9023 210.006 82.1484C210.51 82.3945 210.885 82.6963 211.131 83.0537C211.377 83.4111 211.5 83.8447 211.5 84.3545C211.5 84.7705 211.412 85.1514 211.236 85.4971C211.066 85.8428 210.817 86.1416 210.489 86.3936C210.167 86.6396 209.78 86.833 209.329 86.9736C208.884 87.1084 208.383 87.1758 207.826 87.1758C206.988 87.1758 206.279 87.0264 205.699 86.7275C205.119 86.4287 204.68 86.042 204.381 85.5674C204.082 85.0928 203.933 84.5918 203.933 84.0645H205.567C205.591 84.5098 205.72 84.8643 205.954 85.1279C206.188 85.3857 206.476 85.5703 206.815 85.6816C207.155 85.7871 207.492 85.8398 207.826 85.8398C208.271 85.8398 208.644 85.7812 208.942 85.6641C209.247 85.5469 209.479 85.3857 209.637 85.1807C209.795 84.9756 209.874 84.7412 209.874 84.4775ZM217.617 77.4902V78.7383H212.476V77.4902H217.617ZM214.216 75.1787H215.842V84.6445C215.842 84.9668 215.892 85.21 215.991 85.374C216.091 85.5381 216.22 85.6465 216.378 85.6992C216.536 85.752 216.706 85.7783 216.888 85.7783C217.022 85.7783 217.163 85.7666 217.31 85.7432C217.462 85.7139 217.576 85.6904 217.652 85.6729L217.661 87C217.532 87.041 217.362 87.0791 217.151 87.1143C216.946 87.1553 216.697 87.1758 216.404 87.1758C216.006 87.1758 215.64 87.0967 215.306 86.9385C214.972 86.7803 214.705 86.5166 214.506 86.1475C214.312 85.7725 214.216 85.2686 214.216 84.6357V75.1787ZM2.85645 106.38V114H1.22168V104.49H2.76855L2.85645 106.38ZM2.52246 108.885L1.7666 108.858C1.77246 108.208 1.85742 107.607 2.02148 107.057C2.18555 106.5 2.42871 106.017 2.75098 105.606C3.07324 105.196 3.47461 104.88 3.95508 104.657C4.43555 104.429 4.99219 104.314 5.625 104.314C6.07031 104.314 6.48047 104.379 6.85547 104.508C7.23047 104.631 7.55566 104.827 7.83105 105.097C8.10645 105.366 8.32031 105.712 8.47266 106.134C8.625 106.556 8.70117 107.065 8.70117 107.663V114H7.0752V107.742C7.0752 107.244 6.99023 106.846 6.82031 106.547C6.65625 106.248 6.42188 106.031 6.11719 105.896C5.8125 105.756 5.45508 105.686 5.04492 105.686C4.56445 105.686 4.16309 105.771 3.84082 105.94C3.51855 106.11 3.26074 106.345 3.06738 106.644C2.87402 106.942 2.7334 107.285 2.64551 107.672C2.56348 108.053 2.52246 108.457 2.52246 108.885ZM8.68359 107.988L7.59375 108.322C7.59961 107.801 7.68457 107.3 7.84863 106.819C8.01855 106.339 8.26172 105.911 8.57812 105.536C8.90039 105.161 9.2959 104.865 9.76465 104.648C10.2334 104.426 10.7695 104.314 11.373 104.314C11.8828 104.314 12.334 104.382 12.7266 104.517C13.125 104.651 13.459 104.859 13.7285 105.141C14.0039 105.416 14.2119 105.771 14.3525 106.204C14.4932 106.638 14.5635 107.153 14.5635 107.751V114H12.9287V107.733C12.9287 107.2 12.8438 106.787 12.6738 106.494C12.5098 106.195 12.2754 105.987 11.9707 105.87C11.6719 105.747 11.3145 105.686 10.8984 105.686C10.541 105.686 10.2246 105.747 9.94922 105.87C9.67383 105.993 9.44238 106.163 9.25488 106.38C9.06738 106.591 8.92383 106.834 8.82422 107.109C8.73047 107.385 8.68359 107.678 8.68359 107.988ZM22.6318 112.374V107.479C22.6318 107.104 22.5557 106.778 22.4033 106.503C22.2568 106.222 22.0342 106.005 21.7354 105.853C21.4365 105.7 21.0674 105.624 20.6279 105.624C20.2178 105.624 19.8574 105.694 19.5469 105.835C19.2422 105.976 19.002 106.16 18.8262 106.389C18.6562 106.617 18.5713 106.863 18.5713 107.127H16.9453C16.9453 106.787 17.0332 106.45 17.209 106.116C17.3848 105.782 17.6367 105.48 17.9648 105.211C18.2988 104.936 18.6973 104.719 19.1602 104.561C19.6289 104.396 20.1504 104.314 20.7246 104.314C21.416 104.314 22.0254 104.432 22.5527 104.666C23.0859 104.9 23.502 105.255 23.8008 105.729C24.1055 106.198 24.2578 106.787 24.2578 107.496V111.926C24.2578 112.242 24.2842 112.579 24.3369 112.937C24.3955 113.294 24.4805 113.602 24.5918 113.859V114H22.8955C22.8135 113.812 22.749 113.563 22.7021 113.253C22.6553 112.937 22.6318 112.644 22.6318 112.374ZM22.9131 108.234L22.9307 109.377H21.2871C20.8242 109.377 20.4111 109.415 20.0479 109.491C19.6846 109.562 19.3799 109.67 19.1338 109.816C18.8877 109.963 18.7002 110.147 18.5713 110.37C18.4424 110.587 18.3779 110.842 18.3779 111.135C18.3779 111.434 18.4453 111.706 18.5801 111.952C18.7148 112.198 18.917 112.395 19.1865 112.541C19.4619 112.682 19.7988 112.752 20.1973 112.752C20.6953 112.752 21.1348 112.646 21.5156 112.436C21.8965 112.225 22.1982 111.967 22.4209 111.662C22.6494 111.357 22.7725 111.062 22.79 110.774L23.4844 111.557C23.4434 111.803 23.332 112.075 23.1504 112.374C22.9688 112.673 22.7256 112.96 22.4209 113.235C22.1221 113.505 21.7646 113.73 21.3486 113.912C20.9385 114.088 20.4756 114.176 19.96 114.176C19.3154 114.176 18.75 114.05 18.2637 113.798C17.7832 113.546 17.4082 113.209 17.1387 112.787C16.875 112.359 16.7432 111.882 16.7432 111.354C16.7432 110.845 16.8428 110.396 17.042 110.01C17.2412 109.617 17.5283 109.292 17.9033 109.034C18.2783 108.771 18.7295 108.571 19.2568 108.437C19.7842 108.302 20.373 108.234 21.0234 108.234H22.9131ZM32.9766 104.49H34.4531V113.798C34.4531 114.636 34.2832 115.351 33.9434 115.942C33.6035 116.534 33.1289 116.982 32.5195 117.287C31.916 117.598 31.2188 117.753 30.4277 117.753C30.0996 117.753 29.7129 117.7 29.2676 117.595C28.8281 117.495 28.3945 117.322 27.9668 117.076C27.5449 116.836 27.1904 116.511 26.9033 116.101L27.7559 115.134C28.1543 115.614 28.5703 115.948 29.0039 116.136C29.4434 116.323 29.877 116.417 30.3047 116.417C30.8203 116.417 31.2656 116.32 31.6406 116.127C32.0156 115.934 32.3057 115.646 32.5107 115.266C32.7217 114.891 32.8271 114.428 32.8271 113.877V106.582L32.9766 104.49ZM26.4287 109.351V109.166C26.4287 108.439 26.5137 107.78 26.6836 107.188C26.8594 106.591 27.1084 106.078 27.4307 105.65C27.7588 105.223 28.1543 104.895 28.6172 104.666C29.0801 104.432 29.6016 104.314 30.1816 104.314C30.7793 104.314 31.3008 104.42 31.7461 104.631C32.1973 104.836 32.5781 105.138 32.8887 105.536C33.2051 105.929 33.4541 106.403 33.6357 106.96C33.8174 107.517 33.9434 108.146 34.0137 108.85V109.658C33.9492 110.355 33.8232 110.982 33.6357 111.539C33.4541 112.096 33.2051 112.57 32.8887 112.963C32.5781 113.355 32.1973 113.657 31.7461 113.868C31.2949 114.073 30.7676 114.176 30.1641 114.176C29.5957 114.176 29.0801 114.056 28.6172 113.815C28.1602 113.575 27.7676 113.238 27.4395 112.805C27.1113 112.371 26.8594 111.861 26.6836 111.275C26.5137 110.684 26.4287 110.042 26.4287 109.351ZM28.0547 109.166V109.351C28.0547 109.825 28.1016 110.271 28.1953 110.687C28.2949 111.103 28.4443 111.469 28.6436 111.785C28.8486 112.102 29.1094 112.351 29.4258 112.532C29.7422 112.708 30.1201 112.796 30.5596 112.796C31.0986 112.796 31.5439 112.682 31.8955 112.453C32.2471 112.225 32.5254 111.923 32.7305 111.548C32.9414 111.173 33.1055 110.766 33.2227 110.326V108.208C33.1582 107.886 33.0586 107.575 32.9238 107.276C32.7949 106.972 32.625 106.702 32.4141 106.468C32.209 106.228 31.9541 106.037 31.6494 105.896C31.3447 105.756 30.9873 105.686 30.5771 105.686C30.1318 105.686 29.748 105.779 29.4258 105.967C29.1094 106.148 28.8486 106.4 28.6436 106.723C28.4443 107.039 28.2949 107.408 28.1953 107.83C28.1016 108.246 28.0547 108.691 28.0547 109.166ZM42.5303 112.374V107.479C42.5303 107.104 42.4541 106.778 42.3018 106.503C42.1553 106.222 41.9326 106.005 41.6338 105.853C41.335 105.7 40.9658 105.624 40.5264 105.624C40.1162 105.624 39.7559 105.694 39.4453 105.835C39.1406 105.976 38.9004 106.16 38.7246 106.389C38.5547 106.617 38.4697 106.863 38.4697 107.127H36.8438C36.8438 106.787 36.9316 106.45 37.1074 106.116C37.2832 105.782 37.5352 105.48 37.8633 105.211C38.1973 104.936 38.5957 104.719 39.0586 104.561C39.5273 104.396 40.0488 104.314 40.623 104.314C41.3145 104.314 41.9238 104.432 42.4512 104.666C42.9844 104.9 43.4004 105.255 43.6992 105.729C44.0039 106.198 44.1562 106.787 44.1562 107.496V111.926C44.1562 112.242 44.1826 112.579 44.2354 112.937C44.2939 113.294 44.3789 113.602 44.4902 113.859V114H42.7939C42.7119 113.812 42.6475 113.563 42.6006 113.253C42.5537 112.937 42.5303 112.644 42.5303 112.374ZM42.8115 108.234L42.8291 109.377H41.1855C40.7227 109.377 40.3096 109.415 39.9463 109.491C39.583 109.562 39.2783 109.67 39.0322 109.816C38.7861 109.963 38.5986 110.147 38.4697 110.37C38.3408 110.587 38.2764 110.842 38.2764 111.135C38.2764 111.434 38.3438 111.706 38.4785 111.952C38.6133 112.198 38.8154 112.395 39.085 112.541C39.3604 112.682 39.6973 112.752 40.0957 112.752C40.5938 112.752 41.0332 112.646 41.4141 112.436C41.7949 112.225 42.0967 111.967 42.3193 111.662C42.5479 111.357 42.6709 111.062 42.6885 110.774L43.3828 111.557C43.3418 111.803 43.2305 112.075 43.0488 112.374C42.8672 112.673 42.624 112.96 42.3193 113.235C42.0205 113.505 41.6631 113.73 41.2471 113.912C40.8369 114.088 40.374 114.176 39.8584 114.176C39.2139 114.176 38.6484 114.05 38.1621 113.798C37.6816 113.546 37.3066 113.209 37.0371 112.787C36.7734 112.359 36.6416 111.882 36.6416 111.354C36.6416 110.845 36.7412 110.396 36.9404 110.01C37.1396 109.617 37.4268 109.292 37.8018 109.034C38.1768 108.771 38.6279 108.571 39.1553 108.437C39.6826 108.302 40.2715 108.234 40.9219 108.234H42.8115ZM53.7979 112.664V114H46.8809V112.664H53.7979ZM53.543 105.642L47.25 114H46.2568V112.805L52.5059 104.49H53.543V105.642ZM52.8223 104.49V105.835H46.3271V104.49H52.8223ZM57.4102 104.49V114H55.7754V104.49H57.4102ZM55.6523 101.968C55.6523 101.704 55.7314 101.481 55.8896 101.3C56.0537 101.118 56.2939 101.027 56.6104 101.027C56.9209 101.027 57.1582 101.118 57.3223 101.3C57.4922 101.481 57.5771 101.704 57.5771 101.968C57.5771 102.22 57.4922 102.437 57.3223 102.618C57.1582 102.794 56.9209 102.882 56.6104 102.882C56.2939 102.882 56.0537 102.794 55.8896 102.618C55.7314 102.437 55.6523 102.22 55.6523 101.968ZM61.6465 106.521V114H60.0205V104.49H61.5586L61.6465 106.521ZM61.2598 108.885L60.583 108.858C60.5889 108.208 60.6855 107.607 60.873 107.057C61.0605 106.5 61.3242 106.017 61.6641 105.606C62.0039 105.196 62.4082 104.88 62.877 104.657C63.3516 104.429 63.876 104.314 64.4502 104.314C64.9189 104.314 65.3408 104.379 65.7158 104.508C66.0908 104.631 66.4102 104.83 66.6738 105.105C66.9434 105.381 67.1484 105.738 67.2891 106.178C67.4297 106.611 67.5 107.142 67.5 107.769V114H65.8652V107.751C65.8652 107.253 65.792 106.854 65.6455 106.556C65.499 106.251 65.2852 106.031 65.0039 105.896C64.7227 105.756 64.377 105.686 63.9668 105.686C63.5625 105.686 63.1934 105.771 62.8594 105.94C62.5312 106.11 62.2471 106.345 62.0068 106.644C61.7725 106.942 61.5879 107.285 61.4531 107.672C61.3242 108.053 61.2598 108.457 61.2598 108.885ZM73.916 114.176C73.2539 114.176 72.6533 114.064 72.1143 113.842C71.5811 113.613 71.1211 113.294 70.7344 112.884C70.3535 112.474 70.0605 111.987 69.8555 111.425C69.6504 110.862 69.5479 110.247 69.5479 109.579V109.21C69.5479 108.437 69.6621 107.748 69.8906 107.145C70.1191 106.535 70.4297 106.02 70.8223 105.598C71.2148 105.176 71.6602 104.856 72.1582 104.64C72.6562 104.423 73.1719 104.314 73.7051 104.314C74.3848 104.314 74.9707 104.432 75.4629 104.666C75.9609 104.9 76.3682 105.229 76.6846 105.65C77.001 106.066 77.2354 106.559 77.3877 107.127C77.54 107.689 77.6162 108.305 77.6162 108.973V109.702H70.5146V108.375H75.9902V108.252C75.9668 107.83 75.8789 107.42 75.7266 107.021C75.5801 106.623 75.3457 106.295 75.0234 106.037C74.7012 105.779 74.2617 105.65 73.7051 105.65C73.3359 105.65 72.9961 105.729 72.6855 105.888C72.375 106.04 72.1084 106.269 71.8857 106.573C71.6631 106.878 71.4902 107.25 71.3672 107.689C71.2441 108.129 71.1826 108.636 71.1826 109.21V109.579C71.1826 110.03 71.2441 110.455 71.3672 110.854C71.4961 111.246 71.6807 111.592 71.9209 111.891C72.167 112.189 72.4629 112.424 72.8086 112.594C73.1602 112.764 73.5586 112.849 74.0039 112.849C74.5781 112.849 75.0645 112.731 75.4629 112.497C75.8613 112.263 76.21 111.949 76.5088 111.557L77.4932 112.339C77.2881 112.649 77.0273 112.945 76.7109 113.227C76.3945 113.508 76.0049 113.736 75.542 113.912C75.085 114.088 74.543 114.176 73.916 114.176ZM85.0518 111.478C85.0518 111.243 84.999 111.026 84.8936 110.827C84.7939 110.622 84.5859 110.438 84.2695 110.273C83.959 110.104 83.4902 109.957 82.8633 109.834C82.3359 109.723 81.8584 109.591 81.4307 109.438C81.0088 109.286 80.6484 109.102 80.3496 108.885C80.0566 108.668 79.8311 108.413 79.6729 108.12C79.5146 107.827 79.4355 107.484 79.4355 107.092C79.4355 106.717 79.5176 106.362 79.6816 106.028C79.8516 105.694 80.0889 105.398 80.3936 105.141C80.7041 104.883 81.0762 104.681 81.5098 104.534C81.9434 104.388 82.4268 104.314 82.96 104.314C83.7217 104.314 84.3721 104.449 84.9111 104.719C85.4502 104.988 85.8633 105.349 86.1504 105.8C86.4375 106.245 86.5811 106.74 86.5811 107.285H84.9551C84.9551 107.021 84.876 106.767 84.7178 106.521C84.5654 106.269 84.3398 106.061 84.041 105.896C83.748 105.732 83.3877 105.65 82.96 105.65C82.5088 105.65 82.1426 105.721 81.8613 105.861C81.5859 105.996 81.3838 106.169 81.2549 106.38C81.1318 106.591 81.0703 106.813 81.0703 107.048C81.0703 107.224 81.0996 107.382 81.1582 107.522C81.2227 107.657 81.334 107.783 81.4922 107.9C81.6504 108.012 81.873 108.117 82.1602 108.217C82.4473 108.316 82.8135 108.416 83.2588 108.516C84.0381 108.691 84.6797 108.902 85.1836 109.148C85.6875 109.395 86.0625 109.696 86.3086 110.054C86.5547 110.411 86.6777 110.845 86.6777 111.354C86.6777 111.771 86.5898 112.151 86.4141 112.497C86.2441 112.843 85.9951 113.142 85.667 113.394C85.3447 113.64 84.958 113.833 84.5068 113.974C84.0615 114.108 83.5605 114.176 83.0039 114.176C82.166 114.176 81.457 114.026 80.877 113.728C80.2969 113.429 79.8574 113.042 79.5586 112.567C79.2598 112.093 79.1104 111.592 79.1104 111.064H80.7451C80.7686 111.51 80.8975 111.864 81.1318 112.128C81.3662 112.386 81.6533 112.57 81.9932 112.682C82.333 112.787 82.6699 112.84 83.0039 112.84C83.4492 112.84 83.8213 112.781 84.1201 112.664C84.4248 112.547 84.6562 112.386 84.8145 112.181C84.9727 111.976 85.0518 111.741 85.0518 111.478ZM98.8857 112.374V107.479C98.8857 107.104 98.8096 106.778 98.6572 106.503C98.5107 106.222 98.2881 106.005 97.9893 105.853C97.6904 105.7 97.3213 105.624 96.8818 105.624C96.4717 105.624 96.1113 105.694 95.8008 105.835C95.4961 105.976 95.2559 106.16 95.0801 106.389C94.9102 106.617 94.8252 106.863 94.8252 107.127H93.1992C93.1992 106.787 93.2871 106.45 93.4629 106.116C93.6387 105.782 93.8906 105.48 94.2188 105.211C94.5527 104.936 94.9512 104.719 95.4141 104.561C95.8828 104.396 96.4043 104.314 96.9785 104.314C97.6699 104.314 98.2793 104.432 98.8066 104.666C99.3398 104.9 99.7559 105.255 100.055 105.729C100.359 106.198 100.512 106.787 100.512 107.496V111.926C100.512 112.242 100.538 112.579 100.591 112.937C100.649 113.294 100.734 113.602 100.846 113.859V114H99.1494C99.0674 113.812 99.0029 113.563 98.9561 113.253C98.9092 112.937 98.8857 112.644 98.8857 112.374ZM99.167 108.234L99.1846 109.377H97.541C97.0781 109.377 96.665 109.415 96.3018 109.491C95.9385 109.562 95.6338 109.67 95.3877 109.816C95.1416 109.963 94.9541 110.147 94.8252 110.37C94.6963 110.587 94.6318 110.842 94.6318 111.135C94.6318 111.434 94.6992 111.706 94.834 111.952C94.9688 112.198 95.1709 112.395 95.4404 112.541C95.7158 112.682 96.0527 112.752 96.4512 112.752C96.9492 112.752 97.3887 112.646 97.7695 112.436C98.1504 112.225 98.4521 111.967 98.6748 111.662C98.9033 111.357 99.0264 111.062 99.0439 110.774L99.7383 111.557C99.6973 111.803 99.5859 112.075 99.4043 112.374C99.2227 112.673 98.9795 112.96 98.6748 113.235C98.376 113.505 98.0186 113.73 97.6025 113.912C97.1924 114.088 96.7295 114.176 96.2139 114.176C95.5693 114.176 95.0039 114.05 94.5176 113.798C94.0371 113.546 93.6621 113.209 93.3926 112.787C93.1289 112.359 92.9971 111.882 92.9971 111.354C92.9971 110.845 93.0967 110.396 93.2959 110.01C93.4951 109.617 93.7822 109.292 94.1572 109.034C94.5322 108.771 94.9834 108.571 95.5107 108.437C96.0381 108.302 96.627 108.234 97.2773 108.234H99.167ZM104.695 106.521V114H103.069V104.49H104.607L104.695 106.521ZM104.309 108.885L103.632 108.858C103.638 108.208 103.734 107.607 103.922 107.057C104.109 106.5 104.373 106.017 104.713 105.606C105.053 105.196 105.457 104.88 105.926 104.657C106.4 104.429 106.925 104.314 107.499 104.314C107.968 104.314 108.39 104.379 108.765 104.508C109.14 104.631 109.459 104.83 109.723 105.105C109.992 105.381 110.197 105.738 110.338 106.178C110.479 106.611 110.549 107.142 110.549 107.769V114H108.914V107.751C108.914 107.253 108.841 106.854 108.694 106.556C108.548 106.251 108.334 106.031 108.053 105.896C107.771 105.756 107.426 105.686 107.016 105.686C106.611 105.686 106.242 105.771 105.908 105.94C105.58 106.11 105.296 106.345 105.056 106.644C104.821 106.942 104.637 107.285 104.502 107.672C104.373 108.053 104.309 108.457 104.309 108.885ZM119.013 112.154V100.5H120.647V114H119.153L119.013 112.154ZM112.614 109.351V109.166C112.614 108.439 112.702 107.78 112.878 107.188C113.06 106.591 113.314 106.078 113.643 105.65C113.977 105.223 114.372 104.895 114.829 104.666C115.292 104.432 115.808 104.314 116.376 104.314C116.974 104.314 117.495 104.42 117.94 104.631C118.392 104.836 118.772 105.138 119.083 105.536C119.399 105.929 119.648 106.403 119.83 106.96C120.012 107.517 120.138 108.146 120.208 108.85V109.658C120.144 110.355 120.018 110.982 119.83 111.539C119.648 112.096 119.399 112.57 119.083 112.963C118.772 113.355 118.392 113.657 117.94 113.868C117.489 114.073 116.962 114.176 116.358 114.176C115.802 114.176 115.292 114.056 114.829 113.815C114.372 113.575 113.977 113.238 113.643 112.805C113.314 112.371 113.06 111.861 112.878 111.275C112.702 110.684 112.614 110.042 112.614 109.351ZM114.249 109.166V109.351C114.249 109.825 114.296 110.271 114.39 110.687C114.489 111.103 114.642 111.469 114.847 111.785C115.052 112.102 115.312 112.351 115.629 112.532C115.945 112.708 116.323 112.796 116.763 112.796C117.302 112.796 117.744 112.682 118.09 112.453C118.441 112.225 118.723 111.923 118.934 111.548C119.145 111.173 119.309 110.766 119.426 110.326V108.208C119.355 107.886 119.253 107.575 119.118 107.276C118.989 106.972 118.819 106.702 118.608 106.468C118.403 106.228 118.148 106.037 117.844 105.896C117.545 105.756 117.19 105.686 116.78 105.686C116.335 105.686 115.951 105.779 115.629 105.967C115.312 106.148 115.052 106.4 114.847 106.723C114.642 107.039 114.489 107.408 114.39 107.83C114.296 108.246 114.249 108.691 114.249 109.166ZM129.261 106.38V114H127.626V104.49H129.173L129.261 106.38ZM128.927 108.885L128.171 108.858C128.177 108.208 128.262 107.607 128.426 107.057C128.59 106.5 128.833 106.017 129.155 105.606C129.478 105.196 129.879 104.88 130.359 104.657C130.84 104.429 131.396 104.314 132.029 104.314C132.475 104.314 132.885 104.379 133.26 104.508C133.635 104.631 133.96 104.827 134.235 105.097C134.511 105.366 134.725 105.712 134.877 106.134C135.029 106.556 135.105 107.065 135.105 107.663V114H133.479V107.742C133.479 107.244 133.395 106.846 133.225 106.547C133.061 106.248 132.826 106.031 132.521 105.896C132.217 105.756 131.859 105.686 131.449 105.686C130.969 105.686 130.567 105.771 130.245 105.94C129.923 106.11 129.665 106.345 129.472 106.644C129.278 106.942 129.138 107.285 129.05 107.672C128.968 108.053 128.927 108.457 128.927 108.885ZM135.088 107.988L133.998 108.322C134.004 107.801 134.089 107.3 134.253 106.819C134.423 106.339 134.666 105.911 134.982 105.536C135.305 105.161 135.7 104.865 136.169 104.648C136.638 104.426 137.174 104.314 137.777 104.314C138.287 104.314 138.738 104.382 139.131 104.517C139.529 104.651 139.863 104.859 140.133 105.141C140.408 105.416 140.616 105.771 140.757 106.204C140.897 106.638 140.968 107.153 140.968 107.751V114H139.333V107.733C139.333 107.2 139.248 106.787 139.078 106.494C138.914 106.195 138.68 105.987 138.375 105.87C138.076 105.747 137.719 105.686 137.303 105.686C136.945 105.686 136.629 105.747 136.354 105.87C136.078 105.993 135.847 106.163 135.659 106.38C135.472 106.591 135.328 106.834 135.229 107.109C135.135 107.385 135.088 107.678 135.088 107.988ZM147.375 114.176C146.713 114.176 146.112 114.064 145.573 113.842C145.04 113.613 144.58 113.294 144.193 112.884C143.812 112.474 143.52 111.987 143.314 111.425C143.109 110.862 143.007 110.247 143.007 109.579V109.21C143.007 108.437 143.121 107.748 143.35 107.145C143.578 106.535 143.889 106.02 144.281 105.598C144.674 105.176 145.119 104.856 145.617 104.64C146.115 104.423 146.631 104.314 147.164 104.314C147.844 104.314 148.43 104.432 148.922 104.666C149.42 104.9 149.827 105.229 150.144 105.65C150.46 106.066 150.694 106.559 150.847 107.127C150.999 107.689 151.075 108.305 151.075 108.973V109.702H143.974V108.375H149.449V108.252C149.426 107.83 149.338 107.42 149.186 107.021C149.039 106.623 148.805 106.295 148.482 106.037C148.16 105.779 147.721 105.65 147.164 105.65C146.795 105.65 146.455 105.729 146.145 105.888C145.834 106.04 145.567 106.269 145.345 106.573C145.122 106.878 144.949 107.25 144.826 107.689C144.703 108.129 144.642 108.636 144.642 109.21V109.579C144.642 110.03 144.703 110.455 144.826 110.854C144.955 111.246 145.14 111.592 145.38 111.891C145.626 112.189 145.922 112.424 146.268 112.594C146.619 112.764 147.018 112.849 147.463 112.849C148.037 112.849 148.523 112.731 148.922 112.497C149.32 112.263 149.669 111.949 149.968 111.557L150.952 112.339C150.747 112.649 150.486 112.945 150.17 113.227C149.854 113.508 149.464 113.736 149.001 113.912C148.544 114.088 148.002 114.176 147.375 114.176ZM158.968 112.154V100.5H160.603V114H159.108L158.968 112.154ZM152.569 109.351V109.166C152.569 108.439 152.657 107.78 152.833 107.188C153.015 106.591 153.27 106.078 153.598 105.65C153.932 105.223 154.327 104.895 154.784 104.666C155.247 104.432 155.763 104.314 156.331 104.314C156.929 104.314 157.45 104.42 157.896 104.631C158.347 104.836 158.728 105.138 159.038 105.536C159.354 105.929 159.604 106.403 159.785 106.96C159.967 107.517 160.093 108.146 160.163 108.85V109.658C160.099 110.355 159.973 110.982 159.785 111.539C159.604 112.096 159.354 112.57 159.038 112.963C158.728 113.355 158.347 113.657 157.896 113.868C157.444 114.073 156.917 114.176 156.313 114.176C155.757 114.176 155.247 114.056 154.784 113.815C154.327 113.575 153.932 113.238 153.598 112.805C153.27 112.371 153.015 111.861 152.833 111.275C152.657 110.684 152.569 110.042 152.569 109.351ZM154.204 109.166V109.351C154.204 109.825 154.251 110.271 154.345 110.687C154.444 111.103 154.597 111.469 154.802 111.785C155.007 112.102 155.268 112.351 155.584 112.532C155.9 112.708 156.278 112.796 156.718 112.796C157.257 112.796 157.699 112.682 158.045 112.453C158.396 112.225 158.678 111.923 158.889 111.548C159.1 111.173 159.264 110.766 159.381 110.326V108.208C159.311 107.886 159.208 107.575 159.073 107.276C158.944 106.972 158.774 106.702 158.563 106.468C158.358 106.228 158.104 106.037 157.799 105.896C157.5 105.756 157.146 105.686 156.735 105.686C156.29 105.686 155.906 105.779 155.584 105.967C155.268 106.148 155.007 106.4 154.802 106.723C154.597 107.039 154.444 107.408 154.345 107.83C154.251 108.246 154.204 108.691 154.204 109.166ZM164.9 104.49V114H163.266V104.49H164.9ZM163.143 101.968C163.143 101.704 163.222 101.481 163.38 101.3C163.544 101.118 163.784 101.027 164.101 101.027C164.411 101.027 164.648 101.118 164.812 101.3C164.982 101.481 165.067 101.704 165.067 101.968C165.067 102.22 164.982 102.437 164.812 102.618C164.648 102.794 164.411 102.882 164.101 102.882C163.784 102.882 163.544 102.794 163.38 102.618C163.222 102.437 163.143 102.22 163.143 101.968ZM173.118 112.374V107.479C173.118 107.104 173.042 106.778 172.89 106.503C172.743 106.222 172.521 106.005 172.222 105.853C171.923 105.7 171.554 105.624 171.114 105.624C170.704 105.624 170.344 105.694 170.033 105.835C169.729 105.976 169.488 106.16 169.312 106.389C169.143 106.617 169.058 106.863 169.058 107.127H167.432C167.432 106.787 167.52 106.45 167.695 106.116C167.871 105.782 168.123 105.48 168.451 105.211C168.785 104.936 169.184 104.719 169.646 104.561C170.115 104.396 170.637 104.314 171.211 104.314C171.902 104.314 172.512 104.432 173.039 104.666C173.572 104.9 173.988 105.255 174.287 105.729C174.592 106.198 174.744 106.787 174.744 107.496V111.926C174.744 112.242 174.771 112.579 174.823 112.937C174.882 113.294 174.967 113.602 175.078 113.859V114H173.382C173.3 113.812 173.235 113.563 173.188 113.253C173.142 112.937 173.118 112.644 173.118 112.374ZM173.399 108.234L173.417 109.377H171.773C171.311 109.377 170.897 109.415 170.534 109.491C170.171 109.562 169.866 109.67 169.62 109.816C169.374 109.963 169.187 110.147 169.058 110.37C168.929 110.587 168.864 110.842 168.864 111.135C168.864 111.434 168.932 111.706 169.066 111.952C169.201 112.198 169.403 112.395 169.673 112.541C169.948 112.682 170.285 112.752 170.684 112.752C171.182 112.752 171.621 112.646 172.002 112.436C172.383 112.225 172.685 111.967 172.907 111.662C173.136 111.357 173.259 111.062 173.276 110.774L173.971 111.557C173.93 111.803 173.818 112.075 173.637 112.374C173.455 112.673 173.212 112.96 172.907 113.235C172.608 113.505 172.251 113.73 171.835 113.912C171.425 114.088 170.962 114.176 170.446 114.176C169.802 114.176 169.236 114.05 168.75 113.798C168.27 113.546 167.895 113.209 167.625 112.787C167.361 112.359 167.229 111.882 167.229 111.354C167.229 110.845 167.329 110.396 167.528 110.01C167.728 109.617 168.015 109.292 168.39 109.034C168.765 108.771 169.216 108.571 169.743 108.437C170.271 108.302 170.859 108.234 171.51 108.234H173.399Z" fill="#2A2C1F"/>
<defs>
<clipPath id="clip0_5_57">
<rect width="120" height="28" fill="white" transform="translate(552 77)"/>
</clipPath>
<clipPath id="clip1_5_57">
<rect width="120" height="28" fill="white" transform="translate(704 77)"/>
</clipPath>
<clipPath id="clip2_5_57">
<rect width="120" height="28" fill="white" transform="translate(856 77)"/>
</clipPath>
<clipPath id="clip3_5_57">
<rect width="120" height="25" fill="white" transform="translate(1008 79)"/>
</clipPath>
<clipPath id="clip4_5_57">
<rect width="120" height="24" fill="white" transform="translate(1160 79)"/>
</clipPath>
</defs>
</svg>
