<svg width="131" height="168" viewBox="0 0 131 168" fill="none" xmlns="http://www.w3.org/2000/svg">
<path d="M23.72 149.584C23.688 150.304 23.672 150.976 23.672 151.6C23.672 152.224 23.688 152.896 23.72 153.616C23.768 154.944 24.168 156.024 24.92 156.856C25.688 157.672 26.784 158.08 28.208 158.08C28.976 158.08 29.624 157.984 30.152 157.792C30.68 157.6 31.112 157.352 31.448 157.048C31.8 156.744 32.064 156.4 32.24 156.016C32.432 155.616 32.576 155.216 32.672 154.816C32.704 154.64 32.784 154.512 32.912 154.432C33.04 154.336 33.168 154.288 33.296 154.288H34.4C34.544 154.288 34.664 154.344 34.76 154.456C34.872 154.552 34.928 154.672 34.928 154.816C34.912 155.344 34.776 155.92 34.52 156.544C34.264 157.168 33.864 157.76 33.32 158.32C32.792 158.864 32.104 159.32 31.256 159.688C30.424 160.056 29.408 160.24 28.208 160.24C27.168 160.24 26.24 160.08 25.424 159.76C24.608 159.424 23.904 158.968 23.312 158.392C22.736 157.816 22.288 157.136 21.968 156.352C21.648 155.552 21.472 154.68 21.44 153.736C21.392 152.312 21.392 150.888 21.44 149.464C21.472 148.536 21.648 147.672 21.968 146.872C22.288 146.072 22.736 145.384 23.312 144.808C23.904 144.232 24.608 143.784 25.424 143.464C26.24 143.128 27.168 142.96 28.208 142.96C29.408 142.96 30.424 143.144 31.256 143.512C32.104 143.88 32.792 144.344 33.32 144.904C33.864 145.448 34.264 146.032 34.52 146.656C34.776 147.28 34.912 147.856 34.928 148.384C34.928 148.528 34.872 148.656 34.76 148.768C34.664 148.864 34.544 148.912 34.4 148.912H33.296C33.168 148.912 33.04 148.872 32.912 148.792C32.784 148.696 32.704 148.56 32.672 148.384C32.576 147.984 32.432 147.592 32.24 147.208C32.064 146.808 31.8 146.456 31.448 146.152C31.112 145.848 30.68 145.6 30.152 145.408C29.624 145.216 28.976 145.12 28.208 145.12C26.784 145.12 25.688 145.536 24.92 146.368C24.168 147.184 23.768 148.256 23.72 149.584ZM42.9198 147.28C43.7838 147.28 44.5518 147.416 45.2238 147.688C45.8958 147.944 46.4718 148.304 46.9518 148.768C47.4318 149.232 47.8078 149.8 48.0798 150.472C48.3678 151.128 48.5438 151.848 48.6078 152.632C48.6238 152.776 48.6318 152.952 48.6318 153.16C48.6318 153.352 48.6318 153.56 48.6318 153.784C48.6318 153.992 48.6318 154.2 48.6318 154.408C48.6318 154.6 48.6238 154.76 48.6078 154.888C48.5278 155.688 48.3518 156.416 48.0798 157.072C47.8078 157.728 47.4318 158.288 46.9518 158.752C46.4718 159.216 45.8958 159.584 45.2238 159.856C44.5518 160.112 43.7838 160.24 42.9198 160.24C42.0558 160.24 41.2878 160.112 40.6158 159.856C39.9438 159.584 39.3678 159.216 38.8878 158.752C38.4078 158.288 38.0238 157.728 37.7358 157.072C37.4638 156.416 37.2958 155.688 37.2318 154.888C37.2158 154.76 37.1998 154.6 37.1838 154.408C37.1838 154.2 37.1838 153.992 37.1838 153.784C37.1838 153.56 37.1838 153.352 37.1838 153.16C37.1998 152.952 37.2158 152.776 37.2318 152.632C37.2958 151.848 37.4638 151.128 37.7358 150.472C38.0238 149.8 38.4078 149.232 38.8878 148.768C39.3678 148.304 39.9438 147.944 40.6158 147.688C41.2878 147.416 42.0558 147.28 42.9198 147.28ZM46.4238 154.768C46.4558 154.496 46.4718 154.168 46.4718 153.784C46.4718 153.384 46.4558 153.04 46.4238 152.752C46.3758 152.272 46.2718 151.824 46.1118 151.408C45.9518 150.992 45.7278 150.632 45.4398 150.328C45.1518 150.024 44.7998 149.784 44.3838 149.608C43.9678 149.432 43.4798 149.344 42.9198 149.344C42.3598 149.344 41.8718 149.432 41.4558 149.608C41.0398 149.784 40.6878 150.024 40.3998 150.328C40.1118 150.632 39.8878 150.992 39.7278 151.408C39.5678 151.824 39.4638 152.272 39.4158 152.752C39.3838 153.04 39.3678 153.384 39.3678 153.784C39.3678 154.168 39.3838 154.496 39.4158 154.768C39.4638 155.248 39.5678 155.696 39.7278 156.112C39.8878 156.528 40.1118 156.888 40.3998 157.192C40.6878 157.496 41.0398 157.736 41.4558 157.912C41.8718 158.088 42.3598 158.176 42.9198 158.176C43.4798 158.176 43.9678 158.088 44.3838 157.912C44.7998 157.736 45.1518 157.496 45.4398 157.192C45.7278 156.888 45.9518 156.528 46.1118 156.112C46.2718 155.696 46.3758 155.248 46.4238 154.768ZM51.5394 148.168C51.5394 147.992 51.6034 147.84 51.7314 147.712C51.8594 147.584 52.0114 147.52 52.1874 147.52H53.0754C53.2514 147.52 53.4034 147.584 53.5314 147.712C53.6594 147.84 53.7234 147.992 53.7234 148.168V154.504C53.7234 155.736 53.9954 156.656 54.5394 157.264C55.0994 157.872 55.9074 158.176 56.9634 158.176C57.9714 158.176 58.7634 157.872 59.3394 157.264C59.9154 156.656 60.2034 155.736 60.2034 154.504V148.168C60.2034 147.992 60.2674 147.84 60.3954 147.712C60.5234 147.584 60.6754 147.52 60.8514 147.52H61.7394C61.9154 147.52 62.0674 147.584 62.1954 147.712C62.3234 147.84 62.3874 147.992 62.3874 148.168V159.352C62.3874 159.528 62.3234 159.68 62.1954 159.808C62.0674 159.936 61.9154 160 61.7394 160H60.8514C60.6754 160 60.5234 159.936 60.3954 159.808C60.2674 159.68 60.2034 159.528 60.2034 159.352V158.608C59.8994 159.008 59.4674 159.384 58.9074 159.736C58.3474 160.072 57.5794 160.24 56.6034 160.24C55.8514 160.24 55.1634 160.12 54.5394 159.88C53.9154 159.624 53.3794 159.272 52.9314 158.824C52.4834 158.36 52.1394 157.8 51.8994 157.144C51.6594 156.472 51.5394 155.712 51.5394 154.864V148.168ZM72.3157 147.52C72.4917 147.52 72.6437 147.584 72.7717 147.712C72.8997 147.84 72.9637 147.992 72.9637 148.168V148.936C72.9637 149.112 72.8997 149.264 72.7717 149.392C72.6437 149.52 72.4917 149.584 72.3157 149.584H70.9237C69.0837 149.584 68.1637 150.504 68.1637 152.344V159.352C68.1637 159.528 68.0997 159.68 67.9717 159.808C67.8437 159.936 67.6917 160 67.5157 160H66.6277C66.4517 160 66.2997 159.936 66.1717 159.808C66.0437 159.68 65.9797 159.528 65.9797 159.352V148.168C65.9797 147.992 66.0437 147.84 66.1717 147.712C66.2997 147.584 66.4517 147.52 66.6277 147.52H67.5157C67.6917 147.52 67.8437 147.584 67.9717 147.712C68.0997 147.84 68.1637 147.992 68.1637 148.168V148.912C68.4837 148.432 68.8677 148.08 69.3157 147.856C69.7637 147.632 70.3477 147.52 71.0677 147.52H72.3157ZM82.154 156.544C82.154 156.24 82.066 155.992 81.89 155.8C81.73 155.592 81.482 155.416 81.146 155.272C80.81 155.128 80.378 154.992 79.85 154.864C79.338 154.736 78.738 154.6 78.05 154.456C76.754 154.184 75.842 153.736 75.314 153.112C74.802 152.472 74.546 151.728 74.546 150.88C74.546 150.4 74.642 149.944 74.834 149.512C75.026 149.08 75.314 148.696 75.698 148.36C76.082 148.024 76.562 147.76 77.138 147.568C77.73 147.376 78.418 147.28 79.202 147.28C79.986 147.28 80.666 147.368 81.242 147.544C81.834 147.72 82.33 147.944 82.73 148.216C83.13 148.488 83.434 148.784 83.642 149.104C83.85 149.408 83.962 149.704 83.978 149.992C83.994 150.168 83.93 150.32 83.786 150.448C83.658 150.576 83.506 150.64 83.33 150.64H82.538C82.442 150.64 82.322 150.624 82.178 150.592C82.05 150.544 81.93 150.448 81.818 150.304C81.61 150.032 81.298 149.808 80.882 149.632C80.482 149.44 79.922 149.344 79.202 149.344C78.466 149.344 77.866 149.48 77.402 149.752C76.954 150.024 76.73 150.4 76.73 150.88C76.73 151.184 76.794 151.432 76.922 151.624C77.05 151.8 77.258 151.96 77.546 152.104C77.834 152.232 78.21 152.352 78.674 152.464C79.154 152.576 79.746 152.712 80.45 152.872C81.186 153.032 81.802 153.24 82.298 153.496C82.794 153.736 83.194 154.016 83.498 154.336C83.802 154.64 84.018 154.984 84.146 155.368C84.274 155.736 84.338 156.128 84.338 156.544C84.338 157.024 84.218 157.488 83.978 157.936C83.754 158.384 83.426 158.776 82.994 159.112C82.562 159.448 82.034 159.72 81.41 159.928C80.802 160.136 80.106 160.24 79.322 160.24C78.538 160.24 77.842 160.144 77.234 159.952C76.626 159.76 76.106 159.528 75.674 159.256C75.242 158.968 74.906 158.664 74.666 158.344C74.442 158.008 74.322 157.696 74.306 157.408C74.29 157.232 74.346 157.08 74.474 156.952C74.602 156.824 74.762 156.76 74.954 156.76H75.818C75.914 156.76 76.026 156.776 76.154 156.808C76.282 156.824 76.402 156.912 76.514 157.072C76.77 157.424 77.122 157.696 77.57 157.888C78.018 158.08 78.602 158.176 79.322 158.176C79.674 158.176 80.018 158.136 80.354 158.056C80.706 157.976 81.01 157.864 81.266 157.72C81.538 157.576 81.754 157.408 81.914 157.216C82.074 157.008 82.154 156.784 82.154 156.544ZM86.6146 152.56C86.6786 151.824 86.8546 151.136 87.1426 150.496C87.4306 149.856 87.8066 149.296 88.2706 148.816C88.7346 148.336 89.2866 147.96 89.9266 147.688C90.5826 147.416 91.3106 147.28 92.1106 147.28C92.9746 147.28 93.7426 147.424 94.4146 147.712C95.1026 147.984 95.6866 148.384 96.1666 148.912C96.6466 149.44 97.0146 150.08 97.2706 150.832C97.5266 151.584 97.6546 152.424 97.6546 153.352V154C97.6546 154.176 97.5906 154.328 97.4626 154.456C97.3346 154.584 97.1826 154.648 97.0066 154.648H88.7506V154.792C88.7826 155.88 89.1106 156.72 89.7346 157.312C90.3746 157.888 91.1666 158.176 92.1106 158.176C92.9906 158.176 93.6466 158.056 94.0786 157.816C94.5266 157.56 94.8866 157.28 95.1586 156.976C95.2866 156.848 95.3986 156.76 95.4946 156.712C95.5906 156.664 95.7346 156.64 95.9266 156.64H96.6466C96.8226 156.64 96.9826 156.704 97.1266 156.832C97.2706 156.96 97.3266 157.112 97.2946 157.288C97.2466 157.576 97.1106 157.896 96.8866 158.248C96.6626 158.584 96.3346 158.904 95.9026 159.208C95.4866 159.496 94.9586 159.744 94.3186 159.952C93.6946 160.144 92.9586 160.24 92.1106 160.24C91.3106 160.24 90.5906 160.104 89.9506 159.832C89.3106 159.544 88.7506 159.16 88.2706 158.68C87.8066 158.184 87.4306 157.608 87.1426 156.952C86.8546 156.28 86.6786 155.552 86.6146 154.768C86.5346 154.032 86.5346 153.296 86.6146 152.56ZM88.7506 152.632H95.4946V152.56C95.4946 151.584 95.1826 150.808 94.5586 150.232C93.9506 149.64 93.1346 149.344 92.1106 149.344C91.6466 149.344 91.2146 149.424 90.8146 149.584C90.4146 149.728 90.0626 149.944 89.7586 150.232C89.4546 150.504 89.2146 150.84 89.0386 151.24C88.8626 151.64 88.7666 152.08 88.7506 152.56V152.632ZM107.654 156.544C107.654 156.24 107.566 155.992 107.39 155.8C107.23 155.592 106.982 155.416 106.646 155.272C106.31 155.128 105.878 154.992 105.35 154.864C104.838 154.736 104.238 154.6 103.55 154.456C102.254 154.184 101.342 153.736 100.814 153.112C100.302 152.472 100.046 151.728 100.046 150.88C100.046 150.4 100.142 149.944 100.334 149.512C100.526 149.08 100.814 148.696 101.198 148.36C101.582 148.024 102.062 147.76 102.638 147.568C103.23 147.376 103.918 147.28 104.702 147.28C105.486 147.28 106.166 147.368 106.742 147.544C107.334 147.72 107.83 147.944 108.23 148.216C108.63 148.488 108.934 148.784 109.142 149.104C109.35 149.408 109.462 149.704 109.478 149.992C109.494 150.168 109.43 150.32 109.286 150.448C109.158 150.576 109.006 150.64 108.83 150.64H108.038C107.942 150.64 107.822 150.624 107.678 150.592C107.55 150.544 107.43 150.448 107.318 150.304C107.11 150.032 106.798 149.808 106.382 149.632C105.982 149.44 105.422 149.344 104.702 149.344C103.966 149.344 103.366 149.48 102.902 149.752C102.454 150.024 102.23 150.4 102.23 150.88C102.23 151.184 102.294 151.432 102.422 151.624C102.55 151.8 102.758 151.96 103.046 152.104C103.334 152.232 103.71 152.352 104.174 152.464C104.654 152.576 105.246 152.712 105.95 152.872C106.686 153.032 107.302 153.24 107.798 153.496C108.294 153.736 108.694 154.016 108.998 154.336C109.302 154.64 109.518 154.984 109.646 155.368C109.774 155.736 109.838 156.128 109.838 156.544C109.838 157.024 109.718 157.488 109.478 157.936C109.254 158.384 108.926 158.776 108.494 159.112C108.062 159.448 107.534 159.72 106.91 159.928C106.302 160.136 105.606 160.24 104.822 160.24C104.038 160.24 103.342 160.144 102.734 159.952C102.126 159.76 101.606 159.528 101.174 159.256C100.742 158.968 100.406 158.664 100.166 158.344C99.942 158.008 99.822 157.696 99.806 157.408C99.79 157.232 99.846 157.08 99.974 156.952C100.102 156.824 100.262 156.76 100.454 156.76H101.318C101.414 156.76 101.526 156.776 101.654 156.808C101.782 156.824 101.902 156.912 102.014 157.072C102.27 157.424 102.622 157.696 103.07 157.888C103.518 158.08 104.102 158.176 104.822 158.176C105.174 158.176 105.518 158.136 105.854 158.056C106.206 157.976 106.51 157.864 106.766 157.72C107.038 157.576 107.254 157.408 107.414 157.216C107.574 157.008 107.654 156.784 107.654 156.544Z" fill="#1C3554"/>
<path d="M8.864 115C8.65067 115 8.45867 114.925 8.288 114.776C8.13867 114.605 8.064 114.413 8.064 114.2V98.968L3.68 102.328C3.488 102.477 3.28533 102.531 3.072 102.488C2.88 102.445 2.70933 102.328 2.56 102.136L0.672 99.672C0.544 99.48 0.490667 99.2773 0.512 99.064C0.554667 98.8293 0.682667 98.648 0.896 98.52L8.256 92.824C8.384 92.7387 8.50133 92.6853 8.608 92.664C8.736 92.6213 8.87467 92.6 9.024 92.6H13.024C13.2587 92.6 13.4507 92.6747 13.6 92.824C13.7493 92.9733 13.824 93.1653 13.824 93.4V114.2C13.824 114.413 13.7493 114.605 13.6 114.776C13.4507 114.925 13.2587 115 13.024 115H8.864ZM26.7543 115.32C25.2183 115.32 23.8849 115.107 22.7543 114.68C21.6449 114.232 20.7169 113.624 19.9703 112.856C19.2236 112.088 18.6583 111.192 18.2743 110.168C17.8903 109.144 17.6663 108.045 17.6023 106.872C17.5809 106.296 17.5596 105.645 17.5383 104.92C17.5383 104.173 17.5383 103.427 17.5383 102.68C17.5596 101.912 17.5809 101.229 17.6023 100.632C17.6663 99.4587 17.8903 98.3707 18.2743 97.368C18.6796 96.344 19.2556 95.4587 20.0023 94.712C20.7703 93.944 21.7089 93.3467 22.8183 92.92C23.9489 92.4933 25.2609 92.28 26.7543 92.28C28.2689 92.28 29.5809 92.4933 30.6903 92.92C31.8209 93.3467 32.7596 93.944 33.5063 94.712C34.2529 95.4587 34.8289 96.344 35.2343 97.368C35.6396 98.3707 35.8743 99.4587 35.9383 100.632C35.9596 101.229 35.9703 101.912 35.9703 102.68C35.9916 103.427 35.9916 104.173 35.9703 104.92C35.9703 105.645 35.9596 106.296 35.9383 106.872C35.8743 108.045 35.6396 109.144 35.2343 110.168C34.8503 111.192 34.2849 112.088 33.5382 112.856C32.8129 113.624 31.8849 114.232 30.7543 114.68C29.6449 115.107 28.3116 115.32 26.7543 115.32ZM26.7543 110.68C27.8636 110.68 28.6636 110.328 29.1543 109.624C29.6663 108.899 29.9329 107.928 29.9543 106.712C29.9969 106.093 30.0183 105.443 30.0183 104.76C30.0396 104.077 30.0396 103.395 30.0183 102.712C30.0183 102.029 29.9969 101.4 29.9543 100.824C29.9329 99.6507 29.6663 98.7013 29.1543 97.976C28.6636 97.2507 27.8636 96.8773 26.7543 96.856C25.6663 96.8773 24.8663 97.2507 24.3542 97.976C23.8636 98.7013 23.5969 99.6507 23.5543 100.824C23.5543 101.4 23.5436 102.029 23.5223 102.712C23.5223 103.395 23.5223 104.077 23.5223 104.76C23.5436 105.443 23.5543 106.093 23.5543 106.712C23.5969 107.928 23.8743 108.899 24.3863 109.624C24.8983 110.328 25.6876 110.68 26.7543 110.68ZM39.9655 115C39.7308 115 39.5388 114.925 39.3895 114.776C39.2402 114.605 39.1655 114.413 39.1655 114.2V110.136C39.1655 109.901 39.2402 109.709 39.3895 109.56C39.5388 109.411 39.7308 109.336 39.9655 109.336H44.0295C44.2428 109.336 44.4242 109.411 44.5735 109.56C44.7442 109.709 44.8295 109.901 44.8295 110.136V114.2C44.8295 114.413 44.7442 114.605 44.5735 114.776C44.4242 114.925 44.2428 115 44.0295 115H39.9655ZM57.1605 115.32C55.6245 115.32 54.2912 115.107 53.1605 114.68C52.0512 114.232 51.1232 113.624 50.3765 112.856C49.6298 112.088 49.0645 111.192 48.6805 110.168C48.2965 109.144 48.0725 108.045 48.0085 106.872C47.9872 106.296 47.9658 105.645 47.9445 104.92C47.9445 104.173 47.9445 103.427 47.9445 102.68C47.9658 101.912 47.9872 101.229 48.0085 100.632C48.0725 99.4587 48.2965 98.3707 48.6805 97.368C49.0858 96.344 49.6618 95.4587 50.4085 94.712C51.1765 93.944 52.1152 93.3467 53.2245 92.92C54.3552 92.4933 55.6672 92.28 57.1605 92.28C58.6752 92.28 59.9872 92.4933 61.0965 92.92C62.2272 93.3467 63.1658 93.944 63.9125 94.712C64.6592 95.4587 65.2352 96.344 65.6405 97.368C66.0458 98.3707 66.2805 99.4587 66.3445 100.632C66.3658 101.229 66.3765 101.912 66.3765 102.68C66.3978 103.427 66.3978 104.173 66.3765 104.92C66.3765 105.645 66.3658 106.296 66.3445 106.872C66.2805 108.045 66.0458 109.144 65.6405 110.168C65.2565 111.192 64.6912 112.088 63.9445 112.856C63.2192 113.624 62.2912 114.232 61.1605 114.68C60.0512 115.107 58.7178 115.32 57.1605 115.32ZM57.1605 110.68C58.2698 110.68 59.0698 110.328 59.5605 109.624C60.0725 108.899 60.3392 107.928 60.3605 106.712C60.4032 106.093 60.4245 105.443 60.4245 104.76C60.4458 104.077 60.4458 103.395 60.4245 102.712C60.4245 102.029 60.4032 101.4 60.3605 100.824C60.3392 99.6507 60.0725 98.7013 59.5605 97.976C59.0698 97.2507 58.2698 96.8773 57.1605 96.856C56.0725 96.8773 55.2725 97.2507 54.7605 97.976C54.2698 98.7013 54.0032 99.6507 53.9605 100.824C53.9605 101.4 53.9498 102.029 53.9285 102.712C53.9285 103.395 53.9285 104.077 53.9285 104.76C53.9498 105.443 53.9605 106.093 53.9605 106.712C54.0032 107.928 54.2805 108.899 54.7925 109.624C55.3045 110.328 56.0938 110.68 57.1605 110.68ZM78.9105 115.32C77.3745 115.32 76.0412 115.107 74.9105 114.68C73.8012 114.232 72.8732 113.624 72.1265 112.856C71.3798 112.088 70.8145 111.192 70.4305 110.168C70.0465 109.144 69.8225 108.045 69.7585 106.872C69.7372 106.296 69.7158 105.645 69.6945 104.92C69.6945 104.173 69.6945 103.427 69.6945 102.68C69.7158 101.912 69.7372 101.229 69.7585 100.632C69.8225 99.4587 70.0465 98.3707 70.4305 97.368C70.8358 96.344 71.4118 95.4587 72.1585 94.712C72.9265 93.944 73.8652 93.3467 74.9745 92.92C76.1052 92.4933 77.4172 92.28 78.9105 92.28C80.4252 92.28 81.7372 92.4933 82.8465 92.92C83.9772 93.3467 84.9158 93.944 85.6625 94.712C86.4092 95.4587 86.9852 96.344 87.3905 97.368C87.7958 98.3707 88.0305 99.4587 88.0945 100.632C88.1158 101.229 88.1265 101.912 88.1265 102.68C88.1478 103.427 88.1478 104.173 88.1265 104.92C88.1265 105.645 88.1158 106.296 88.0945 106.872C88.0305 108.045 87.7958 109.144 87.3905 110.168C87.0065 111.192 86.4412 112.088 85.6945 112.856C84.9692 113.624 84.0412 114.232 82.9105 114.68C81.8012 115.107 80.4678 115.32 78.9105 115.32ZM78.9105 110.68C80.0198 110.68 80.8198 110.328 81.3105 109.624C81.8225 108.899 82.0892 107.928 82.1105 106.712C82.1532 106.093 82.1745 105.443 82.1745 104.76C82.1958 104.077 82.1958 103.395 82.1745 102.712C82.1745 102.029 82.1532 101.4 82.1105 100.824C82.0892 99.6507 81.8225 98.7013 81.3105 97.976C80.8198 97.2507 80.0198 96.8773 78.9105 96.856C77.8225 96.8773 77.0225 97.2507 76.5105 97.976C76.0198 98.7013 75.7532 99.6507 75.7105 100.824C75.7105 101.4 75.6998 102.029 75.6785 102.712C75.6785 103.395 75.6785 104.077 75.6785 104.76C75.6998 105.443 75.7105 106.093 75.7105 106.712C75.7532 107.928 76.0305 108.899 76.5425 109.624C77.0545 110.328 77.8438 110.68 78.9105 110.68ZM100.661 115.32C99.1245 115.32 97.7912 115.107 96.6605 114.68C95.5512 114.232 94.6232 113.624 93.8765 112.856C93.1298 112.088 92.5645 111.192 92.1805 110.168C91.7965 109.144 91.5725 108.045 91.5085 106.872C91.4872 106.296 91.4658 105.645 91.4445 104.92C91.4445 104.173 91.4445 103.427 91.4445 102.68C91.4658 101.912 91.4872 101.229 91.5085 100.632C91.5725 99.4587 91.7965 98.3707 92.1805 97.368C92.5858 96.344 93.1618 95.4587 93.9085 94.712C94.6765 93.944 95.6152 93.3467 96.7245 92.92C97.8552 92.4933 99.1672 92.28 100.661 92.28C102.175 92.28 103.487 92.4933 104.597 92.92C105.727 93.3467 106.666 93.944 107.413 94.712C108.159 95.4587 108.735 96.344 109.141 97.368C109.546 98.3707 109.781 99.4587 109.845 100.632C109.866 101.229 109.877 101.912 109.877 102.68C109.898 103.427 109.898 104.173 109.877 104.92C109.877 105.645 109.866 106.296 109.845 106.872C109.781 108.045 109.546 109.144 109.141 110.168C108.757 111.192 108.191 112.088 107.444 112.856C106.719 113.624 105.791 114.232 104.661 114.68C103.551 115.107 102.218 115.32 100.661 115.32ZM100.661 110.68C101.77 110.68 102.57 110.328 103.061 109.624C103.573 108.899 103.839 107.928 103.861 106.712C103.903 106.093 103.925 105.443 103.925 104.76C103.946 104.077 103.946 103.395 103.925 102.712C103.925 102.029 103.903 101.4 103.861 100.824C103.839 99.6507 103.573 98.7013 103.061 97.976C102.57 97.2507 101.77 96.8773 100.661 96.856C99.5725 96.8773 98.7725 97.2507 98.2605 97.976C97.7698 98.7013 97.5032 99.6507 97.4605 100.824C97.4605 101.4 97.4498 102.029 97.4285 102.712C97.4285 103.395 97.4285 104.077 97.4285 104.76C97.4498 105.443 97.4605 106.093 97.4605 106.712C97.5032 107.928 97.7805 108.899 98.2925 109.624C98.8045 110.328 99.5938 110.68 100.661 110.68ZM119.979 113.944C119.744 113.944 119.552 113.869 119.403 113.72C119.253 113.549 119.179 113.357 119.179 113.144V107.288H113.483C113.248 107.288 113.045 107.213 112.875 107.064C112.725 106.915 112.651 106.723 112.651 106.488V104.152C112.651 103.917 112.725 103.725 112.875 103.576C113.045 103.405 113.248 103.32 113.483 103.32H119.179V97.656C119.179 97.4213 119.253 97.2293 119.403 97.08C119.552 96.9307 119.744 96.856 119.979 96.856H122.603C122.816 96.856 122.997 96.9307 123.147 97.08C123.317 97.2293 123.403 97.4213 123.403 97.656V103.32H129.067C129.301 103.32 129.493 103.405 129.642 103.576C129.792 103.725 129.867 103.917 129.867 104.152V106.488C129.867 106.723 129.792 106.915 129.642 107.064C129.493 107.213 129.301 107.288 129.067 107.288H123.403V113.144C123.403 113.357 123.317 113.549 123.147 113.72C122.997 113.869 122.816 113.944 122.603 113.944H119.979Z" fill="#1C3554"/>
<path fill-rule="evenodd" clip-rule="evenodd" d="M43.6666 16H38.3333V53.3333C38.3333 56.2667 40.7333 58.6667 43.6666 58.6667H80.9999V53.3333H43.6666V16ZM86.3333 5.33333H54.3333C51.3999 5.33333 48.9999 7.73333 48.9999 10.6667V42.6667C48.9999 45.6 51.3999 48 54.3333 48H86.3333C89.2666 48 91.6666 45.6 91.6666 42.6667V10.6667C91.6666 7.73333 89.2666 5.33333 86.3333 5.33333ZM86.3333 42.6667H54.3333V10.6667H86.3333V42.6667ZM64.9999 14.6667V38.6667L80.9999 26.6667L64.9999 14.6667Z" fill="#F72585"/>
</svg>
