<svg width="180" height="168" viewBox="0 0 180 168" fill="none" xmlns="http://www.w3.org/2000/svg">
<path d="M12.312 156.208H3.984L2.736 159.4C2.688 159.528 2.6 159.664 2.472 159.808C2.344 159.936 2.12 160 1.8 160H0.912C0.768 160 0.64 159.952 0.528 159.856C0.432 159.744 0.384 159.616 0.384 159.472C0.384 159.392 0.416 159.28 0.48 159.136L6.36 143.992C6.44 143.816 6.56 143.64 6.72 143.464C6.88 143.288 7.12 143.2 7.44 143.2H8.88C9.2 143.2 9.44 143.288 9.6 143.464C9.76 143.64 9.88 143.816 9.96 143.992L15.816 159.136C15.88 159.28 15.912 159.392 15.912 159.472C15.912 159.616 15.856 159.744 15.744 159.856C15.648 159.952 15.528 160 15.384 160H14.496C14.176 160 13.952 159.936 13.824 159.808C13.696 159.664 13.608 159.528 13.56 159.4L12.312 156.208ZM4.824 154.048H11.472L8.16 145.48L4.824 154.048ZM19.5799 154.6C19.6439 155.24 19.7799 155.784 19.9879 156.232C20.2119 156.68 20.4759 157.048 20.7799 157.336C21.0999 157.624 21.4519 157.84 21.8359 157.984C22.2199 158.112 22.6119 158.176 23.0119 158.176C23.7799 158.176 24.4359 158.032 24.9799 157.744C25.5239 157.456 25.9479 156.976 26.2519 156.304C26.3639 156.048 26.4759 155.88 26.5879 155.8C26.7159 155.704 26.8679 155.656 27.0439 155.656H27.7639C27.9399 155.656 28.0919 155.72 28.2199 155.848C28.3639 155.976 28.4279 156.128 28.4119 156.304C28.3959 156.688 28.2679 157.112 28.0279 157.576C27.8039 158.024 27.4599 158.448 26.9959 158.848C26.5479 159.232 25.9879 159.56 25.3159 159.832C24.6599 160.104 23.8919 160.24 23.0119 160.24C22.1319 160.24 21.3479 160.096 20.6599 159.808C19.9879 159.52 19.4119 159.128 18.9319 158.632C18.4679 158.136 18.0999 157.552 17.8279 156.88C17.5719 156.208 17.4279 155.488 17.3959 154.72C17.3799 154.464 17.3639 154.152 17.3479 153.784C17.3479 153.4 17.3639 153.072 17.3959 152.8C17.4599 152.032 17.6199 151.312 17.8759 150.64C18.1479 149.968 18.5159 149.384 18.9799 148.888C19.4439 148.392 20.0119 148 20.6839 147.712C21.3559 147.424 22.1319 147.28 23.0119 147.28C23.8919 147.28 24.6599 147.416 25.3159 147.688C25.9879 147.96 26.5479 148.296 26.9959 148.696C27.4599 149.08 27.8039 149.504 28.0279 149.968C28.2679 150.416 28.3959 150.832 28.4119 151.216C28.4279 151.392 28.3639 151.544 28.2199 151.672C28.0919 151.8 27.9399 151.864 27.7639 151.864H27.0439C26.8679 151.864 26.7159 151.824 26.5879 151.744C26.4759 151.648 26.3639 151.472 26.2519 151.216C25.9479 150.544 25.5239 150.064 24.9799 149.776C24.4359 149.488 23.7799 149.344 23.0119 149.344C22.6119 149.344 22.2119 149.416 21.8119 149.56C21.4279 149.688 21.0759 149.896 20.7559 150.184C20.4519 150.472 20.1879 150.84 19.9639 151.288C19.7559 151.736 19.6279 152.28 19.5799 152.92C19.5319 153.512 19.5319 154.072 19.5799 154.6ZM34.5484 155.8C34.5484 156.104 34.5724 156.392 34.6204 156.664C34.6844 156.92 34.7884 157.144 34.9324 157.336C35.0764 157.528 35.2764 157.68 35.5324 157.792C35.8044 157.888 36.1484 157.936 36.5644 157.936H37.8364C38.0124 157.936 38.1644 158 38.2924 158.128C38.4204 158.256 38.4844 158.408 38.4844 158.584V159.352C38.4844 159.528 38.4204 159.68 38.2924 159.808C38.1644 159.936 38.0124 160 37.8364 160H36.3244C34.9324 160 33.9244 159.64 33.3004 158.92C32.6764 158.2 32.3644 157.16 32.3644 155.8V149.584H30.5884C30.4124 149.584 30.2604 149.52 30.1324 149.392C30.0044 149.264 29.9404 149.112 29.9404 148.936V148.168C29.9404 147.992 30.0044 147.84 30.1324 147.712C30.2604 147.584 30.4124 147.52 30.5884 147.52H32.3644V143.608C32.3644 143.432 32.4284 143.28 32.5564 143.152C32.6844 143.024 32.8364 142.96 33.0124 142.96H33.9004C34.0764 142.96 34.2284 143.024 34.3564 143.152C34.4844 143.28 34.5484 143.432 34.5484 143.608V147.52H37.5964C37.7724 147.52 37.9244 147.584 38.0524 147.712C38.1804 147.84 38.2444 147.992 38.2444 148.168V148.936C38.2444 149.112 38.1804 149.264 38.0524 149.392C37.9244 149.52 37.7724 149.584 37.5964 149.584H34.5484V155.8ZM43.0778 159.352C43.0778 159.528 43.0138 159.68 42.8858 159.808C42.7578 159.936 42.6058 160 42.4298 160H41.5418C41.3658 160 41.2138 159.936 41.0858 159.808C40.9578 159.68 40.8938 159.528 40.8938 159.352V148.168C40.8938 147.992 40.9578 147.84 41.0858 147.712C41.2138 147.584 41.3658 147.52 41.5418 147.52H42.4298C42.6058 147.52 42.7578 147.584 42.8858 147.712C43.0138 147.84 43.0778 147.992 43.0778 148.168V159.352ZM43.3178 144.976C43.3178 145.152 43.2538 145.304 43.1258 145.432C42.9978 145.56 42.8458 145.624 42.6698 145.624H41.3018C41.1258 145.624 40.9738 145.56 40.8458 145.432C40.7178 145.304 40.6538 145.152 40.6538 144.976V143.608C40.6538 143.432 40.7178 143.28 40.8458 143.152C40.9738 143.024 41.1258 142.96 41.3018 142.96H42.6698C42.8458 142.96 42.9978 143.024 43.1258 143.152C43.2538 143.28 43.3178 143.432 43.3178 143.608V144.976ZM51.1708 160C50.9628 160 50.8028 159.936 50.6908 159.808C50.5788 159.68 50.4908 159.544 50.4268 159.4L45.6508 148.264C45.6348 148.216 45.6268 148.16 45.6268 148.096C45.6268 147.936 45.6828 147.8 45.7948 147.688C45.9068 147.576 46.0428 147.52 46.2028 147.52H47.0908C47.3308 147.52 47.5068 147.584 47.6188 147.712C47.7468 147.84 47.8348 147.968 47.8828 148.096L51.6028 156.808L55.3228 148.096C55.3708 147.968 55.4508 147.84 55.5628 147.712C55.6748 147.584 55.8268 147.52 56.0188 147.52H57.0028C57.1628 147.52 57.2988 147.576 57.4108 147.688C57.5228 147.8 57.5788 147.936 57.5788 148.096C57.5788 148.16 57.5708 148.216 57.5548 148.264L52.7788 159.4C52.7148 159.544 52.6268 159.68 52.5148 159.808C52.4188 159.936 52.2668 160 52.0588 160H51.1708ZM59.0678 152.56C59.1318 151.824 59.3078 151.136 59.5958 150.496C59.8838 149.856 60.2598 149.296 60.7238 148.816C61.1878 148.336 61.7398 147.96 62.3798 147.688C63.0358 147.416 63.7638 147.28 64.5638 147.28C65.4278 147.28 66.1958 147.424 66.8678 147.712C67.5558 147.984 68.1398 148.384 68.6198 148.912C69.0998 149.44 69.4678 150.08 69.7238 150.832C69.9798 151.584 70.1078 152.424 70.1078 153.352V154C70.1078 154.176 70.0438 154.328 69.9158 154.456C69.7878 154.584 69.6358 154.648 69.4598 154.648H61.2038V154.792C61.2358 155.88 61.5638 156.72 62.1878 157.312C62.8278 157.888 63.6198 158.176 64.5638 158.176C65.4438 158.176 66.0998 158.056 66.5318 157.816C66.9798 157.56 67.3398 157.28 67.6118 156.976C67.7398 156.848 67.8518 156.76 67.9478 156.712C68.0438 156.664 68.1878 156.64 68.3798 156.64H69.0998C69.2758 156.64 69.4358 156.704 69.5798 156.832C69.7238 156.96 69.7798 157.112 69.7478 157.288C69.6998 157.576 69.5638 157.896 69.3398 158.248C69.1158 158.584 68.7878 158.904 68.3558 159.208C67.9398 159.496 67.4118 159.744 66.7718 159.952C66.1478 160.144 65.4118 160.24 64.5638 160.24C63.7638 160.24 63.0438 160.104 62.4038 159.832C61.7638 159.544 61.2038 159.16 60.7238 158.68C60.2598 158.184 59.8838 157.608 59.5958 156.952C59.3078 156.28 59.1318 155.552 59.0678 154.768C58.9878 154.032 58.9878 153.296 59.0678 152.56ZM61.2038 152.632H67.9478V152.56C67.9478 151.584 67.6358 150.808 67.0118 150.232C66.4038 149.64 65.5878 149.344 64.5638 149.344C64.0998 149.344 63.6678 149.424 63.2678 149.584C62.8678 149.728 62.5158 149.944 62.2118 150.232C61.9078 150.504 61.6678 150.84 61.4918 151.24C61.3158 151.64 61.2198 152.08 61.2038 152.56V152.632ZM84.2865 142.96C85.2625 142.96 86.1185 143.112 86.8545 143.416C87.6065 143.72 88.2385 144.096 88.7505 144.544C89.2785 144.976 89.6785 145.448 89.9505 145.96C90.2225 146.456 90.3665 146.904 90.3825 147.304C90.3985 147.448 90.3505 147.576 90.2385 147.688C90.1265 147.784 89.9985 147.832 89.8545 147.832H88.8705C88.6945 147.832 88.5505 147.8 88.4385 147.736C88.3425 147.672 88.2385 147.528 88.1265 147.304C88.0465 147.144 87.9105 146.944 87.7185 146.704C87.5425 146.448 87.2945 146.208 86.9745 145.984C86.6705 145.744 86.2945 145.544 85.8465 145.384C85.3985 145.208 84.8785 145.12 84.2865 145.12C83.8385 145.12 83.4065 145.176 82.9905 145.288C82.5905 145.384 82.2305 145.536 81.9105 145.744C81.5905 145.952 81.3345 146.216 81.1425 146.536C80.9505 146.84 80.8545 147.2 80.8545 147.616C80.8545 148.032 80.9425 148.384 81.1185 148.672C81.3105 148.96 81.6065 149.224 82.0065 149.464C82.4225 149.688 82.9425 149.896 83.5665 150.088C84.1905 150.28 84.9505 150.496 85.8465 150.736C86.7585 150.976 87.5265 151.24 88.1505 151.528C88.7905 151.816 89.3105 152.144 89.7105 152.512C90.1105 152.864 90.3985 153.28 90.5745 153.76C90.7665 154.224 90.8625 154.752 90.8625 155.344C90.8625 156.064 90.7025 156.728 90.3825 157.336C90.0785 157.928 89.6465 158.44 89.0865 158.872C88.5265 159.304 87.8465 159.64 87.0465 159.88C86.2625 160.12 85.3825 160.24 84.4065 160.24C83.4785 160.24 82.6225 160.104 81.8385 159.832C81.0545 159.56 80.3825 159.208 79.8225 158.776C79.2625 158.344 78.8145 157.864 78.4785 157.336C78.1585 156.808 77.9905 156.288 77.9745 155.776C77.9745 155.632 78.0225 155.512 78.1185 155.416C78.2305 155.304 78.3585 155.248 78.5025 155.248H79.4865C79.6465 155.248 79.7825 155.28 79.8945 155.344C80.0225 155.408 80.1345 155.552 80.2305 155.776C80.3265 156 80.4705 156.248 80.6625 156.52C80.8705 156.776 81.1425 157.024 81.4785 157.264C81.8145 157.488 82.2225 157.68 82.7025 157.84C83.1825 158 83.7505 158.08 84.4065 158.08C84.9665 158.08 85.4945 158.016 85.9905 157.888C86.5025 157.76 86.9505 157.576 87.3345 157.336C87.7185 157.096 88.0225 156.808 88.2465 156.472C88.4705 156.136 88.5825 155.76 88.5825 155.344C88.5825 154.928 88.4545 154.576 88.1985 154.288C87.9425 153.984 87.5745 153.712 87.0945 153.472C86.6145 153.232 86.0225 153.016 85.3185 152.824C84.6305 152.616 83.8465 152.4 82.9665 152.176C82.1665 151.968 81.4865 151.72 80.9265 151.432C80.3665 151.128 79.9105 150.784 79.5585 150.4C79.2065 150.016 78.9505 149.592 78.7905 149.128C78.6465 148.664 78.5745 148.16 78.5745 147.616C78.5745 147.024 78.6945 146.448 78.9345 145.888C79.1745 145.328 79.5265 144.832 79.9905 144.4C80.4705 143.968 81.0625 143.624 81.7665 143.368C82.4865 143.096 83.3265 142.96 84.2865 142.96ZM96.9624 155.8C96.9624 156.104 96.9864 156.392 97.0344 156.664C97.0984 156.92 97.2024 157.144 97.3464 157.336C97.4904 157.528 97.6904 157.68 97.9464 157.792C98.2184 157.888 98.5624 157.936 98.9784 157.936H100.25C100.426 157.936 100.578 158 100.706 158.128C100.834 158.256 100.898 158.408 100.898 158.584V159.352C100.898 159.528 100.834 159.68 100.706 159.808C100.578 159.936 100.426 160 100.25 160H98.7384C97.3464 160 96.3384 159.64 95.7144 158.92C95.0904 158.2 94.7784 157.16 94.7784 155.8V149.584H93.0024C92.8264 149.584 92.6744 149.52 92.5464 149.392C92.4184 149.264 92.3544 149.112 92.3544 148.936V148.168C92.3544 147.992 92.4184 147.84 92.5464 147.712C92.6744 147.584 92.8264 147.52 93.0024 147.52H94.7784V143.608C94.7784 143.432 94.8424 143.28 94.9704 143.152C95.0984 143.024 95.2504 142.96 95.4264 142.96H96.3144C96.4904 142.96 96.6424 143.024 96.7704 143.152C96.8984 143.28 96.9624 143.432 96.9624 143.608V147.52H100.01C100.186 147.52 100.338 147.584 100.466 147.712C100.594 147.84 100.658 147.992 100.658 148.168V148.936C100.658 149.112 100.594 149.264 100.466 149.392C100.338 149.52 100.186 149.584 100.01 149.584H96.9624V155.8ZM103.188 148.168C103.188 147.992 103.252 147.84 103.38 147.712C103.508 147.584 103.66 147.52 103.836 147.52H104.724C104.9 147.52 105.052 147.584 105.18 147.712C105.308 147.84 105.372 147.992 105.372 148.168V154.504C105.372 155.736 105.644 156.656 106.188 157.264C106.748 157.872 107.556 158.176 108.612 158.176C109.62 158.176 110.412 157.872 110.988 157.264C111.564 156.656 111.852 155.736 111.852 154.504V148.168C111.852 147.992 111.916 147.84 112.044 147.712C112.172 147.584 112.324 147.52 112.5 147.52H113.388C113.564 147.52 113.716 147.584 113.844 147.712C113.972 147.84 114.036 147.992 114.036 148.168V159.352C114.036 159.528 113.972 159.68 113.844 159.808C113.716 159.936 113.564 160 113.388 160H112.5C112.324 160 112.172 159.936 112.044 159.808C111.916 159.68 111.852 159.528 111.852 159.352V158.608C111.548 159.008 111.116 159.384 110.556 159.736C109.996 160.072 109.228 160.24 108.252 160.24C107.5 160.24 106.812 160.12 106.188 159.88C105.564 159.624 105.028 159.272 104.58 158.824C104.132 158.36 103.788 157.8 103.548 157.144C103.308 156.472 103.188 155.712 103.188 154.864V148.168ZM122.476 147.28C123.468 147.28 124.26 147.456 124.852 147.808C125.444 148.144 125.892 148.512 126.196 148.912V143.608C126.196 143.432 126.26 143.28 126.388 143.152C126.516 143.024 126.668 142.96 126.844 142.96H127.732C127.908 142.96 128.06 143.024 128.188 143.152C128.316 143.28 128.38 143.432 128.38 143.608V159.352C128.38 159.528 128.316 159.68 128.188 159.808C128.06 159.936 127.908 160 127.732 160H126.844C126.668 160 126.516 159.936 126.388 159.808C126.26 159.68 126.196 159.528 126.196 159.352V158.608C125.876 159.04 125.42 159.424 124.828 159.76C124.236 160.08 123.452 160.24 122.476 160.24C121.724 160.24 121.02 160.112 120.364 159.856C119.724 159.584 119.164 159.2 118.684 158.704C118.204 158.208 117.82 157.608 117.532 156.904C117.244 156.2 117.076 155.408 117.028 154.528C117.012 154.288 117.004 154.032 117.004 153.76C117.004 153.472 117.012 153.208 117.028 152.968C117.076 152.088 117.244 151.296 117.532 150.592C117.82 149.888 118.204 149.296 118.684 148.816C119.164 148.32 119.724 147.944 120.364 147.688C121.02 147.416 121.724 147.28 122.476 147.28ZM126.196 154.792C126.212 154.552 126.22 154.24 126.22 153.856C126.22 153.456 126.212 153.136 126.196 152.896C126.148 151.76 125.804 150.888 125.164 150.28C124.54 149.656 123.724 149.344 122.716 149.344C121.66 149.344 120.828 149.68 120.22 150.352C119.612 151.024 119.276 151.936 119.212 153.088C119.196 153.536 119.196 153.984 119.212 154.432C119.276 155.584 119.612 156.496 120.22 157.168C120.828 157.84 121.66 158.176 122.716 158.176C123.708 158.176 124.524 157.872 125.164 157.264C125.804 156.656 126.148 155.832 126.196 154.792ZM131.396 152.56C131.46 151.824 131.636 151.136 131.924 150.496C132.212 149.856 132.588 149.296 133.052 148.816C133.516 148.336 134.068 147.96 134.708 147.688C135.364 147.416 136.092 147.28 136.892 147.28C137.756 147.28 138.524 147.424 139.196 147.712C139.884 147.984 140.468 148.384 140.948 148.912C141.428 149.44 141.796 150.08 142.052 150.832C142.308 151.584 142.436 152.424 142.436 153.352V154C142.436 154.176 142.372 154.328 142.244 154.456C142.116 154.584 141.964 154.648 141.788 154.648H133.532V154.792C133.564 155.88 133.892 156.72 134.516 157.312C135.156 157.888 135.948 158.176 136.892 158.176C137.772 158.176 138.428 158.056 138.86 157.816C139.308 157.56 139.668 157.28 139.94 156.976C140.068 156.848 140.18 156.76 140.276 156.712C140.372 156.664 140.516 156.64 140.708 156.64H141.428C141.604 156.64 141.764 156.704 141.908 156.832C142.052 156.96 142.108 157.112 142.076 157.288C142.028 157.576 141.892 157.896 141.668 158.248C141.444 158.584 141.116 158.904 140.684 159.208C140.268 159.496 139.74 159.744 139.1 159.952C138.476 160.144 137.74 160.24 136.892 160.24C136.092 160.24 135.372 160.104 134.732 159.832C134.092 159.544 133.532 159.16 133.052 158.68C132.588 158.184 132.212 157.608 131.924 156.952C131.636 156.28 131.46 155.552 131.396 154.768C131.316 154.032 131.316 153.296 131.396 152.56ZM133.532 152.632H140.276V152.56C140.276 151.584 139.964 150.808 139.34 150.232C138.732 149.64 137.916 149.344 136.892 149.344C136.428 149.344 135.996 149.424 135.596 149.584C135.196 149.728 134.844 149.944 134.54 150.232C134.236 150.504 133.996 150.84 133.82 151.24C133.644 151.64 133.548 152.08 133.532 152.56V152.632ZM156.419 159.352C156.419 159.528 156.355 159.68 156.227 159.808C156.099 159.936 155.947 160 155.771 160H154.883C154.707 160 154.555 159.936 154.427 159.808C154.299 159.68 154.235 159.528 154.235 159.352V153.016C154.235 151.784 153.939 150.864 153.347 150.256C152.755 149.648 151.931 149.344 150.875 149.344C149.867 149.344 149.051 149.648 148.427 150.256C147.819 150.864 147.515 151.784 147.515 153.016V159.352C147.515 159.528 147.451 159.68 147.323 159.808C147.195 159.936 147.043 160 146.867 160H145.979C145.803 160 145.651 159.936 145.523 159.808C145.395 159.68 145.331 159.528 145.331 159.352V148.168C145.331 147.992 145.395 147.84 145.523 147.712C145.651 147.584 145.803 147.52 145.979 147.52H146.867C147.043 147.52 147.195 147.584 147.323 147.712C147.451 147.84 147.515 147.992 147.515 148.168V148.912C147.819 148.512 148.267 148.144 148.859 147.808C149.467 147.456 150.259 147.28 151.235 147.28C151.987 147.28 152.683 147.408 153.323 147.664C153.963 147.904 154.507 148.256 154.955 148.72C155.419 149.168 155.779 149.728 156.035 150.4C156.291 151.072 156.419 151.824 156.419 152.656V159.352ZM162.986 155.8C162.986 156.104 163.01 156.392 163.058 156.664C163.122 156.92 163.226 157.144 163.37 157.336C163.514 157.528 163.714 157.68 163.97 157.792C164.242 157.888 164.586 157.936 165.002 157.936H166.274C166.45 157.936 166.602 158 166.73 158.128C166.858 158.256 166.922 158.408 166.922 158.584V159.352C166.922 159.528 166.858 159.68 166.73 159.808C166.602 159.936 166.45 160 166.274 160H164.762C163.37 160 162.362 159.64 161.738 158.92C161.114 158.2 160.802 157.16 160.802 155.8V149.584H159.026C158.85 149.584 158.698 149.52 158.57 149.392C158.442 149.264 158.378 149.112 158.378 148.936V148.168C158.378 147.992 158.442 147.84 158.57 147.712C158.698 147.584 158.85 147.52 159.026 147.52H160.802V143.608C160.802 143.432 160.866 143.28 160.994 143.152C161.122 143.024 161.274 142.96 161.45 142.96H162.338C162.514 142.96 162.666 143.024 162.794 143.152C162.922 143.28 162.986 143.432 162.986 143.608V147.52H166.034C166.21 147.52 166.362 147.584 166.49 147.712C166.618 147.84 166.682 147.992 166.682 148.168V148.936C166.682 149.112 166.618 149.264 166.49 149.392C166.362 149.52 166.21 149.584 166.034 149.584H162.986V155.8ZM176.435 156.544C176.435 156.24 176.347 155.992 176.171 155.8C176.011 155.592 175.763 155.416 175.427 155.272C175.091 155.128 174.659 154.992 174.131 154.864C173.619 154.736 173.019 154.6 172.331 154.456C171.035 154.184 170.123 153.736 169.595 153.112C169.083 152.472 168.827 151.728 168.827 150.88C168.827 150.4 168.923 149.944 169.115 149.512C169.307 149.08 169.595 148.696 169.979 148.36C170.363 148.024 170.843 147.76 171.419 147.568C172.011 147.376 172.699 147.28 173.483 147.28C174.267 147.28 174.947 147.368 175.523 147.544C176.115 147.72 176.611 147.944 177.011 148.216C177.411 148.488 177.715 148.784 177.923 149.104C178.131 149.408 178.243 149.704 178.259 149.992C178.275 150.168 178.211 150.32 178.067 150.448C177.939 150.576 177.787 150.64 177.611 150.64H176.819C176.723 150.64 176.603 150.624 176.459 150.592C176.331 150.544 176.211 150.448 176.099 150.304C175.891 150.032 175.579 149.808 175.163 149.632C174.763 149.44 174.203 149.344 173.483 149.344C172.747 149.344 172.147 149.48 171.683 149.752C171.235 150.024 171.011 150.4 171.011 150.88C171.011 151.184 171.075 151.432 171.203 151.624C171.331 151.8 171.539 151.96 171.827 152.104C172.115 152.232 172.491 152.352 172.955 152.464C173.435 152.576 174.027 152.712 174.731 152.872C175.467 153.032 176.083 153.24 176.579 153.496C177.075 153.736 177.475 154.016 177.779 154.336C178.083 154.64 178.299 154.984 178.427 155.368C178.555 155.736 178.619 156.128 178.619 156.544C178.619 157.024 178.499 157.488 178.259 157.936C178.035 158.384 177.707 158.776 177.275 159.112C176.843 159.448 176.315 159.72 175.691 159.928C175.083 160.136 174.387 160.24 173.603 160.24C172.819 160.24 172.123 160.144 171.515 159.952C170.907 159.76 170.387 159.528 169.955 159.256C169.523 158.968 169.187 158.664 168.947 158.344C168.723 158.008 168.603 157.696 168.587 157.408C168.571 157.232 168.627 157.08 168.755 156.952C168.883 156.824 169.043 156.76 169.235 156.76H170.099C170.195 156.76 170.307 156.776 170.435 156.808C170.563 156.824 170.683 156.912 170.795 157.072C171.051 157.424 171.403 157.696 171.851 157.888C172.299 158.08 172.883 158.176 173.603 158.176C173.955 158.176 174.299 158.136 174.635 158.056C174.987 157.976 175.291 157.864 175.547 157.72C175.819 157.576 176.035 157.408 176.195 157.216C176.355 157.008 176.435 156.784 176.435 156.544Z" fill="#1C3554"/>
<path d="M32.24 115.352C30.2347 115.352 28.56 115.043 27.216 114.424C25.872 113.784 24.848 112.963 24.144 111.96C23.4613 110.936 23.0987 109.837 23.056 108.664C23.056 108.472 23.12 108.312 23.248 108.184C23.376 108.056 23.536 107.992 23.728 107.992H28.016C28.2933 107.992 28.5067 108.045 28.656 108.152C28.8267 108.259 28.9547 108.408 29.04 108.6C29.232 109.091 29.488 109.496 29.808 109.816C30.128 110.136 30.4907 110.371 30.896 110.52C31.3013 110.669 31.76 110.744 32.272 110.744C32.8693 110.744 33.424 110.616 33.936 110.36C34.448 110.104 34.8533 109.731 35.152 109.24C35.472 108.728 35.632 108.12 35.632 107.416C35.632 106.776 35.4827 106.221 35.184 105.752C34.9067 105.283 34.512 104.909 34 104.632C33.5093 104.355 32.9333 104.216 32.272 104.216C31.76 104.216 31.344 104.28 31.024 104.408C30.704 104.515 30.4373 104.653 30.224 104.824C30.0107 104.995 29.8187 105.144 29.648 105.272C29.4773 105.379 29.2853 105.432 29.072 105.432H24.88C24.688 105.432 24.5173 105.368 24.368 105.24C24.24 105.091 24.176 104.92 24.176 104.728L25.328 93.56C25.3707 93.24 25.488 93.0053 25.68 92.856C25.872 92.6853 26.1067 92.6 26.384 92.6H39.216C39.4507 92.6 39.6427 92.6747 39.792 92.824C39.9627 92.9733 40.048 93.1653 40.048 93.4V96.408C40.048 96.6427 39.9627 96.8347 39.792 96.984C39.6427 97.1333 39.4507 97.208 39.216 97.208H29.936L29.52 101.336C29.9893 101.037 30.5333 100.781 31.152 100.568C31.792 100.355 32.6667 100.248 33.776 100.248C34.7787 100.248 35.7387 100.429 36.656 100.792C37.5947 101.133 38.4267 101.624 39.152 102.264C39.8987 102.904 40.4747 103.672 40.88 104.568C41.3067 105.443 41.52 106.435 41.52 107.544C41.52 109.059 41.1467 110.403 40.4 111.576C39.6747 112.749 38.6187 113.677 37.232 114.36C35.8453 115.021 34.1813 115.352 32.24 115.352ZM53.5355 115.32C51.9995 115.32 50.6662 115.107 49.5355 114.68C48.4262 114.232 47.4982 113.624 46.7515 112.856C46.0048 112.088 45.4395 111.192 45.0555 110.168C44.6715 109.144 44.4475 108.045 44.3835 106.872C44.3622 106.296 44.3408 105.645 44.3195 104.92C44.3195 104.173 44.3195 103.427 44.3195 102.68C44.3408 101.912 44.3622 101.229 44.3835 100.632C44.4475 99.4587 44.6715 98.3707 45.0555 97.368C45.4608 96.344 46.0368 95.4587 46.7835 94.712C47.5515 93.944 48.4902 93.3467 49.5995 92.92C50.7302 92.4933 52.0422 92.28 53.5355 92.28C55.0502 92.28 56.3622 92.4933 57.4715 92.92C58.6022 93.3467 59.5408 93.944 60.2875 94.712C61.0342 95.4587 61.6102 96.344 62.0155 97.368C62.4208 98.3707 62.6555 99.4587 62.7195 100.632C62.7408 101.229 62.7515 101.912 62.7515 102.68C62.7728 103.427 62.7728 104.173 62.7515 104.92C62.7515 105.645 62.7408 106.296 62.7195 106.872C62.6555 108.045 62.4208 109.144 62.0155 110.168C61.6315 111.192 61.0662 112.088 60.3195 112.856C59.5942 113.624 58.6662 114.232 57.5355 114.68C56.4262 115.107 55.0928 115.32 53.5355 115.32ZM53.5355 110.68C54.6448 110.68 55.4448 110.328 55.9355 109.624C56.4475 108.899 56.7142 107.928 56.7355 106.712C56.7782 106.093 56.7995 105.443 56.7995 104.76C56.8208 104.077 56.8208 103.395 56.7995 102.712C56.7995 102.029 56.7782 101.4 56.7355 100.824C56.7142 99.6507 56.4475 98.7013 55.9355 97.976C55.4448 97.2507 54.6448 96.8773 53.5355 96.856C52.4475 96.8773 51.6475 97.2507 51.1355 97.976C50.6448 98.7013 50.3782 99.6507 50.3355 100.824C50.3355 101.4 50.3248 102.029 50.3035 102.712C50.3035 103.395 50.3035 104.077 50.3035 104.76C50.3248 105.443 50.3355 106.093 50.3355 106.712C50.3782 107.928 50.6555 108.899 51.1675 109.624C51.6795 110.328 52.4688 110.68 53.5355 110.68ZM66.7468 115C66.5121 115 66.3201 114.925 66.1708 114.776C66.0214 114.605 65.9468 114.413 65.9468 114.2V110.136C65.9468 109.901 66.0214 109.709 66.1708 109.56C66.3201 109.411 66.5121 109.336 66.7468 109.336H70.8108C71.0241 109.336 71.2054 109.411 71.3548 109.56C71.5254 109.709 71.6108 109.901 71.6108 110.136V114.2C71.6108 114.413 71.5254 114.605 71.3548 114.776C71.2054 114.925 71.0241 115 70.8108 115H66.7468ZM83.9418 115.32C82.4058 115.32 81.0724 115.107 79.9418 114.68C78.8324 114.232 77.9044 113.624 77.1578 112.856C76.4111 112.088 75.8458 111.192 75.4618 110.168C75.0778 109.144 74.8538 108.045 74.7898 106.872C74.7684 106.296 74.7471 105.645 74.7258 104.92C74.7258 104.173 74.7258 103.427 74.7258 102.68C74.7471 101.912 74.7684 101.229 74.7898 100.632C74.8538 99.4587 75.0778 98.3707 75.4618 97.368C75.8671 96.344 76.4431 95.4587 77.1898 94.712C77.9578 93.944 78.8964 93.3467 80.0058 92.92C81.1364 92.4933 82.4484 92.28 83.9418 92.28C85.4564 92.28 86.7684 92.4933 87.8778 92.92C89.0084 93.3467 89.9471 93.944 90.6938 94.712C91.4404 95.4587 92.0164 96.344 92.4218 97.368C92.8271 98.3707 93.0618 99.4587 93.1258 100.632C93.1471 101.229 93.1578 101.912 93.1578 102.68C93.1791 103.427 93.1791 104.173 93.1578 104.92C93.1578 105.645 93.1471 106.296 93.1258 106.872C93.0618 108.045 92.8271 109.144 92.4218 110.168C92.0378 111.192 91.4724 112.088 90.7257 112.856C90.0004 113.624 89.0724 114.232 87.9418 114.68C86.8324 115.107 85.4991 115.32 83.9418 115.32ZM83.9418 110.68C85.0511 110.68 85.8511 110.328 86.3418 109.624C86.8538 108.899 87.1204 107.928 87.1418 106.712C87.1844 106.093 87.2058 105.443 87.2058 104.76C87.2271 104.077 87.2271 103.395 87.2058 102.712C87.2058 102.029 87.1844 101.4 87.1418 100.824C87.1204 99.6507 86.8538 98.7013 86.3418 97.976C85.8511 97.2507 85.0511 96.8773 83.9418 96.856C82.8538 96.8773 82.0538 97.2507 81.5417 97.976C81.0511 98.7013 80.7844 99.6507 80.7418 100.824C80.7418 101.4 80.7311 102.029 80.7098 102.712C80.7098 103.395 80.7098 104.077 80.7098 104.76C80.7311 105.443 80.7418 106.093 80.7418 106.712C80.7844 107.928 81.0618 108.899 81.5738 109.624C82.0858 110.328 82.8751 110.68 83.9418 110.68ZM105.692 115.32C104.156 115.32 102.822 115.107 101.692 114.68C100.582 114.232 99.6544 113.624 98.9078 112.856C98.1611 112.088 97.5958 111.192 97.2118 110.168C96.8278 109.144 96.6038 108.045 96.5398 106.872C96.5184 106.296 96.4971 105.645 96.4758 104.92C96.4758 104.173 96.4758 103.427 96.4758 102.68C96.4971 101.912 96.5184 101.229 96.5398 100.632C96.6038 99.4587 96.8278 98.3707 97.2118 97.368C97.6171 96.344 98.1931 95.4587 98.9398 94.712C99.7078 93.944 100.646 93.3467 101.756 92.92C102.886 92.4933 104.198 92.28 105.692 92.28C107.206 92.28 108.518 92.4933 109.628 92.92C110.758 93.3467 111.697 93.944 112.444 94.712C113.19 95.4587 113.766 96.344 114.172 97.368C114.577 98.3707 114.812 99.4587 114.876 100.632C114.897 101.229 114.908 101.912 114.908 102.68C114.929 103.427 114.929 104.173 114.908 104.92C114.908 105.645 114.897 106.296 114.876 106.872C114.812 108.045 114.577 109.144 114.172 110.168C113.788 111.192 113.222 112.088 112.476 112.856C111.75 113.624 110.822 114.232 109.692 114.68C108.582 115.107 107.249 115.32 105.692 115.32ZM105.692 110.68C106.801 110.68 107.601 110.328 108.092 109.624C108.604 108.899 108.87 107.928 108.892 106.712C108.934 106.093 108.956 105.443 108.956 104.76C108.977 104.077 108.977 103.395 108.956 102.712C108.956 102.029 108.934 101.4 108.892 100.824C108.87 99.6507 108.604 98.7013 108.092 97.976C107.601 97.2507 106.801 96.8773 105.692 96.856C104.604 96.8773 103.804 97.2507 103.292 97.976C102.801 98.7013 102.534 99.6507 102.492 100.824C102.492 101.4 102.481 102.029 102.46 102.712C102.46 103.395 102.46 104.077 102.46 104.76C102.481 105.443 102.492 106.093 102.492 106.712C102.534 107.928 102.812 108.899 103.324 109.624C103.836 110.328 104.625 110.68 105.692 110.68ZM127.442 115.32C125.906 115.32 124.572 115.107 123.442 114.68C122.332 114.232 121.404 113.624 120.658 112.856C119.911 112.088 119.346 111.192 118.962 110.168C118.578 109.144 118.354 108.045 118.29 106.872C118.268 106.296 118.247 105.645 118.226 104.92C118.226 104.173 118.226 103.427 118.226 102.68C118.247 101.912 118.268 101.229 118.29 100.632C118.354 99.4587 118.578 98.3707 118.962 97.368C119.367 96.344 119.943 95.4587 120.69 94.712C121.458 93.944 122.396 93.3467 123.506 92.92C124.636 92.4933 125.948 92.28 127.442 92.28C128.956 92.28 130.268 92.4933 131.378 92.92C132.508 93.3467 133.447 93.944 134.194 94.712C134.94 95.4587 135.516 96.344 135.922 97.368C136.327 98.3707 136.562 99.4587 136.626 100.632C136.647 101.229 136.658 101.912 136.658 102.68C136.679 103.427 136.679 104.173 136.658 104.92C136.658 105.645 136.647 106.296 136.626 106.872C136.562 108.045 136.327 109.144 135.922 110.168C135.538 111.192 134.972 112.088 134.226 112.856C133.5 113.624 132.572 114.232 131.442 114.68C130.332 115.107 128.999 115.32 127.442 115.32ZM127.442 110.68C128.551 110.68 129.351 110.328 129.842 109.624C130.354 108.899 130.62 107.928 130.642 106.712C130.684 106.093 130.706 105.443 130.706 104.76C130.727 104.077 130.727 103.395 130.706 102.712C130.706 102.029 130.684 101.4 130.642 100.824C130.62 99.6507 130.354 98.7013 129.842 97.976C129.351 97.2507 128.551 96.8773 127.442 96.856C126.354 96.8773 125.554 97.2507 125.042 97.976C124.551 98.7013 124.284 99.6507 124.242 100.824C124.242 101.4 124.231 102.029 124.21 102.712C124.21 103.395 124.21 104.077 124.21 104.76C124.231 105.443 124.242 106.093 124.242 106.712C124.284 107.928 124.562 108.899 125.074 109.624C125.586 110.328 126.375 110.68 127.442 110.68ZM146.76 113.944C146.525 113.944 146.333 113.869 146.184 113.72C146.034 113.549 145.96 113.357 145.96 113.144V107.288H140.264C140.029 107.288 139.826 107.213 139.656 107.064C139.506 106.915 139.432 106.723 139.432 106.488V104.152C139.432 103.917 139.506 103.725 139.656 103.576C139.826 103.405 140.029 103.32 140.264 103.32H145.96V97.656C145.96 97.4213 146.034 97.2293 146.184 97.08C146.333 96.9307 146.525 96.856 146.76 96.856H149.384C149.597 96.856 149.778 96.9307 149.928 97.08C150.098 97.2293 150.184 97.4213 150.184 97.656V103.32H155.848C156.082 103.32 156.274 103.405 156.424 103.576C156.573 103.725 156.648 103.917 156.648 104.152V106.488C156.648 106.723 156.573 106.915 156.424 107.064C156.274 107.213 156.082 107.288 155.848 107.288H150.184V113.144C150.184 113.357 150.098 113.549 149.928 113.72C149.778 113.869 149.597 113.944 149.384 113.944H146.76Z" fill="#1C3554"/>
<path fill-rule="evenodd" clip-rule="evenodd" d="M81.9999 36.6667C75.7599 36.6667 63.3333 39.7867 63.3333 46V50.6667H100.667V46C100.667 39.7867 88.2399 36.6667 81.9999 36.6667ZM69.5733 45.3333C71.8133 43.7867 77.2266 42 81.9999 42C86.7733 42 92.1866 43.7867 94.4266 45.3333H69.5733ZM81.9999 32C87.1466 32 91.3333 27.8133 91.3333 22.6667C91.3333 17.52 87.1466 13.3333 81.9999 13.3333C76.8533 13.3333 72.6666 17.52 72.6666 22.6667C72.6666 27.8133 76.8533 32 81.9999 32ZM81.9999 18.6667C84.2133 18.6667 85.9999 20.4533 85.9999 22.6667C85.9999 24.88 84.2133 26.6667 81.9999 26.6667C79.7866 26.6667 77.9999 24.88 77.9999 22.6667C77.9999 20.4533 79.7866 18.6667 81.9999 18.6667ZM100.773 36.8267C103.867 39.0667 106 42.0533 106 46V50.6667H116.667V46C116.667 40.6133 107.333 37.5467 100.773 36.8267ZM97.9999 32C103.147 32 107.333 27.8133 107.333 22.6667C107.333 17.52 103.147 13.3333 97.9999 13.3333C96.5599 13.3333 95.2266 13.68 93.9999 14.2667C95.6799 16.64 96.6666 19.5467 96.6666 22.6667C96.6666 25.7867 95.6799 28.6933 93.9999 31.0667C95.2266 31.6533 96.5599 32 97.9999 32Z" fill="#F72585"/>
</svg>
