<svg width="157" height="168" viewBox="0 0 157 168" fill="none" xmlns="http://www.w3.org/2000/svg">
<path d="M12.312 156.208H3.984L2.736 159.4C2.688 159.528 2.6 159.664 2.472 159.808C2.344 159.936 2.12 160 1.8 160H0.912C0.768 160 0.64 159.952 0.528 159.856C0.432 159.744 0.384 159.616 0.384 159.472C0.384 159.392 0.416 159.28 0.48 159.136L6.36 143.992C6.44 143.816 6.56 143.64 6.72 143.464C6.88 143.288 7.12 143.2 7.44 143.2H8.88C9.2 143.2 9.44 143.288 9.6 143.464C9.76 143.64 9.88 143.816 9.96 143.992L15.816 159.136C15.88 159.28 15.912 159.392 15.912 159.472C15.912 159.616 15.856 159.744 15.744 159.856C15.648 159.952 15.528 160 15.384 160H14.496C14.176 160 13.952 159.936 13.824 159.808C13.696 159.664 13.608 159.528 13.56 159.4L12.312 156.208ZM4.824 154.048H11.472L8.16 145.48L4.824 154.048ZM19.5799 154.6C19.6439 155.24 19.7799 155.784 19.9879 156.232C20.2119 156.68 20.4759 157.048 20.7799 157.336C21.0999 157.624 21.4519 157.84 21.8359 157.984C22.2199 158.112 22.6119 158.176 23.0119 158.176C23.7799 158.176 24.4359 158.032 24.9799 157.744C25.5239 157.456 25.9479 156.976 26.2519 156.304C26.3639 156.048 26.4759 155.88 26.5879 155.8C26.7159 155.704 26.8679 155.656 27.0439 155.656H27.7639C27.9399 155.656 28.0919 155.72 28.2199 155.848C28.3639 155.976 28.4279 156.128 28.4119 156.304C28.3959 156.688 28.2679 157.112 28.0279 157.576C27.8039 158.024 27.4599 158.448 26.9959 158.848C26.5479 159.232 25.9879 159.56 25.3159 159.832C24.6599 160.104 23.8919 160.24 23.0119 160.24C22.1319 160.24 21.3479 160.096 20.6599 159.808C19.9879 159.52 19.4119 159.128 18.9319 158.632C18.4679 158.136 18.0999 157.552 17.8279 156.88C17.5719 156.208 17.4279 155.488 17.3959 154.72C17.3799 154.464 17.3639 154.152 17.3479 153.784C17.3479 153.4 17.3639 153.072 17.3959 152.8C17.4599 152.032 17.6199 151.312 17.8759 150.64C18.1479 149.968 18.5159 149.384 18.9799 148.888C19.4439 148.392 20.0119 148 20.6839 147.712C21.3559 147.424 22.1319 147.28 23.0119 147.28C23.8919 147.28 24.6599 147.416 25.3159 147.688C25.9879 147.96 26.5479 148.296 26.9959 148.696C27.4599 149.08 27.8039 149.504 28.0279 149.968C28.2679 150.416 28.3959 150.832 28.4119 151.216C28.4279 151.392 28.3639 151.544 28.2199 151.672C28.0919 151.8 27.9399 151.864 27.7639 151.864H27.0439C26.8679 151.864 26.7159 151.824 26.5879 151.744C26.4759 151.648 26.3639 151.472 26.2519 151.216C25.9479 150.544 25.5239 150.064 24.9799 149.776C24.4359 149.488 23.7799 149.344 23.0119 149.344C22.6119 149.344 22.2119 149.416 21.8119 149.56C21.4279 149.688 21.0759 149.896 20.7559 150.184C20.4519 150.472 20.1879 150.84 19.9639 151.288C19.7559 151.736 19.6279 152.28 19.5799 152.92C19.5319 153.512 19.5319 154.072 19.5799 154.6ZM34.5484 155.8C34.5484 156.104 34.5724 156.392 34.6204 156.664C34.6844 156.92 34.7884 157.144 34.9324 157.336C35.0764 157.528 35.2764 157.68 35.5324 157.792C35.8044 157.888 36.1484 157.936 36.5644 157.936H37.8364C38.0124 157.936 38.1644 158 38.2924 158.128C38.4204 158.256 38.4844 158.408 38.4844 158.584V159.352C38.4844 159.528 38.4204 159.68 38.2924 159.808C38.1644 159.936 38.0124 160 37.8364 160H36.3244C34.9324 160 33.9244 159.64 33.3004 158.92C32.6764 158.2 32.3644 157.16 32.3644 155.8V149.584H30.5884C30.4124 149.584 30.2604 149.52 30.1324 149.392C30.0044 149.264 29.9404 149.112 29.9404 148.936V148.168C29.9404 147.992 30.0044 147.84 30.1324 147.712C30.2604 147.584 30.4124 147.52 30.5884 147.52H32.3644V143.608C32.3644 143.432 32.4284 143.28 32.5564 143.152C32.6844 143.024 32.8364 142.96 33.0124 142.96H33.9004C34.0764 142.96 34.2284 143.024 34.3564 143.152C34.4844 143.28 34.5484 143.432 34.5484 143.608V147.52H37.5964C37.7724 147.52 37.9244 147.584 38.0524 147.712C38.1804 147.84 38.2444 147.992 38.2444 148.168V148.936C38.2444 149.112 38.1804 149.264 38.0524 149.392C37.9244 149.52 37.7724 149.584 37.5964 149.584H34.5484V155.8ZM43.0778 159.352C43.0778 159.528 43.0138 159.68 42.8858 159.808C42.7578 159.936 42.6058 160 42.4298 160H41.5418C41.3658 160 41.2138 159.936 41.0858 159.808C40.9578 159.68 40.8938 159.528 40.8938 159.352V148.168C40.8938 147.992 40.9578 147.84 41.0858 147.712C41.2138 147.584 41.3658 147.52 41.5418 147.52H42.4298C42.6058 147.52 42.7578 147.584 42.8858 147.712C43.0138 147.84 43.0778 147.992 43.0778 148.168V159.352ZM43.3178 144.976C43.3178 145.152 43.2538 145.304 43.1258 145.432C42.9978 145.56 42.8458 145.624 42.6698 145.624H41.3018C41.1258 145.624 40.9738 145.56 40.8458 145.432C40.7178 145.304 40.6538 145.152 40.6538 144.976V143.608C40.6538 143.432 40.7178 143.28 40.8458 143.152C40.9738 143.024 41.1258 142.96 41.3018 142.96H42.6698C42.8458 142.96 42.9978 143.024 43.1258 143.152C43.2538 143.28 43.3178 143.432 43.3178 143.608V144.976ZM51.1708 160C50.9628 160 50.8028 159.936 50.6908 159.808C50.5788 159.68 50.4908 159.544 50.4268 159.4L45.6508 148.264C45.6348 148.216 45.6268 148.16 45.6268 148.096C45.6268 147.936 45.6828 147.8 45.7948 147.688C45.9068 147.576 46.0428 147.52 46.2028 147.52H47.0908C47.3308 147.52 47.5068 147.584 47.6188 147.712C47.7468 147.84 47.8348 147.968 47.8828 148.096L51.6028 156.808L55.3228 148.096C55.3708 147.968 55.4508 147.84 55.5628 147.712C55.6748 147.584 55.8268 147.52 56.0188 147.52H57.0028C57.1628 147.52 57.2988 147.576 57.4108 147.688C57.5228 147.8 57.5788 147.936 57.5788 148.096C57.5788 148.16 57.5708 148.216 57.5548 148.264L52.7788 159.4C52.7148 159.544 52.6268 159.68 52.5148 159.808C52.4188 159.936 52.2668 160 52.0588 160H51.1708ZM59.0678 152.56C59.1318 151.824 59.3078 151.136 59.5958 150.496C59.8838 149.856 60.2598 149.296 60.7238 148.816C61.1878 148.336 61.7398 147.96 62.3798 147.688C63.0358 147.416 63.7638 147.28 64.5638 147.28C65.4278 147.28 66.1958 147.424 66.8678 147.712C67.5558 147.984 68.1398 148.384 68.6198 148.912C69.0998 149.44 69.4678 150.08 69.7238 150.832C69.9798 151.584 70.1078 152.424 70.1078 153.352V154C70.1078 154.176 70.0438 154.328 69.9158 154.456C69.7878 154.584 69.6358 154.648 69.4598 154.648H61.2038V154.792C61.2358 155.88 61.5638 156.72 62.1878 157.312C62.8278 157.888 63.6198 158.176 64.5638 158.176C65.4438 158.176 66.0998 158.056 66.5318 157.816C66.9798 157.56 67.3398 157.28 67.6118 156.976C67.7398 156.848 67.8518 156.76 67.9478 156.712C68.0438 156.664 68.1878 156.64 68.3798 156.64H69.0998C69.2758 156.64 69.4358 156.704 69.5798 156.832C69.7238 156.96 69.7798 157.112 69.7478 157.288C69.6998 157.576 69.5638 157.896 69.3398 158.248C69.1158 158.584 68.7878 158.904 68.3558 159.208C67.9398 159.496 67.4118 159.744 66.7718 159.952C66.1478 160.144 65.4118 160.24 64.5638 160.24C63.7638 160.24 63.0438 160.104 62.4038 159.832C61.7638 159.544 61.2038 159.16 60.7238 158.68C60.2598 158.184 59.8838 157.608 59.5958 156.952C59.3078 156.28 59.1318 155.552 59.0678 154.768C58.9878 154.032 58.9878 153.296 59.0678 152.56ZM61.2038 152.632H67.9478V152.56C67.9478 151.584 67.6358 150.808 67.0118 150.232C66.4038 149.64 65.5878 149.344 64.5638 149.344C64.0998 149.344 63.6678 149.424 63.2678 149.584C62.8678 149.728 62.5158 149.944 62.2118 150.232C61.9078 150.504 61.6678 150.84 61.4918 151.24C61.3158 151.64 61.2198 152.08 61.2038 152.56V152.632ZM86.5905 153.352L91.4385 143.968C91.5345 143.776 91.6625 143.6 91.8225 143.44C91.9985 143.28 92.2225 143.2 92.4945 143.2H93.4065C93.5825 143.2 93.7345 143.264 93.8625 143.392C93.9905 143.52 94.0545 143.672 94.0545 143.848V159.352C94.0545 159.528 93.9905 159.68 93.8625 159.808C93.7345 159.936 93.5825 160 93.4065 160H92.4225C92.2465 160 92.0945 159.936 91.9665 159.808C91.8385 159.68 91.7745 159.528 91.7745 159.352V147.976L88.0305 155.2C87.9025 155.44 87.7665 155.632 87.6225 155.776C87.4785 155.904 87.2865 155.968 87.0465 155.968H86.1345C85.8945 155.968 85.7025 155.904 85.5585 155.776C85.4145 155.632 85.2785 155.44 85.1505 155.2L81.4065 147.976V159.352C81.4065 159.528 81.3425 159.68 81.2145 159.808C81.0865 159.936 80.9345 160 80.7585 160H79.7745C79.5985 160 79.4465 159.936 79.3185 159.808C79.1905 159.68 79.1265 159.528 79.1265 159.352V143.848C79.1265 143.672 79.1905 143.52 79.3185 143.392C79.4465 143.264 79.5985 143.2 79.7745 143.2H80.6865C80.9585 143.2 81.1745 143.28 81.3345 143.44C81.5105 143.6 81.6465 143.776 81.7425 143.968L86.5905 153.352ZM97.3412 152.56C97.4052 151.824 97.5812 151.136 97.8692 150.496C98.1572 149.856 98.5332 149.296 98.9972 148.816C99.4612 148.336 100.013 147.96 100.653 147.688C101.309 147.416 102.037 147.28 102.837 147.28C103.701 147.28 104.469 147.424 105.141 147.712C105.829 147.984 106.413 148.384 106.893 148.912C107.373 149.44 107.741 150.08 107.997 150.832C108.253 151.584 108.381 152.424 108.381 153.352V154C108.381 154.176 108.317 154.328 108.189 154.456C108.061 154.584 107.909 154.648 107.733 154.648H99.4772V154.792C99.5092 155.88 99.8372 156.72 100.461 157.312C101.101 157.888 101.893 158.176 102.837 158.176C103.717 158.176 104.373 158.056 104.805 157.816C105.253 157.56 105.613 157.28 105.885 156.976C106.013 156.848 106.125 156.76 106.221 156.712C106.317 156.664 106.461 156.64 106.653 156.64H107.373C107.549 156.64 107.709 156.704 107.853 156.832C107.997 156.96 108.053 157.112 108.021 157.288C107.973 157.576 107.837 157.896 107.613 158.248C107.389 158.584 107.061 158.904 106.629 159.208C106.213 159.496 105.685 159.744 105.045 159.952C104.421 160.144 103.685 160.24 102.837 160.24C102.037 160.24 101.317 160.104 100.677 159.832C100.037 159.544 99.4772 159.16 98.9972 158.68C98.5332 158.184 98.1572 157.608 97.8692 156.952C97.5812 156.28 97.4052 155.552 97.3412 154.768C97.2612 154.032 97.2612 153.296 97.3412 152.56ZM99.4772 152.632H106.221V152.56C106.221 151.584 105.909 150.808 105.285 150.232C104.677 149.64 103.861 149.344 102.837 149.344C102.373 149.344 101.941 149.424 101.541 149.584C101.141 149.728 100.789 149.944 100.485 150.232C100.181 150.504 99.9412 150.84 99.7652 151.24C99.5892 151.64 99.4932 152.08 99.4772 152.56V152.632ZM122.365 159.352C122.365 159.528 122.301 159.68 122.173 159.808C122.045 159.936 121.893 160 121.717 160H120.829C120.653 160 120.501 159.936 120.373 159.808C120.245 159.68 120.181 159.528 120.181 159.352V153.016C120.181 151.784 119.885 150.864 119.293 150.256C118.701 149.648 117.877 149.344 116.821 149.344C115.813 149.344 114.997 149.648 114.373 150.256C113.765 150.864 113.461 151.784 113.461 153.016V159.352C113.461 159.528 113.397 159.68 113.269 159.808C113.141 159.936 112.989 160 112.813 160H111.925C111.749 160 111.597 159.936 111.469 159.808C111.341 159.68 111.277 159.528 111.277 159.352V148.168C111.277 147.992 111.341 147.84 111.469 147.712C111.597 147.584 111.749 147.52 111.925 147.52H112.813C112.989 147.52 113.141 147.584 113.269 147.712C113.397 147.84 113.461 147.992 113.461 148.168V148.912C113.765 148.512 114.213 148.144 114.805 147.808C115.413 147.456 116.205 147.28 117.181 147.28C117.933 147.28 118.629 147.408 119.269 147.664C119.909 147.904 120.453 148.256 120.901 148.72C121.365 149.168 121.725 149.728 121.981 150.4C122.237 151.072 122.365 151.824 122.365 152.656V159.352ZM128.931 155.8C128.931 156.104 128.955 156.392 129.003 156.664C129.067 156.92 129.171 157.144 129.315 157.336C129.459 157.528 129.659 157.68 129.915 157.792C130.187 157.888 130.531 157.936 130.947 157.936H132.219C132.395 157.936 132.547 158 132.675 158.128C132.803 158.256 132.867 158.408 132.867 158.584V159.352C132.867 159.528 132.803 159.68 132.675 159.808C132.547 159.936 132.395 160 132.219 160H130.707C129.315 160 128.307 159.64 127.683 158.92C127.059 158.2 126.747 157.16 126.747 155.8V149.584H124.971C124.795 149.584 124.643 149.52 124.515 149.392C124.387 149.264 124.323 149.112 124.323 148.936V148.168C124.323 147.992 124.387 147.84 124.515 147.712C124.643 147.584 124.795 147.52 124.971 147.52H126.747V143.608C126.747 143.432 126.811 143.28 126.939 143.152C127.067 143.024 127.219 142.96 127.395 142.96H128.283C128.459 142.96 128.611 143.024 128.739 143.152C128.867 143.28 128.931 143.432 128.931 143.608V147.52H131.979C132.155 147.52 132.307 147.584 132.435 147.712C132.563 147.84 132.627 147.992 132.627 148.168V148.936C132.627 149.112 132.563 149.264 132.435 149.392C132.307 149.52 132.155 149.584 131.979 149.584H128.931V155.8ZM140.389 147.28C141.253 147.28 142.021 147.416 142.693 147.688C143.365 147.944 143.941 148.304 144.421 148.768C144.901 149.232 145.277 149.8 145.549 150.472C145.837 151.128 146.013 151.848 146.077 152.632C146.093 152.776 146.101 152.952 146.101 153.16C146.101 153.352 146.101 153.56 146.101 153.784C146.101 153.992 146.101 154.2 146.101 154.408C146.101 154.6 146.093 154.76 146.077 154.888C145.997 155.688 145.821 156.416 145.549 157.072C145.277 157.728 144.901 158.288 144.421 158.752C143.941 159.216 143.365 159.584 142.693 159.856C142.021 160.112 141.253 160.24 140.389 160.24C139.525 160.24 138.757 160.112 138.085 159.856C137.413 159.584 136.837 159.216 136.357 158.752C135.877 158.288 135.493 157.728 135.205 157.072C134.933 156.416 134.765 155.688 134.701 154.888C134.685 154.76 134.669 154.6 134.653 154.408C134.653 154.2 134.653 153.992 134.653 153.784C134.653 153.56 134.653 153.352 134.653 153.16C134.669 152.952 134.685 152.776 134.701 152.632C134.765 151.848 134.933 151.128 135.205 150.472C135.493 149.8 135.877 149.232 136.357 148.768C136.837 148.304 137.413 147.944 138.085 147.688C138.757 147.416 139.525 147.28 140.389 147.28ZM143.893 154.768C143.925 154.496 143.941 154.168 143.941 153.784C143.941 153.384 143.925 153.04 143.893 152.752C143.845 152.272 143.741 151.824 143.581 151.408C143.421 150.992 143.197 150.632 142.909 150.328C142.621 150.024 142.269 149.784 141.853 149.608C141.437 149.432 140.949 149.344 140.389 149.344C139.829 149.344 139.341 149.432 138.925 149.608C138.509 149.784 138.157 150.024 137.869 150.328C137.581 150.632 137.357 150.992 137.197 151.408C137.037 151.824 136.933 152.272 136.885 152.752C136.853 153.04 136.837 153.384 136.837 153.784C136.837 154.168 136.853 154.496 136.885 154.768C136.933 155.248 137.037 155.696 137.197 156.112C137.357 156.528 137.581 156.888 137.869 157.192C138.157 157.496 138.509 157.736 138.925 157.912C139.341 158.088 139.829 158.176 140.389 158.176C140.949 158.176 141.437 158.088 141.853 157.912C142.269 157.736 142.621 157.496 142.909 157.192C143.197 156.888 143.421 156.528 143.581 156.112C143.741 155.696 143.845 155.248 143.893 154.768ZM155.464 147.52C155.64 147.52 155.792 147.584 155.92 147.712C156.048 147.84 156.112 147.992 156.112 148.168V148.936C156.112 149.112 156.048 149.264 155.92 149.392C155.792 149.52 155.64 149.584 155.464 149.584H154.072C152.232 149.584 151.312 150.504 151.312 152.344V159.352C151.312 159.528 151.248 159.68 151.12 159.808C150.992 159.936 150.84 160 150.664 160H149.776C149.6 160 149.448 159.936 149.32 159.808C149.192 159.68 149.128 159.528 149.128 159.352V148.168C149.128 147.992 149.192 147.84 149.32 147.712C149.448 147.584 149.6 147.52 149.776 147.52H150.664C150.84 147.52 150.992 147.584 151.12 147.712C151.248 147.84 151.312 147.992 151.312 148.168V148.912C151.632 148.432 152.016 148.08 152.464 147.856C152.912 147.632 153.496 147.52 154.216 147.52H155.464Z" fill="#1C3554"/>
<path d="M36.864 115C36.6507 115 36.4587 114.925 36.288 114.776C36.1387 114.605 36.064 114.413 36.064 114.2V98.968L31.68 102.328C31.488 102.477 31.2853 102.531 31.072 102.488C30.88 102.445 30.7093 102.328 30.56 102.136L28.672 99.672C28.544 99.48 28.4907 99.2773 28.512 99.064C28.5547 98.8293 28.6827 98.648 28.896 98.52L36.256 92.824C36.384 92.7387 36.5013 92.6853 36.608 92.664C36.736 92.6213 36.8747 92.6 37.024 92.6H41.024C41.2587 92.6 41.4507 92.6747 41.6 92.824C41.7493 92.9733 41.824 93.1653 41.824 93.4V114.2C41.824 114.413 41.7493 114.605 41.6 114.776C41.4507 114.925 41.2587 115 41.024 115H36.864ZM54.7543 115.32C53.2183 115.32 51.8849 115.107 50.7543 114.68C49.6449 114.232 48.7169 113.624 47.9703 112.856C47.2236 112.088 46.6583 111.192 46.2743 110.168C45.8903 109.144 45.6663 108.045 45.6023 106.872C45.5809 106.296 45.5596 105.645 45.5383 104.92C45.5383 104.173 45.5383 103.427 45.5383 102.68C45.5596 101.912 45.5809 101.229 45.6023 100.632C45.6663 99.4587 45.8903 98.3707 46.2743 97.368C46.6796 96.344 47.2556 95.4587 48.0023 94.712C48.7703 93.944 49.7089 93.3467 50.8183 92.92C51.9489 92.4933 53.2609 92.28 54.7543 92.28C56.2689 92.28 57.5809 92.4933 58.6903 92.92C59.8209 93.3467 60.7596 93.944 61.5063 94.712C62.2529 95.4587 62.8289 96.344 63.2343 97.368C63.6396 98.3707 63.8743 99.4587 63.9383 100.632C63.9596 101.229 63.9703 101.912 63.9703 102.68C63.9916 103.427 63.9916 104.173 63.9703 104.92C63.9703 105.645 63.9596 106.296 63.9383 106.872C63.8743 108.045 63.6396 109.144 63.2343 110.168C62.8503 111.192 62.2849 112.088 61.5382 112.856C60.8129 113.624 59.8849 114.232 58.7543 114.68C57.6449 115.107 56.3116 115.32 54.7543 115.32ZM54.7543 110.68C55.8636 110.68 56.6636 110.328 57.1543 109.624C57.6663 108.899 57.9329 107.928 57.9543 106.712C57.9969 106.093 58.0183 105.443 58.0183 104.76C58.0396 104.077 58.0396 103.395 58.0183 102.712C58.0183 102.029 57.9969 101.4 57.9543 100.824C57.9329 99.6507 57.6663 98.7013 57.1543 97.976C56.6636 97.2507 55.8636 96.8773 54.7543 96.856C53.6663 96.8773 52.8663 97.2507 52.3542 97.976C51.8636 98.7013 51.5969 99.6507 51.5543 100.824C51.5543 101.4 51.5436 102.029 51.5223 102.712C51.5223 103.395 51.5223 104.077 51.5223 104.76C51.5436 105.443 51.5543 106.093 51.5543 106.712C51.5969 107.928 51.8743 108.899 52.3863 109.624C52.8983 110.328 53.6876 110.68 54.7543 110.68ZM76.5043 115.32C74.9683 115.32 73.6349 115.107 72.5043 114.68C71.3949 114.232 70.4669 113.624 69.7203 112.856C68.9736 112.088 68.4083 111.192 68.0243 110.168C67.6403 109.144 67.4163 108.045 67.3523 106.872C67.3309 106.296 67.3096 105.645 67.2883 104.92C67.2883 104.173 67.2883 103.427 67.2883 102.68C67.3096 101.912 67.3309 101.229 67.3523 100.632C67.4163 99.4587 67.6403 98.3707 68.0243 97.368C68.4296 96.344 69.0056 95.4587 69.7523 94.712C70.5203 93.944 71.4589 93.3467 72.5683 92.92C73.6989 92.4933 75.0109 92.28 76.5043 92.28C78.0189 92.28 79.3309 92.4933 80.4403 92.92C81.5709 93.3467 82.5096 93.944 83.2563 94.712C84.0029 95.4587 84.5789 96.344 84.9843 97.368C85.3896 98.3707 85.6243 99.4587 85.6883 100.632C85.7096 101.229 85.7203 101.912 85.7203 102.68C85.7416 103.427 85.7416 104.173 85.7203 104.92C85.7203 105.645 85.7096 106.296 85.6883 106.872C85.6243 108.045 85.3896 109.144 84.9843 110.168C84.6003 111.192 84.0349 112.088 83.2882 112.856C82.5629 113.624 81.6349 114.232 80.5043 114.68C79.3949 115.107 78.0616 115.32 76.5043 115.32ZM76.5043 110.68C77.6136 110.68 78.4136 110.328 78.9043 109.624C79.4163 108.899 79.6829 107.928 79.7043 106.712C79.7469 106.093 79.7683 105.443 79.7683 104.76C79.7896 104.077 79.7896 103.395 79.7683 102.712C79.7683 102.029 79.7469 101.4 79.7043 100.824C79.6829 99.6507 79.4163 98.7013 78.9043 97.976C78.4136 97.2507 77.6136 96.8773 76.5043 96.856C75.4163 96.8773 74.6163 97.2507 74.1042 97.976C73.6136 98.7013 73.3469 99.6507 73.3043 100.824C73.3043 101.4 73.2936 102.029 73.2723 102.712C73.2723 103.395 73.2723 104.077 73.2723 104.76C73.2936 105.443 73.3043 106.093 73.3043 106.712C73.3469 107.928 73.6243 108.899 74.1363 109.624C74.6483 110.328 75.4376 110.68 76.5043 110.68ZM98.2543 115.32C96.7183 115.32 95.3849 115.107 94.2543 114.68C93.1449 114.232 92.2169 113.624 91.4703 112.856C90.7236 112.088 90.1583 111.192 89.7743 110.168C89.3903 109.144 89.1663 108.045 89.1023 106.872C89.0809 106.296 89.0596 105.645 89.0383 104.92C89.0383 104.173 89.0383 103.427 89.0383 102.68C89.0596 101.912 89.0809 101.229 89.1023 100.632C89.1663 99.4587 89.3903 98.3707 89.7743 97.368C90.1796 96.344 90.7556 95.4587 91.5023 94.712C92.2703 93.944 93.2089 93.3467 94.3183 92.92C95.4489 92.4933 96.7609 92.28 98.2543 92.28C99.7689 92.28 101.081 92.4933 102.19 92.92C103.321 93.3467 104.26 93.944 105.006 94.712C105.753 95.4587 106.329 96.344 106.734 97.368C107.14 98.3707 107.374 99.4587 107.438 100.632C107.46 101.229 107.47 101.912 107.47 102.68C107.492 103.427 107.492 104.173 107.47 104.92C107.47 105.645 107.46 106.296 107.438 106.872C107.374 108.045 107.14 109.144 106.734 110.168C106.35 111.192 105.785 112.088 105.038 112.856C104.313 113.624 103.385 114.232 102.254 114.68C101.145 115.107 99.8116 115.32 98.2543 115.32ZM98.2543 110.68C99.3636 110.68 100.164 110.328 100.654 109.624C101.166 108.899 101.433 107.928 101.454 106.712C101.497 106.093 101.518 105.443 101.518 104.76C101.54 104.077 101.54 103.395 101.518 102.712C101.518 102.029 101.497 101.4 101.454 100.824C101.433 99.6507 101.166 98.7013 100.654 97.976C100.164 97.2507 99.3636 96.8773 98.2543 96.856C97.1663 96.8773 96.3663 97.2507 95.8542 97.976C95.3636 98.7013 95.0969 99.6507 95.0543 100.824C95.0543 101.4 95.0436 102.029 95.0223 102.712C95.0223 103.395 95.0223 104.077 95.0223 104.76C95.0436 105.443 95.0543 106.093 95.0543 106.712C95.0969 107.928 95.3743 108.899 95.8863 109.624C96.3983 110.328 97.1876 110.68 98.2543 110.68ZM117.572 113.944C117.338 113.944 117.146 113.869 116.996 113.72C116.847 113.549 116.772 113.357 116.772 113.144V107.288H111.076C110.842 107.288 110.639 107.213 110.468 107.064C110.319 106.915 110.244 106.723 110.244 106.488V104.152C110.244 103.917 110.319 103.725 110.468 103.576C110.639 103.405 110.842 103.32 111.076 103.32H116.772V97.656C116.772 97.4213 116.847 97.2293 116.996 97.08C117.146 96.9307 117.338 96.856 117.572 96.856H120.196C120.41 96.856 120.591 96.9307 120.74 97.08C120.911 97.2293 120.996 97.4213 120.996 97.656V103.32H126.66C126.895 103.32 127.087 103.405 127.236 103.576C127.386 103.725 127.46 103.917 127.46 104.152V106.488C127.46 106.723 127.386 106.915 127.236 107.064C127.087 107.213 126.895 107.288 126.66 107.288H120.996V113.144C120.996 113.357 120.911 113.549 120.74 113.72C120.591 113.869 120.41 113.944 120.196 113.944H117.572Z" fill="#1C3554"/>
<path fill-rule="evenodd" clip-rule="evenodd" d="M78.0001 61.3333C61.7997 61.3333 48.6667 48.2004 48.6667 32C48.6667 15.7997 61.7997 2.66667 78.0001 2.66667C94.2004 2.66667 107.333 15.7997 107.333 32C107.333 48.2004 94.2004 61.3333 78.0001 61.3333ZM97.7321 45.6657C100.423 41.7875 102 37.0779 102 32C102 18.7452 91.2549 8 78.0001 8C64.7452 8 54.0001 18.7452 54.0001 32C54.0001 37.0779 55.5771 41.7875 58.2681 45.6657C61.2693 41.7015 68.3217 40 78.0001 40C87.6785 40 94.7309 41.7015 97.7321 45.6657ZM93.9059 49.9727C93.1254 47.1663 87.5184 45.3333 78.0001 45.3333C68.4817 45.3333 62.8748 47.1663 62.0943 49.9727C66.3289 53.7231 71.8986 56 78.0001 56C84.1016 56 89.6713 53.7231 93.9059 49.9727ZM78.0001 40C72.0291 40 67.3334 35.8063 67.3334 26.6667C67.3334 20.682 71.5443 16 78.0001 16C84.4379 16 88.6667 21.1242 88.6667 27.2C88.6667 35.9456 83.915 40 78.0001 40ZM72.6667 26.6667C72.6667 32.718 74.8486 34.6667 78.0001 34.6667C81.1406 34.6667 83.3334 32.7957 83.3334 27.2C83.3334 23.8678 81.2418 21.3333 78.0001 21.3333C74.6234 21.3333 72.6667 23.5089 72.6667 26.6667Z" fill="#F72585"/>
</svg>
