<svg width="109" height="168" viewBox="0 0 109 168" fill="none" xmlns="http://www.w3.org/2000/svg">
<path d="M3.72 149.584C3.688 150.304 3.672 150.976 3.672 151.6C3.672 152.224 3.688 152.896 3.72 153.616C3.768 154.944 4.168 156.024 4.92 156.856C5.688 157.672 6.784 158.08 8.208 158.08C8.976 158.08 9.624 157.984 10.152 157.792C10.68 157.6 11.112 157.352 11.448 157.048C11.8 156.744 12.064 156.4 12.24 156.016C12.432 155.616 12.576 155.216 12.672 154.816C12.704 154.64 12.784 154.512 12.912 154.432C13.04 154.336 13.168 154.288 13.296 154.288H14.4C14.544 154.288 14.664 154.344 14.76 154.456C14.872 154.552 14.928 154.672 14.928 154.816C14.912 155.344 14.776 155.92 14.52 156.544C14.264 157.168 13.864 157.76 13.32 158.32C12.792 158.864 12.104 159.32 11.256 159.688C10.424 160.056 9.408 160.24 8.208 160.24C7.168 160.24 6.24 160.08 5.424 159.76C4.608 159.424 3.904 158.968 3.312 158.392C2.736 157.816 2.288 157.136 1.968 156.352C1.648 155.552 1.472 154.68 1.44 153.736C1.392 152.312 1.392 150.888 1.44 149.464C1.472 148.536 1.648 147.672 1.968 146.872C2.288 146.072 2.736 145.384 3.312 144.808C3.904 144.232 4.608 143.784 5.424 143.464C6.24 143.128 7.168 142.96 8.208 142.96C9.408 142.96 10.424 143.144 11.256 143.512C12.104 143.88 12.792 144.344 13.32 144.904C13.864 145.448 14.264 146.032 14.52 146.656C14.776 147.28 14.912 147.856 14.928 148.384C14.928 148.528 14.872 148.656 14.76 148.768C14.664 148.864 14.544 148.912 14.4 148.912H13.296C13.168 148.912 13.04 148.872 12.912 148.792C12.784 148.696 12.704 148.56 12.672 148.384C12.576 147.984 12.432 147.592 12.24 147.208C12.064 146.808 11.8 146.456 11.448 146.152C11.112 145.848 10.68 145.6 10.152 145.408C9.624 145.216 8.976 145.12 8.208 145.12C6.784 145.12 5.688 145.536 4.92 146.368C4.168 147.184 3.768 148.256 3.72 149.584ZM22.9198 147.28C23.7838 147.28 24.5518 147.416 25.2238 147.688C25.8958 147.944 26.4718 148.304 26.9518 148.768C27.4318 149.232 27.8078 149.8 28.0798 150.472C28.3678 151.128 28.5438 151.848 28.6078 152.632C28.6238 152.776 28.6318 152.952 28.6318 153.16C28.6318 153.352 28.6318 153.56 28.6318 153.784C28.6318 153.992 28.6318 154.2 28.6318 154.408C28.6318 154.6 28.6238 154.76 28.6078 154.888C28.5278 155.688 28.3518 156.416 28.0798 157.072C27.8078 157.728 27.4318 158.288 26.9518 158.752C26.4718 159.216 25.8958 159.584 25.2238 159.856C24.5518 160.112 23.7838 160.24 22.9198 160.24C22.0558 160.24 21.2878 160.112 20.6158 159.856C19.9438 159.584 19.3678 159.216 18.8878 158.752C18.4078 158.288 18.0238 157.728 17.7358 157.072C17.4638 156.416 17.2958 155.688 17.2318 154.888C17.2158 154.76 17.1998 154.6 17.1838 154.408C17.1838 154.2 17.1838 153.992 17.1838 153.784C17.1838 153.56 17.1838 153.352 17.1838 153.16C17.1998 152.952 17.2158 152.776 17.2318 152.632C17.2958 151.848 17.4638 151.128 17.7358 150.472C18.0238 149.8 18.4078 149.232 18.8878 148.768C19.3678 148.304 19.9438 147.944 20.6158 147.688C21.2878 147.416 22.0558 147.28 22.9198 147.28ZM26.4238 154.768C26.4558 154.496 26.4718 154.168 26.4718 153.784C26.4718 153.384 26.4558 153.04 26.4238 152.752C26.3758 152.272 26.2718 151.824 26.1118 151.408C25.9518 150.992 25.7278 150.632 25.4398 150.328C25.1518 150.024 24.7998 149.784 24.3838 149.608C23.9678 149.432 23.4798 149.344 22.9198 149.344C22.3598 149.344 21.8718 149.432 21.4558 149.608C21.0398 149.784 20.6878 150.024 20.3998 150.328C20.1118 150.632 19.8878 150.992 19.7278 151.408C19.5678 151.824 19.4638 152.272 19.4158 152.752C19.3838 153.04 19.3678 153.384 19.3678 153.784C19.3678 154.168 19.3838 154.496 19.4158 154.768C19.4638 155.248 19.5678 155.696 19.7278 156.112C19.8878 156.528 20.1118 156.888 20.3998 157.192C20.6878 157.496 21.0398 157.736 21.4558 157.912C21.8718 158.088 22.3598 158.176 22.9198 158.176C23.4798 158.176 23.9678 158.088 24.3838 157.912C24.7998 157.736 25.1518 157.496 25.4398 157.192C25.7278 156.888 25.9518 156.528 26.1118 156.112C26.2718 155.696 26.3758 155.248 26.4238 154.768ZM31.5394 148.168C31.5394 147.992 31.6034 147.84 31.7314 147.712C31.8594 147.584 32.0114 147.52 32.1874 147.52H33.0754C33.2514 147.52 33.4034 147.584 33.5314 147.712C33.6594 147.84 33.7234 147.992 33.7234 148.168V154.504C33.7234 155.736 33.9954 156.656 34.5394 157.264C35.0994 157.872 35.9074 158.176 36.9634 158.176C37.9714 158.176 38.7634 157.872 39.3394 157.264C39.9154 156.656 40.2034 155.736 40.2034 154.504V148.168C40.2034 147.992 40.2674 147.84 40.3954 147.712C40.5234 147.584 40.6754 147.52 40.8514 147.52H41.7394C41.9154 147.52 42.0674 147.584 42.1954 147.712C42.3234 147.84 42.3874 147.992 42.3874 148.168V159.352C42.3874 159.528 42.3234 159.68 42.1954 159.808C42.0674 159.936 41.9154 160 41.7394 160H40.8514C40.6754 160 40.5234 159.936 40.3954 159.808C40.2674 159.68 40.2034 159.528 40.2034 159.352V158.608C39.8994 159.008 39.4674 159.384 38.9074 159.736C38.3474 160.072 37.5794 160.24 36.6034 160.24C35.8514 160.24 35.1634 160.12 34.5394 159.88C33.9154 159.624 33.3794 159.272 32.9314 158.824C32.4834 158.36 32.1394 157.8 31.8994 157.144C31.6594 156.472 31.5394 155.712 31.5394 154.864V148.168ZM57.0677 159.352C57.0677 159.528 57.0037 159.68 56.8757 159.808C56.7477 159.936 56.5957 160 56.4197 160H55.5317C55.3557 160 55.2037 159.936 55.0757 159.808C54.9477 159.68 54.8837 159.528 54.8837 159.352V153.016C54.8837 151.784 54.5877 150.864 53.9957 150.256C53.4037 149.648 52.5797 149.344 51.5237 149.344C50.5157 149.344 49.6997 149.648 49.0757 150.256C48.4677 150.864 48.1637 151.784 48.1637 153.016V159.352C48.1637 159.528 48.0997 159.68 47.9717 159.808C47.8437 159.936 47.6917 160 47.5157 160H46.6277C46.4517 160 46.2997 159.936 46.1717 159.808C46.0437 159.68 45.9797 159.528 45.9797 159.352V148.168C45.9797 147.992 46.0437 147.84 46.1717 147.712C46.2997 147.584 46.4517 147.52 46.6277 147.52H47.5157C47.6917 147.52 47.8437 147.584 47.9717 147.712C48.0997 147.84 48.1637 147.992 48.1637 148.168V148.912C48.4677 148.512 48.9157 148.144 49.5077 147.808C50.1157 147.456 50.9077 147.28 51.8837 147.28C52.6357 147.28 53.3317 147.408 53.9717 147.664C54.6117 147.904 55.1557 148.256 55.6037 148.72C56.0677 149.168 56.4277 149.728 56.6837 150.4C56.9397 151.072 57.0677 151.824 57.0677 152.656V159.352ZM63.6343 155.8C63.6343 156.104 63.6583 156.392 63.7063 156.664C63.7703 156.92 63.8743 157.144 64.0183 157.336C64.1623 157.528 64.3623 157.68 64.6183 157.792C64.8903 157.888 65.2343 157.936 65.6503 157.936H66.9223C67.0983 157.936 67.2503 158 67.3783 158.128C67.5063 158.256 67.5703 158.408 67.5703 158.584V159.352C67.5703 159.528 67.5063 159.68 67.3783 159.808C67.2503 159.936 67.0983 160 66.9223 160H65.4103C64.0183 160 63.0103 159.64 62.3863 158.92C61.7623 158.2 61.4503 157.16 61.4503 155.8V149.584H59.6743C59.4983 149.584 59.3463 149.52 59.2183 149.392C59.0903 149.264 59.0263 149.112 59.0263 148.936V148.168C59.0263 147.992 59.0903 147.84 59.2183 147.712C59.3463 147.584 59.4983 147.52 59.6743 147.52H61.4503V143.608C61.4503 143.432 61.5143 143.28 61.6423 143.152C61.7703 143.024 61.9223 142.96 62.0983 142.96H62.9863C63.1623 142.96 63.3143 143.024 63.4423 143.152C63.5703 143.28 63.6343 143.432 63.6343 143.608V147.52H66.6823C66.8583 147.52 67.0103 147.584 67.1383 147.712C67.2663 147.84 67.3303 147.992 67.3303 148.168V148.936C67.3303 149.112 67.2663 149.264 67.1383 149.392C67.0103 149.52 66.8583 149.584 66.6823 149.584H63.6343V155.8ZM76.3157 147.52C76.4917 147.52 76.6437 147.584 76.7717 147.712C76.8997 147.84 76.9637 147.992 76.9637 148.168V148.936C76.9637 149.112 76.8997 149.264 76.7717 149.392C76.6437 149.52 76.4917 149.584 76.3157 149.584H74.9237C73.0837 149.584 72.1637 150.504 72.1637 152.344V159.352C72.1637 159.528 72.0997 159.68 71.9717 159.808C71.8437 159.936 71.6917 160 71.5157 160H70.6277C70.4517 160 70.2997 159.936 70.1717 159.808C70.0437 159.68 69.9797 159.528 69.9797 159.352V148.168C69.9797 147.992 70.0437 147.84 70.1717 147.712C70.2997 147.584 70.4517 147.52 70.6277 147.52H71.5157C71.6917 147.52 71.8437 147.584 71.9717 147.712C72.0997 147.84 72.1637 147.992 72.1637 148.168V148.912C72.4837 148.432 72.8677 148.08 73.3157 147.856C73.7637 147.632 74.3477 147.52 75.0677 147.52H76.3157ZM81.234 159.352C81.234 159.528 81.17 159.68 81.042 159.808C80.914 159.936 80.762 160 80.586 160H79.698C79.522 160 79.37 159.936 79.242 159.808C79.114 159.68 79.05 159.528 79.05 159.352V148.168C79.05 147.992 79.114 147.84 79.242 147.712C79.37 147.584 79.522 147.52 79.698 147.52H80.586C80.762 147.52 80.914 147.584 81.042 147.712C81.17 147.84 81.234 147.992 81.234 148.168V159.352ZM81.474 144.976C81.474 145.152 81.41 145.304 81.282 145.432C81.154 145.56 81.002 145.624 80.826 145.624H79.458C79.282 145.624 79.13 145.56 79.002 145.432C78.874 145.304 78.81 145.152 78.81 144.976V143.608C78.81 143.432 78.874 143.28 79.002 143.152C79.13 143.024 79.282 142.96 79.458 142.96H80.826C81.002 142.96 81.154 143.024 81.282 143.152C81.41 143.28 81.474 143.432 81.474 143.608V144.976ZM84.2631 152.56C84.3271 151.824 84.5031 151.136 84.7911 150.496C85.0791 149.856 85.4551 149.296 85.9191 148.816C86.3831 148.336 86.9351 147.96 87.5751 147.688C88.2311 147.416 88.9591 147.28 89.7591 147.28C90.6231 147.28 91.3911 147.424 92.0631 147.712C92.7511 147.984 93.3351 148.384 93.8151 148.912C94.2951 149.44 94.6631 150.08 94.9191 150.832C95.1751 151.584 95.3031 152.424 95.3031 153.352V154C95.3031 154.176 95.2391 154.328 95.1111 154.456C94.9831 154.584 94.8311 154.648 94.6551 154.648H86.3991V154.792C86.4311 155.88 86.7591 156.72 87.3831 157.312C88.0231 157.888 88.8151 158.176 89.7591 158.176C90.6391 158.176 91.2951 158.056 91.7271 157.816C92.1751 157.56 92.5351 157.28 92.8071 156.976C92.9351 156.848 93.0471 156.76 93.1431 156.712C93.2391 156.664 93.3831 156.64 93.5751 156.64H94.2951C94.4711 156.64 94.6311 156.704 94.7751 156.832C94.9191 156.96 94.9751 157.112 94.9431 157.288C94.8951 157.576 94.7591 157.896 94.5351 158.248C94.3111 158.584 93.9831 158.904 93.5511 159.208C93.1351 159.496 92.6071 159.744 91.9671 159.952C91.3431 160.144 90.6071 160.24 89.7591 160.24C88.9591 160.24 88.2391 160.104 87.5991 159.832C86.9591 159.544 86.3991 159.16 85.9191 158.68C85.4551 158.184 85.0791 157.608 84.7911 156.952C84.5031 156.28 84.3271 155.552 84.2631 154.768C84.1831 154.032 84.1831 153.296 84.2631 152.56ZM86.3991 152.632H93.1431V152.56C93.1431 151.584 92.8311 150.808 92.2071 150.232C91.5991 149.64 90.7831 149.344 89.7591 149.344C89.2951 149.344 88.8631 149.424 88.4631 149.584C88.0631 149.728 87.7111 149.944 87.4071 150.232C87.1031 150.504 86.8631 150.84 86.6871 151.24C86.5111 151.64 86.4151 152.08 86.3991 152.56V152.632ZM105.302 156.544C105.302 156.24 105.214 155.992 105.038 155.8C104.878 155.592 104.63 155.416 104.294 155.272C103.958 155.128 103.526 154.992 102.998 154.864C102.486 154.736 101.886 154.6 101.198 154.456C99.9024 154.184 98.9904 153.736 98.4624 153.112C97.9504 152.472 97.6944 151.728 97.6944 150.88C97.6944 150.4 97.7904 149.944 97.9824 149.512C98.1744 149.08 98.4624 148.696 98.8464 148.36C99.2304 148.024 99.7104 147.76 100.286 147.568C100.878 147.376 101.566 147.28 102.35 147.28C103.134 147.28 103.814 147.368 104.39 147.544C104.982 147.72 105.478 147.944 105.878 148.216C106.278 148.488 106.582 148.784 106.79 149.104C106.998 149.408 107.11 149.704 107.126 149.992C107.142 150.168 107.078 150.32 106.934 150.448C106.806 150.576 106.654 150.64 106.478 150.64H105.686C105.59 150.64 105.47 150.624 105.326 150.592C105.198 150.544 105.078 150.448 104.966 150.304C104.758 150.032 104.446 149.808 104.03 149.632C103.63 149.44 103.07 149.344 102.35 149.344C101.614 149.344 101.014 149.48 100.55 149.752C100.102 150.024 99.8784 150.4 99.8784 150.88C99.8784 151.184 99.9424 151.432 100.07 151.624C100.198 151.8 100.406 151.96 100.694 152.104C100.982 152.232 101.358 152.352 101.822 152.464C102.302 152.576 102.894 152.712 103.598 152.872C104.334 153.032 104.95 153.24 105.446 153.496C105.942 153.736 106.342 154.016 106.646 154.336C106.95 154.64 107.166 154.984 107.294 155.368C107.422 155.736 107.486 156.128 107.486 156.544C107.486 157.024 107.366 157.488 107.126 157.936C106.902 158.384 106.574 158.776 106.142 159.112C105.71 159.448 105.182 159.72 104.558 159.928C103.95 160.136 103.254 160.24 102.47 160.24C101.686 160.24 100.99 160.144 100.382 159.952C99.7744 159.76 99.2544 159.528 98.8224 159.256C98.3904 158.968 98.0544 158.664 97.8144 158.344C97.5904 158.008 97.4704 157.696 97.4544 157.408C97.4384 157.232 97.4944 157.08 97.6224 156.952C97.7504 156.824 97.9104 156.76 98.1024 156.76H98.9664C99.0624 156.76 99.1744 156.776 99.3024 156.808C99.4304 156.824 99.5504 156.912 99.6624 157.072C99.9184 157.424 100.27 157.696 100.718 157.888C101.166 158.08 101.75 158.176 102.47 158.176C102.822 158.176 103.166 158.136 103.502 158.056C103.854 157.976 104.158 157.864 104.414 157.72C104.686 157.576 104.902 157.408 105.062 157.216C105.222 157.008 105.302 156.784 105.302 156.544Z" fill="#1C3554"/>
<path d="M33.864 115C33.6507 115 33.4587 114.925 33.288 114.776C33.1387 114.605 33.064 114.413 33.064 114.2V98.968L28.68 102.328C28.488 102.477 28.2853 102.531 28.072 102.488C27.88 102.445 27.7093 102.328 27.56 102.136L25.672 99.672C25.544 99.48 25.4907 99.2773 25.512 99.064C25.5547 98.8293 25.6827 98.648 25.896 98.52L33.256 92.824C33.384 92.7387 33.5013 92.6853 33.608 92.664C33.736 92.6213 33.8747 92.6 34.024 92.6H38.024C38.2587 92.6 38.4507 92.6747 38.6 92.824C38.7493 92.9733 38.824 93.1653 38.824 93.4V114.2C38.824 114.413 38.7493 114.605 38.6 114.776C38.4507 114.925 38.2587 115 38.024 115H33.864ZM51.7223 115.32C50.1436 115.32 48.7569 115.139 47.5623 114.776C46.3889 114.392 45.4183 113.88 44.6503 113.24C43.8823 112.6 43.3063 111.853 42.9223 111C42.5383 110.147 42.3463 109.24 42.3463 108.28C42.3463 107.107 42.6343 106.072 43.2103 105.176C43.8076 104.28 44.5543 103.587 45.4503 103.096C44.7036 102.605 44.1276 101.997 43.7223 101.272C43.3383 100.525 43.1463 99.6613 43.1463 98.68C43.1463 97.4853 43.4556 96.408 44.0743 95.448C44.6929 94.488 45.6316 93.72 46.8903 93.144C48.1489 92.568 49.7596 92.28 51.7223 92.28C53.6636 92.28 55.2636 92.568 56.5223 93.144C57.7809 93.6987 58.7089 94.456 59.3063 95.416C59.9249 96.376 60.2343 97.4533 60.2343 98.648C60.2343 99.608 60.0423 100.472 59.6583 101.24C59.2743 101.987 58.7196 102.605 57.9943 103.096C58.9543 103.565 59.7116 104.259 60.2663 105.176C60.8423 106.093 61.1303 107.139 61.1303 108.312C61.1303 109.592 60.7783 110.765 60.0743 111.832C59.3916 112.899 58.3569 113.752 56.9703 114.392C55.5836 115.011 53.8343 115.32 51.7223 115.32ZM51.7223 111.224C52.4049 111.224 53.0129 111.107 53.5463 110.872C54.1009 110.637 54.5383 110.307 54.8583 109.88C55.1783 109.432 55.3383 108.899 55.3383 108.28C55.3383 107.661 55.1783 107.139 54.8583 106.712C54.5383 106.285 54.1009 105.955 53.5463 105.72C53.0129 105.485 52.4049 105.368 51.7223 105.368C51.0396 105.368 50.4209 105.485 49.8663 105.72C49.3116 105.955 48.8743 106.285 48.5543 106.712C48.2343 107.139 48.0743 107.661 48.0743 108.28C48.0743 108.899 48.2343 109.432 48.5543 109.88C48.8743 110.307 49.3116 110.637 49.8663 110.872C50.4209 111.107 51.0396 111.224 51.7223 111.224ZM51.7223 101.496C52.3196 101.496 52.8636 101.389 53.3543 101.176C53.8449 100.941 54.2289 100.643 54.5063 100.28C54.7836 99.896 54.9223 99.448 54.9223 98.936C54.9223 98.424 54.7836 97.976 54.5063 97.592C54.2503 97.208 53.8769 96.9093 53.3863 96.696C52.8956 96.4827 52.3409 96.376 51.7223 96.376C51.1036 96.376 50.5489 96.4827 50.0583 96.696C49.5889 96.9093 49.2156 97.208 48.9383 97.592C48.6609 97.976 48.5223 98.424 48.5223 98.936C48.5223 99.448 48.6609 99.896 48.9383 100.28C49.2156 100.664 49.5889 100.963 50.0583 101.176C50.5489 101.389 51.1036 101.496 51.7223 101.496ZM73.4105 115.32C71.8745 115.32 70.5412 115.107 69.4105 114.68C68.3012 114.232 67.3732 113.624 66.6265 112.856C65.8798 112.088 65.3145 111.192 64.9305 110.168C64.5465 109.144 64.3225 108.045 64.2585 106.872C64.2372 106.296 64.2158 105.645 64.1945 104.92C64.1945 104.173 64.1945 103.427 64.1945 102.68C64.2158 101.912 64.2372 101.229 64.2585 100.632C64.3225 99.4587 64.5465 98.3707 64.9305 97.368C65.3358 96.344 65.9118 95.4587 66.6585 94.712C67.4265 93.944 68.3652 93.3467 69.4745 92.92C70.6052 92.4933 71.9172 92.28 73.4105 92.28C74.9252 92.28 76.2372 92.4933 77.3465 92.92C78.4772 93.3467 79.4158 93.944 80.1625 94.712C80.9092 95.4587 81.4852 96.344 81.8905 97.368C82.2958 98.3707 82.5305 99.4587 82.5945 100.632C82.6158 101.229 82.6265 101.912 82.6265 102.68C82.6478 103.427 82.6478 104.173 82.6265 104.92C82.6265 105.645 82.6158 106.296 82.5945 106.872C82.5305 108.045 82.2958 109.144 81.8905 110.168C81.5065 111.192 80.9412 112.088 80.1945 112.856C79.4692 113.624 78.5412 114.232 77.4105 114.68C76.3012 115.107 74.9678 115.32 73.4105 115.32ZM73.4105 110.68C74.5198 110.68 75.3198 110.328 75.8105 109.624C76.3225 108.899 76.5892 107.928 76.6105 106.712C76.6532 106.093 76.6745 105.443 76.6745 104.76C76.6958 104.077 76.6958 103.395 76.6745 102.712C76.6745 102.029 76.6532 101.4 76.6105 100.824C76.5892 99.6507 76.3225 98.7013 75.8105 97.976C75.3198 97.2507 74.5198 96.8773 73.4105 96.856C72.3225 96.8773 71.5225 97.2507 71.0105 97.976C70.5198 98.7013 70.2532 99.6507 70.2105 100.824C70.2105 101.4 70.1998 102.029 70.1785 102.712C70.1785 103.395 70.1785 104.077 70.1785 104.76C70.1998 105.443 70.2105 106.093 70.2105 106.712C70.2532 107.928 70.5305 108.899 71.0425 109.624C71.5545 110.328 72.3438 110.68 73.4105 110.68Z" fill="#1C3554"/>
<path fill-rule="evenodd" clip-rule="evenodd" d="M54.9599 16L56.0266 21.3333H69.9999V37.3333H61.0399L59.9733 32H40.6666V16H54.9599ZM59.3333 10.6667H35.3333V56H40.6666V37.3333H55.5999L56.6666 42.6667H75.3333V16H60.3999L59.3333 10.6667Z" fill="#F72585"/>
</svg>
