<svg width="610" height="152" viewBox="0 0 610 152" fill="none" xmlns="http://www.w3.org/2000/svg">
<path d="M381.094 143.46L383.712 140.968C385.07 139.694 385.336 138.826 385.336 137.874C385.336 136.138 383.964 135.06 381.836 135.06C380.226 135.06 378.868 135.662 378.112 136.684L379.386 137.664C379.932 136.964 380.73 136.642 381.682 136.642C382.886 136.642 383.502 137.16 383.502 138.056C383.502 138.602 383.334 139.176 382.382 140.086L378.49 143.782V145H385.714V143.46H381.094ZM386.26 135.2V136.726H388.332V145H390.152V135.2H386.26ZM405.038 145L402.784 141.78C404.114 141.262 404.87 140.17 404.87 138.686C404.87 136.516 403.274 135.2 400.698 135.2H396.666V145H398.486V142.144H400.698C400.824 142.144 400.95 142.144 401.076 142.13L403.078 145H405.038ZM403.036 138.686C403.036 139.918 402.21 140.646 400.614 140.646H398.486V136.74H400.614C402.21 136.74 403.036 137.454 403.036 138.686ZM413.766 141.304C413.766 138.966 412.17 137.44 409.986 137.44C407.76 137.44 406.122 139.036 406.122 141.262C406.122 143.488 407.746 145.098 410.252 145.098C411.54 145.098 412.59 144.678 413.262 143.88L412.324 142.802C411.792 143.348 411.134 143.614 410.294 143.614C408.992 143.614 408.082 142.914 407.872 141.822H413.738C413.752 141.654 413.766 141.444 413.766 141.304ZM409.986 138.84C411.134 138.84 411.96 139.582 412.1 140.66H407.858C408.026 139.568 408.852 138.84 409.986 138.84ZM420.63 137.524L418.236 143.068L415.912 137.524H414.092L417.298 145H419.104L422.31 137.524H420.63ZM424.286 136.292C424.944 136.292 425.406 135.816 425.406 135.2C425.406 134.626 424.93 134.192 424.286 134.192C423.642 134.192 423.166 134.654 423.166 135.242C423.166 135.83 423.642 136.292 424.286 136.292ZM423.404 145H425.154V137.524H423.404V145ZM434.479 141.304C434.479 138.966 432.883 137.44 430.699 137.44C428.473 137.44 426.835 139.036 426.835 141.262C426.835 143.488 428.459 145.098 430.965 145.098C432.253 145.098 433.303 144.678 433.975 143.88L433.037 142.802C432.505 143.348 431.847 143.614 431.007 143.614C429.705 143.614 428.795 142.914 428.585 141.822H434.451C434.465 141.654 434.479 141.444 434.479 141.304ZM430.699 138.84C431.847 138.84 432.673 139.582 432.813 140.66H428.571C428.739 139.568 429.565 138.84 430.699 138.84ZM446.131 137.524L444.101 143.068L442.085 137.524H440.615L438.557 143.04L436.583 137.524H434.931L437.675 145H439.355L441.315 139.848L443.247 145H444.927L447.685 137.524H446.131ZM451.103 145.098C453.203 145.098 454.491 144.188 454.491 142.788C454.491 139.862 449.871 141.206 449.871 139.694C449.871 139.204 450.375 138.854 451.439 138.854C452.153 138.854 452.867 138.994 453.581 139.414L454.253 138.084C453.581 137.678 452.447 137.44 451.453 137.44C449.437 137.44 448.163 138.364 448.163 139.778C448.163 142.76 452.783 141.416 452.783 142.844C452.783 143.362 452.321 143.67 451.215 143.67C450.277 143.67 449.269 143.362 448.611 142.928L447.939 144.258C448.611 144.734 449.857 145.098 451.103 145.098Z" fill="#1C3554"/>
<path fill-rule="evenodd" clip-rule="evenodd" d="M266 144.859L270.944 148L269.632 142.08L274 138.097L268.248 137.583L266 132L263.752 137.583L258 138.097L262.368 142.08L261.056 148L266 144.859Z" fill="#FAA307"/>
<path fill-rule="evenodd" clip-rule="evenodd" d="M290 144.859L294.944 148L293.632 142.08L298 138.097L292.248 137.583L290 132L287.752 137.583L282 138.097L286.368 142.08L285.056 148L290 144.859Z" stroke="#FAA307"/>
<path fill-rule="evenodd" clip-rule="evenodd" d="M314 144.859L318.944 148L317.632 142.08L322 138.097L316.248 137.583L314 132L311.752 137.583L306 138.097L310.368 142.08L309.056 148L314 144.859Z" stroke="#FAA307"/>
<path fill-rule="evenodd" clip-rule="evenodd" d="M338 144.859L342.944 148L341.632 142.08L346 138.097L340.248 137.583L338 132L335.752 137.583L330 138.097L334.368 142.08L333.056 148L338 144.859Z" stroke="#FAA307"/>
<path fill-rule="evenodd" clip-rule="evenodd" d="M362 144.859L366.944 148L365.632 142.08L370 138.097L364.248 137.583L362 132L359.752 137.583L354 138.097L358.368 142.08L357.056 148L362 144.859Z" stroke="#FAA307"/>
<rect y="135" width="242" height="10" rx="5" fill="#E6E6E6"/>
<rect y="135" width="132" height="10" rx="5" fill="#FAA307"/>
<path fill-rule="evenodd" clip-rule="evenodd" d="M298 112.859L302.944 116L301.632 110.08L306 106.097L300.248 105.583L298 100L295.752 105.583L290 106.097L294.368 110.08L293.056 116L298 112.859Z" fill="#FAA307"/>
<path fill-rule="evenodd" clip-rule="evenodd" d="M322 112.859L326.944 116L325.632 110.08L330 106.097L324.248 105.583L322 100L319.752 105.583L314 106.097L318.368 110.08L317.056 116L322 112.859Z" fill="#FAA307"/>
<path fill-rule="evenodd" clip-rule="evenodd" d="M346 112.859L350.944 116L349.632 110.08L354 106.097L348.248 105.583L346 100L343.752 105.583L338 106.097L342.368 110.08L341.056 116L346 112.859Z" stroke="#FAA307"/>
<path fill-rule="evenodd" clip-rule="evenodd" d="M370 112.859L374.944 116L373.632 110.08L378 106.097L372.248 105.583L370 100L367.752 105.583L362 106.097L366.368 110.08L365.056 116L370 112.859Z" stroke="#FAA307"/>
<path fill-rule="evenodd" clip-rule="evenodd" d="M394 112.859L398.944 116L397.632 110.08L402 106.097L396.248 105.583L394 100L391.752 105.583L386 106.097L390.368 110.08L389.056 116L394 112.859Z" stroke="#FAA307"/>
<path d="M413.682 106.994H412.744L412.954 104.726H417.168V103.2H411.414L410.91 108.534H413.276C415.306 108.534 415.908 109.122 415.908 110.06C415.908 110.984 415.138 111.558 413.836 111.558C412.73 111.558 411.666 111.18 410.952 110.592L410.182 112.006C411.078 112.72 412.478 113.14 413.864 113.14C416.496 113.14 417.742 111.712 417.742 109.99C417.742 108.254 416.58 106.994 413.682 106.994ZM418.288 103.2V104.726H420.36V113H422.18V103.2H418.288ZM437.065 113L434.811 109.78C436.141 109.262 436.897 108.17 436.897 106.686C436.897 104.516 435.301 103.2 432.725 103.2H428.693V113H430.513V110.144H432.725C432.851 110.144 432.977 110.144 433.103 110.13L435.105 113H437.065ZM435.063 106.686C435.063 107.918 434.237 108.646 432.641 108.646H430.513V104.74H432.641C434.237 104.74 435.063 105.454 435.063 106.686ZM445.793 109.304C445.793 106.966 444.197 105.44 442.013 105.44C439.787 105.44 438.149 107.036 438.149 109.262C438.149 111.488 439.773 113.098 442.279 113.098C443.567 113.098 444.617 112.678 445.289 111.88L444.351 110.802C443.819 111.348 443.161 111.614 442.321 111.614C441.019 111.614 440.109 110.914 439.899 109.822H445.765C445.779 109.654 445.793 109.444 445.793 109.304ZM442.013 106.84C443.161 106.84 443.987 107.582 444.127 108.66H439.885C440.053 107.568 440.879 106.84 442.013 106.84ZM452.657 105.524L450.263 111.068L447.939 105.524H446.119L449.325 113H451.131L454.337 105.524H452.657ZM456.313 104.292C456.971 104.292 457.433 103.816 457.433 103.2C457.433 102.626 456.957 102.192 456.313 102.192C455.669 102.192 455.193 102.654 455.193 103.242C455.193 103.83 455.669 104.292 456.313 104.292ZM455.431 113H457.181V105.524H455.431V113ZM466.506 109.304C466.506 106.966 464.91 105.44 462.726 105.44C460.5 105.44 458.862 107.036 458.862 109.262C458.862 111.488 460.486 113.098 462.992 113.098C464.28 113.098 465.33 112.678 466.002 111.88L465.064 110.802C464.532 111.348 463.874 111.614 463.034 111.614C461.732 111.614 460.822 110.914 460.612 109.822H466.478C466.492 109.654 466.506 109.444 466.506 109.304ZM462.726 106.84C463.874 106.84 464.7 107.582 464.84 108.66H460.598C460.766 107.568 461.592 106.84 462.726 106.84ZM478.158 105.524L476.128 111.068L474.112 105.524H472.642L470.584 111.04L468.61 105.524H466.958L469.702 113H471.382L473.342 107.848L475.274 113H476.954L479.712 105.524H478.158ZM483.13 113.098C485.23 113.098 486.518 112.188 486.518 110.788C486.518 107.862 481.898 109.206 481.898 107.694C481.898 107.204 482.402 106.854 483.466 106.854C484.18 106.854 484.894 106.994 485.608 107.414L486.28 106.084C485.608 105.678 484.474 105.44 483.48 105.44C481.464 105.44 480.19 106.364 480.19 107.778C480.19 110.76 484.81 109.416 484.81 110.844C484.81 111.362 484.348 111.67 483.242 111.67C482.304 111.67 481.296 111.362 480.638 110.928L479.966 112.258C480.638 112.734 481.884 113.098 483.13 113.098Z" fill="#1C3554"/>
<rect y="103" width="274" height="10" rx="5" fill="#E6E6E6"/>
<rect y="103" width="175" height="10" rx="5" fill="#FAA307"/>
<path d="M439.112 71.2V72.726H441.184V81H443.004V71.2H439.112ZM448.014 74.994H447.076L447.286 72.726H451.5V71.2H445.746L445.242 76.534H447.608C449.638 76.534 450.24 77.122 450.24 78.06C450.24 78.984 449.47 79.558 448.168 79.558C447.062 79.558 445.998 79.18 445.284 78.592L444.514 80.006C445.41 80.72 446.81 81.14 448.196 81.14C450.828 81.14 452.074 79.712 452.074 77.99C452.074 76.254 450.912 74.994 448.014 74.994ZM452.62 71.2V72.726H454.692V81H456.512V71.2H452.62ZM471.397 81L469.143 77.78C470.473 77.262 471.229 76.17 471.229 74.686C471.229 72.516 469.633 71.2 467.057 71.2H463.025V81H464.845V78.144H467.057C467.183 78.144 467.309 78.144 467.435 78.13L469.437 81H471.397ZM469.395 74.686C469.395 75.918 468.569 76.646 466.973 76.646H464.845V72.74H466.973C468.569 72.74 469.395 73.454 469.395 74.686ZM480.125 77.304C480.125 74.966 478.529 73.44 476.345 73.44C474.119 73.44 472.481 75.036 472.481 77.262C472.481 79.488 474.105 81.098 476.611 81.098C477.899 81.098 478.949 80.678 479.621 79.88L478.683 78.802C478.151 79.348 477.493 79.614 476.653 79.614C475.351 79.614 474.441 78.914 474.231 77.822H480.097C480.111 77.654 480.125 77.444 480.125 77.304ZM476.345 74.84C477.493 74.84 478.319 75.582 478.459 76.66H474.217C474.385 75.568 475.211 74.84 476.345 74.84ZM486.989 73.524L484.595 79.068L482.271 73.524H480.451L483.657 81H485.463L488.669 73.524H486.989ZM490.645 72.292C491.303 72.292 491.765 71.816 491.765 71.2C491.765 70.626 491.289 70.192 490.645 70.192C490.001 70.192 489.525 70.654 489.525 71.242C489.525 71.83 490.001 72.292 490.645 72.292ZM489.763 81H491.513V73.524H489.763V81ZM500.838 77.304C500.838 74.966 499.242 73.44 497.058 73.44C494.832 73.44 493.194 75.036 493.194 77.262C493.194 79.488 494.818 81.098 497.324 81.098C498.612 81.098 499.662 80.678 500.334 79.88L499.396 78.802C498.864 79.348 498.206 79.614 497.366 79.614C496.064 79.614 495.154 78.914 494.944 77.822H500.81C500.824 77.654 500.838 77.444 500.838 77.304ZM497.058 74.84C498.206 74.84 499.032 75.582 499.172 76.66H494.93C495.098 75.568 495.924 74.84 497.058 74.84ZM512.49 73.524L510.46 79.068L508.444 73.524H506.974L504.916 79.04L502.942 73.524H501.29L504.034 81H505.714L507.674 75.848L509.606 81H511.286L514.044 73.524H512.49ZM517.462 81.098C519.562 81.098 520.85 80.188 520.85 78.788C520.85 75.862 516.23 77.206 516.23 75.694C516.23 75.204 516.734 74.854 517.798 74.854C518.512 74.854 519.226 74.994 519.94 75.414L520.612 74.084C519.94 73.678 518.806 73.44 517.812 73.44C515.796 73.44 514.522 74.364 514.522 75.778C514.522 78.76 519.142 77.416 519.142 78.844C519.142 79.362 518.68 79.67 517.574 79.67C516.636 79.67 515.628 79.362 514.97 78.928L514.298 80.258C514.97 80.734 516.216 81.098 517.462 81.098Z" fill="#1C3554"/>
<path fill-rule="evenodd" clip-rule="evenodd" d="M327 80.859L331.944 84L330.632 78.08L335 74.0969L329.248 73.5832L327 68L324.752 73.5832L319 74.0969L323.368 78.08L322.056 84L327 80.859Z" fill="#FAA307"/>
<path fill-rule="evenodd" clip-rule="evenodd" d="M351 80.859L355.944 84L354.632 78.08L359 74.0969L353.248 73.5832L351 68L348.752 73.5832L343 74.0969L347.368 78.08L346.056 84L351 80.859Z" fill="#FAA307"/>
<path fill-rule="evenodd" clip-rule="evenodd" d="M375 80.859L379.944 84L378.632 78.08L383 74.0969L377.248 73.5832L375 68L372.752 73.5832L367 74.0969L371.368 78.08L370.056 84L375 80.859Z" fill="#FAA307"/>
<path fill-rule="evenodd" clip-rule="evenodd" d="M399 80.859L403.944 84L402.632 78.08L407 74.0969L401.248 73.5832L399 68L396.752 73.5832L391 74.0969L395.368 78.08L394.056 84L399 80.859Z" stroke="#FAA307"/>
<path fill-rule="evenodd" clip-rule="evenodd" d="M423 80.859L427.944 84L426.632 78.08L431 74.0969L425.248 73.5832L423 68L420.752 73.5832L415 74.0969L419.368 78.08L418.056 84L423 80.859Z" stroke="#FAA307"/>
<rect y="71" width="303" height="10" rx="5" fill="#E6E6E6"/>
<rect y="71" width="211" height="10" rx="5" fill="#FAA307"/>
<path d="M490.094 47.46L492.712 44.968C494.07 43.694 494.336 42.826 494.336 41.874C494.336 40.138 492.964 39.06 490.836 39.06C489.226 39.06 487.868 39.662 487.112 40.684L488.386 41.664C488.932 40.964 489.73 40.642 490.682 40.642C491.886 40.642 492.502 41.16 492.502 42.056C492.502 42.602 492.334 43.176 491.382 44.086L487.49 47.782V49H494.714V47.46H490.094ZM495.26 39.2V40.726H497.332V49H499.152V39.2H495.26ZM509.832 45.234H508.096V43.26H506.388V45.234H503.182L507.732 39.2H505.786L500.956 45.514V46.774H506.332V49H508.096V46.774H509.832V45.234ZM523.54 49L521.286 45.78C522.616 45.262 523.372 44.17 523.372 42.686C523.372 40.516 521.776 39.2 519.2 39.2H515.168V49H516.988V46.144H519.2C519.326 46.144 519.452 46.144 519.578 46.13L521.58 49H523.54ZM521.538 42.686C521.538 43.918 520.712 44.646 519.116 44.646H516.988V40.74H519.116C520.712 40.74 521.538 41.454 521.538 42.686ZM532.268 45.304C532.268 42.966 530.672 41.44 528.488 41.44C526.262 41.44 524.624 43.036 524.624 45.262C524.624 47.488 526.248 49.098 528.754 49.098C530.042 49.098 531.092 48.678 531.764 47.88L530.826 46.802C530.294 47.348 529.636 47.614 528.796 47.614C527.494 47.614 526.584 46.914 526.374 45.822H532.24C532.254 45.654 532.268 45.444 532.268 45.304ZM528.488 42.84C529.636 42.84 530.462 43.582 530.602 44.66H526.36C526.528 43.568 527.354 42.84 528.488 42.84ZM539.132 41.524L536.738 47.068L534.414 41.524H532.594L535.8 49H537.606L540.812 41.524H539.132ZM542.788 40.292C543.446 40.292 543.908 39.816 543.908 39.2C543.908 38.626 543.432 38.192 542.788 38.192C542.144 38.192 541.668 38.654 541.668 39.242C541.668 39.83 542.144 40.292 542.788 40.292ZM541.906 49H543.656V41.524H541.906V49ZM552.981 45.304C552.981 42.966 551.385 41.44 549.201 41.44C546.975 41.44 545.337 43.036 545.337 45.262C545.337 47.488 546.961 49.098 549.467 49.098C550.755 49.098 551.805 48.678 552.477 47.88L551.539 46.802C551.007 47.348 550.349 47.614 549.509 47.614C548.207 47.614 547.297 46.914 547.087 45.822H552.953C552.967 45.654 552.981 45.444 552.981 45.304ZM549.201 42.84C550.349 42.84 551.175 43.582 551.315 44.66H547.073C547.241 43.568 548.067 42.84 549.201 42.84ZM564.633 41.524L562.603 47.068L560.587 41.524H559.117L557.059 47.04L555.085 41.524H553.433L556.177 49H557.857L559.817 43.848L561.749 49H563.429L566.187 41.524H564.633ZM569.604 49.098C571.704 49.098 572.992 48.188 572.992 46.788C572.992 43.862 568.372 45.206 568.372 43.694C568.372 43.204 568.876 42.854 569.94 42.854C570.654 42.854 571.368 42.994 572.082 43.414L572.754 42.084C572.082 41.678 570.948 41.44 569.954 41.44C567.938 41.44 566.664 42.364 566.664 43.778C566.664 46.76 571.284 45.416 571.284 46.844C571.284 47.362 570.822 47.67 569.716 47.67C568.778 47.67 567.77 47.362 567.112 46.928L566.44 48.258C567.112 48.734 568.358 49.098 569.604 49.098Z" fill="#1C3554"/>
<path fill-rule="evenodd" clip-rule="evenodd" d="M375 48.859L379.944 52L378.632 46.08L383 42.0969L377.248 41.5832L375 36L372.752 41.5832L367 42.0969L371.368 46.08L370.056 52L375 48.859Z" fill="#FAA307"/>
<path fill-rule="evenodd" clip-rule="evenodd" d="M399 48.859L403.944 52L402.632 46.08L407 42.0969L401.248 41.5832L399 36L396.752 41.5832L391 42.0969L395.368 46.08L394.056 52L399 48.859Z" fill="#FAA307"/>
<path fill-rule="evenodd" clip-rule="evenodd" d="M423 48.859L427.944 52L426.632 46.08L431 42.0969L425.248 41.5832L423 36L420.752 41.5832L415 42.0969L419.368 46.08L418.056 52L423 48.859Z" fill="#FAA307"/>
<path fill-rule="evenodd" clip-rule="evenodd" d="M447 48.859L451.944 52L450.632 46.08L455 42.0969L449.248 41.5832L447 36L444.752 41.5832L439 42.0969L443.368 46.08L442.056 52L447 48.859Z" fill="#FAA307"/>
<path fill-rule="evenodd" clip-rule="evenodd" d="M471 48.859L475.944 52L474.632 46.08L479 42.0969L473.248 41.5832L471 36L468.752 41.5832L463 42.0969L467.368 46.08L466.056 52L471 48.859Z" stroke="#FAA307"/>
<rect y="39" width="351" height="10" rx="5" fill="#E6E6E6"/>
<rect y="39" width="252" height="10" rx="5" fill="#FAA307"/>
<path d="M522.682 10.994H521.744L521.954 8.726H526.168V7.2H520.414L519.91 12.534H522.276C524.306 12.534 524.908 13.122 524.908 14.06C524.908 14.984 524.138 15.558 522.836 15.558C521.73 15.558 520.666 15.18 519.952 14.592L519.182 16.006C520.078 16.72 521.478 17.14 522.864 17.14C525.496 17.14 526.742 15.712 526.742 13.99C526.742 12.254 525.58 10.994 522.682 10.994ZM531.88 17.14C534.218 17.14 535.982 15.32 535.982 12.1C535.982 8.88 534.218 7.06 531.88 7.06C529.556 7.06 527.792 8.88 527.792 12.1C527.792 15.32 529.556 17.14 531.88 17.14ZM531.88 15.558C530.55 15.558 529.626 14.466 529.626 12.1C529.626 9.734 530.55 8.642 531.88 8.642C533.224 8.642 534.148 9.734 534.148 12.1C534.148 14.466 533.224 15.558 531.88 15.558ZM541.3 17.14C543.638 17.14 545.402 15.32 545.402 12.1C545.402 8.88 543.638 7.06 541.3 7.06C538.976 7.06 537.212 8.88 537.212 12.1C537.212 15.32 538.976 17.14 541.3 17.14ZM541.3 15.558C539.97 15.558 539.046 14.466 539.046 12.1C539.046 9.734 539.97 8.642 541.3 8.642C542.644 8.642 543.568 9.734 543.568 12.1C543.568 14.466 542.644 15.558 541.3 15.558ZM559.573 17L557.319 13.78C558.649 13.262 559.405 12.17 559.405 10.686C559.405 8.516 557.809 7.2 555.233 7.2H551.201V17H553.021V14.144H555.233C555.359 14.144 555.485 14.144 555.611 14.13L557.613 17H559.573ZM557.571 10.686C557.571 11.918 556.745 12.646 555.149 12.646H553.021V8.74H555.149C556.745 8.74 557.571 9.454 557.571 10.686ZM568.301 13.304C568.301 10.966 566.705 9.44 564.521 9.44C562.295 9.44 560.657 11.036 560.657 13.262C560.657 15.488 562.281 17.098 564.787 17.098C566.075 17.098 567.125 16.678 567.797 15.88L566.859 14.802C566.327 15.348 565.669 15.614 564.829 15.614C563.527 15.614 562.617 14.914 562.407 13.822H568.273C568.287 13.654 568.301 13.444 568.301 13.304ZM564.521 10.84C565.669 10.84 566.495 11.582 566.635 12.66H562.393C562.561 11.568 563.387 10.84 564.521 10.84ZM575.165 9.524L572.771 15.068L570.447 9.524H568.627L571.833 17H573.639L576.845 9.524H575.165ZM578.821 8.292C579.479 8.292 579.941 7.816 579.941 7.2C579.941 6.626 579.465 6.192 578.821 6.192C578.177 6.192 577.701 6.654 577.701 7.242C577.701 7.83 578.177 8.292 578.821 8.292ZM577.939 17H579.689V9.524H577.939V17ZM589.014 13.304C589.014 10.966 587.418 9.44 585.234 9.44C583.008 9.44 581.37 11.036 581.37 13.262C581.37 15.488 582.994 17.098 585.5 17.098C586.788 17.098 587.838 16.678 588.51 15.88L587.572 14.802C587.04 15.348 586.382 15.614 585.542 15.614C584.24 15.614 583.33 14.914 583.12 13.822H588.986C589 13.654 589.014 13.444 589.014 13.304ZM585.234 10.84C586.382 10.84 587.208 11.582 587.348 12.66H583.106C583.274 11.568 584.1 10.84 585.234 10.84ZM600.666 9.524L598.636 15.068L596.62 9.524H595.15L593.092 15.04L591.118 9.524H589.466L592.21 17H593.89L595.85 11.848L597.782 17H599.462L602.22 9.524H600.666ZM605.638 17.098C607.738 17.098 609.026 16.188 609.026 14.788C609.026 11.862 604.406 13.206 604.406 11.694C604.406 11.204 604.91 10.854 605.974 10.854C606.688 10.854 607.402 10.994 608.116 11.414L608.788 10.084C608.116 9.678 606.982 9.44 605.988 9.44C603.972 9.44 602.698 10.364 602.698 11.778C602.698 14.76 607.318 13.416 607.318 14.844C607.318 15.362 606.856 15.67 605.75 15.67C604.812 15.67 603.804 15.362 603.146 14.928L602.474 16.258C603.146 16.734 604.392 17.098 605.638 17.098Z" fill="#1C3554"/>
<path fill-rule="evenodd" clip-rule="evenodd" d="M407 16.859L411.944 20L410.632 14.08L415 10.0969L409.248 9.58317L407 4L404.752 9.58317L399 10.0969L403.368 14.08L402.056 20L407 16.859Z" fill="#FAA307"/>
<path fill-rule="evenodd" clip-rule="evenodd" d="M431 16.859L435.944 20L434.632 14.08L439 10.0969L433.248 9.58317L431 4L428.752 9.58317L423 10.0969L427.368 14.08L426.056 20L431 16.859Z" fill="#FAA307"/>
<path fill-rule="evenodd" clip-rule="evenodd" d="M455 16.859L459.944 20L458.632 14.08L463 10.0969L457.248 9.58317L455 4L452.752 9.58317L447 10.0969L451.368 14.08L450.056 20L455 16.859Z" fill="#FAA307"/>
<path fill-rule="evenodd" clip-rule="evenodd" d="M479 16.859L483.944 20L482.632 14.08L487 10.0969L481.248 9.58317L479 4L476.752 9.58317L471 10.0969L475.368 14.08L474.056 20L479 16.859Z" fill="#FAA307"/>
<path fill-rule="evenodd" clip-rule="evenodd" d="M503 16.859L507.944 20L506.632 14.08L511 10.0969L505.248 9.58317L503 4L500.752 9.58317L495 10.0969L499.368 14.08L498.056 20L503 16.859Z" fill="#FAA307"/>
<rect y="7" width="383" height="10" rx="5" fill="#E6E6E6"/>
<rect y="7" width="298" height="10" rx="5" fill="#FAA307"/>
</svg>
