<svg width="194" height="24" viewBox="0 0 194 24" fill="none" xmlns="http://www.w3.org/2000/svg">
<path d="M120.682 10.994H119.744L119.954 8.726H124.168V7.2H118.414L117.91 12.534H120.276C122.306 12.534 122.908 13.122 122.908 14.06C122.908 14.984 122.138 15.558 120.836 15.558C119.73 15.558 118.666 15.18 117.952 14.592L117.182 16.006C118.078 16.72 119.478 17.14 120.864 17.14C123.496 17.14 124.742 15.712 124.742 13.99C124.742 12.254 123.58 10.994 120.682 10.994ZM139.629 9.44C138.439 9.44 137.431 9.916 136.829 10.686C136.311 9.846 135.401 9.44 134.309 9.44C133.287 9.44 132.419 9.804 131.859 10.476V9.524H130.193V17H131.943V13.206C131.943 11.722 132.727 10.966 133.889 10.966C134.953 10.966 135.569 11.61 135.569 12.94V17H137.319V13.206C137.319 11.722 138.117 10.966 139.265 10.966C140.329 10.966 140.945 11.61 140.945 12.94V17H142.695V12.716C142.695 10.462 141.435 9.44 139.629 9.44ZM145.813 8.292C146.471 8.292 146.933 7.816 146.933 7.2C146.933 6.626 146.457 6.192 145.813 6.192C145.169 6.192 144.693 6.654 144.693 7.242C144.693 7.83 145.169 8.292 145.813 8.292ZM144.931 17H146.681V9.524H144.931V17ZM153.22 9.44C152.128 9.44 151.218 9.804 150.644 10.49V9.524H148.978V17H150.728V13.22C150.728 11.722 151.568 10.966 152.814 10.966C153.934 10.966 154.592 11.61 154.592 12.94V17H156.342V12.716C156.342 10.462 155.012 9.44 153.22 9.44ZM164.097 10.616V9.524H162.431V17H164.181V13.374C164.181 11.848 165.021 11.064 166.351 11.064C166.477 11.064 166.603 11.078 166.757 11.106V9.44C165.511 9.44 164.601 9.832 164.097 10.616ZM175.201 13.304C175.201 10.966 173.605 9.44 171.421 9.44C169.195 9.44 167.557 11.036 167.557 13.262C167.557 15.488 169.181 17.098 171.687 17.098C172.975 17.098 174.025 16.678 174.697 15.88L173.759 14.802C173.227 15.348 172.569 15.614 171.729 15.614C170.427 15.614 169.517 14.914 169.307 13.822H175.173C175.187 13.654 175.201 13.444 175.201 13.304ZM171.421 10.84C172.569 10.84 173.395 11.582 173.535 12.66H169.293C169.461 11.568 170.287 10.84 171.421 10.84ZM179.533 9.44C178.329 9.44 177.167 9.748 176.369 10.364L177.055 11.638C177.615 11.176 178.483 10.896 179.323 10.896C180.569 10.896 181.185 11.498 181.185 12.52V12.632H179.253C176.985 12.632 176.145 13.612 176.145 14.858C176.145 16.16 177.223 17.098 178.931 17.098C180.051 17.098 180.863 16.734 181.283 16.09V17H182.935V12.618C182.935 10.462 181.689 9.44 179.533 9.44ZM179.295 15.824C178.399 15.824 177.867 15.418 177.867 14.788C177.867 14.242 178.189 13.794 179.379 13.794H181.185V14.662C180.891 15.432 180.149 15.824 179.295 15.824ZM190.822 6.612V10.448C190.234 9.762 189.38 9.44 188.414 9.44C186.244 9.44 184.634 10.938 184.634 13.262C184.634 15.586 186.244 17.098 188.414 17.098C189.436 17.098 190.304 16.748 190.892 16.034V17H192.572V6.612H190.822ZM188.624 15.6C187.364 15.6 186.398 14.69 186.398 13.262C186.398 11.834 187.364 10.924 188.624 10.924C189.884 10.924 190.85 11.834 190.85 13.262C190.85 14.69 189.884 15.6 188.624 15.6Z" fill="#808080"/>
<circle cx="97" cy="12" r="4" fill="#4586D6"/>
<path d="M4.788 11.246L7.168 8.418V7.2H0.49V8.726H4.942L2.716 11.372V12.618H3.612C5.096 12.618 5.74 13.192 5.74 14.074C5.74 14.984 4.97 15.558 3.668 15.558C2.562 15.558 1.498 15.18 0.798 14.592L0.014 16.006C0.924 16.72 2.31 17.14 3.696 17.14C6.328 17.14 7.574 15.712 7.574 14.06C7.574 12.59 6.636 11.484 4.788 11.246ZM24.0576 17L24.0436 7.2H22.5456L18.7236 13.696L14.8316 7.2H13.3336V17H15.0696V10.588L18.2896 15.88H19.1016L22.3216 10.504L22.3356 17H24.0576ZM29.3927 9.44C28.1887 9.44 27.0267 9.748 26.2287 10.364L26.9147 11.638C27.4747 11.176 28.3427 10.896 29.1827 10.896C30.4287 10.896 31.0447 11.498 31.0447 12.52V12.632H29.1127C26.8447 12.632 26.0047 13.612 26.0047 14.858C26.0047 16.16 27.0827 17.098 28.7907 17.098C29.9107 17.098 30.7227 16.734 31.1427 16.09V17H32.7947V12.618C32.7947 10.462 31.5487 9.44 29.3927 9.44ZM29.1547 15.824C28.2587 15.824 27.7267 15.418 27.7267 14.788C27.7267 14.242 28.0487 13.794 29.2387 13.794H31.0447V14.662C30.7507 15.432 30.0087 15.824 29.1547 15.824ZM40.2239 9.524L37.8579 15.054L35.5059 9.524H33.6859L36.9479 17.028L36.8219 17.322C36.4859 18.064 36.1219 18.358 35.5059 18.358C35.0299 18.358 34.5539 18.162 34.2179 17.84L33.5179 19.128C33.9939 19.562 34.7779 19.814 35.5199 19.814C36.7659 19.814 37.7179 19.296 38.4039 17.602L41.9039 9.524H40.2239ZM48.8128 15.46L51.4308 12.968C52.7887 11.694 53.0548 10.826 53.0548 9.874C53.0548 8.138 51.6828 7.06 49.5548 7.06C47.9448 7.06 46.5868 7.662 45.8308 8.684L47.1048 9.664C47.6508 8.964 48.4488 8.642 49.4008 8.642C50.6048 8.642 51.2208 9.16 51.2208 10.056C51.2208 10.602 51.0528 11.176 50.1008 12.086L46.2088 15.782V17H53.4327V15.46H48.8128ZM58.5302 17.14C60.8682 17.14 62.6322 15.32 62.6322 12.1C62.6322 8.88 60.8682 7.06 58.5302 7.06C56.2062 7.06 54.4422 8.88 54.4422 12.1C54.4422 15.32 56.2062 17.14 58.5302 17.14ZM58.5302 15.558C57.2002 15.558 56.2762 14.466 56.2762 12.1C56.2762 9.734 57.2002 8.642 58.5302 8.642C59.8742 8.642 60.7982 9.734 60.7982 12.1C60.7982 14.466 59.8742 15.558 58.5302 15.558ZM66.2717 15.46L68.8897 12.968C70.2477 11.694 70.5137 10.826 70.5137 9.874C70.5137 8.138 69.1417 7.06 67.0137 7.06C65.4037 7.06 64.0457 7.662 63.2897 8.684L64.5637 9.664C65.1097 8.964 65.9077 8.642 66.8597 8.642C68.0637 8.642 68.6797 9.16 68.6797 10.056C68.6797 10.602 68.5117 11.176 67.5597 12.086L63.6677 15.782V17H70.8917V15.46H66.2717ZM71.4382 7.2V8.726H73.5102V17H75.3302V7.2H71.4382Z" fill="#808080"/>
</svg>
