<svg width="816" height="104" viewBox="0 0 816 104" fill="none" xmlns="http://www.w3.org/2000/svg">
<path fill-rule="evenodd" clip-rule="evenodd" d="M802.895 57.9298L802.895 57.9294C802.768 57.5953 802.638 57.2514 802.591 57.1262C802.575 57.0829 802.56 57.0409 802.545 57H807.667C810.783 57 812.667 54.8041 812.667 52C812.667 42.094 810.592 35.3333 806 35.3333C806 35.3333 794.372 35.3337 794.332 35.3328C793.235 35.3131 791.842 35.4674 790.439 35.9697C789.825 36.1892 789.261 36.4622 788.755 36.7895C788.155 35.9104 787.145 35.3333 786 35.3333H782.667C780.826 35.3333 779.333 36.8257 779.333 38.6666V53.6666C779.333 55.5076 780.826 57 782.667 57H786C786.331 57 786.65 56.9518 786.951 56.8622C788.113 58.5534 791.051 61.9108 793.412 64.6083C794.692 66.0709 795.802 67.3396 796.367 68.0435L796.867 68.6666H797.679C798.691 68.6668 799.57 68.5899 800.58 68.2958C802.82 67.6438 804.333 66.12 804.333 63.6666C804.333 62.7998 804.18 61.8756 803.897 60.8497C803.71 60.171 803.479 59.4857 803.162 58.6351C803.116 58.5135 803.007 58.2255 802.895 57.9298ZM789.333 53.6666V42C789.333 40.4962 790.087 39.6358 791.561 39.1082C792.518 38.766 793.542 38.6525 794.276 38.6656C800.12 38.6663 801.838 38.6665 803.556 38.6666L806 38.6666C807.692 38.6666 809.333 44.0154 809.333 52C809.333 53.0668 808.819 53.6666 807.667 53.6666H801C799.009 53.6666 798.593 55.206 799.008 56.8728C799.105 57.2649 799.248 57.6963 799.465 58.2824C799.517 58.4231 799.658 58.7941 799.789 59.1398L799.79 59.142L799.791 59.1446C799.898 59.4264 799.998 59.6906 800.038 59.7989C800.324 60.566 800.527 61.1673 800.684 61.7356C800.893 62.4961 801 63.139 801 63.6666C801 64.4182 800.604 64.8173 799.649 65.0954C799.247 65.2122 798.852 65.2766 798.433 65.3081C797.556 64.2597 796.3 62.8269 795.008 61.3522C792.503 58.4947 789.861 55.48 789.57 54.8C789.407 54.4214 789.333 54.067 789.333 53.6666ZM782.667 53.6666V38.6666H786V53.6666H782.667Z" fill="#1C3554"/>
<path fill-rule="evenodd" clip-rule="evenodd" d="M740.667 51.9985C740.667 49.1943 738.783 46.9985 735.667 46.9985H730.545C730.56 46.9575 730.575 46.9155 730.591 46.8722C730.638 46.7469 730.768 46.4028 730.895 46.0685C731.007 45.7728 731.116 45.4849 731.162 45.3633C731.479 44.5127 731.71 43.8274 731.897 43.1487C732.18 42.1228 732.333 41.1986 732.333 40.3318C732.333 37.8784 730.82 36.3547 728.58 35.7026C727.57 35.4085 726.691 35.3316 725.667 35.3318H724.867L724.367 35.9549C723.802 36.6589 722.692 37.9275 721.412 39.3901C719.05 42.0883 716.112 45.4466 714.951 47.1375C714.649 47.048 714.33 46.9999 714 46.9999H710.667C708.826 46.9999 707.333 48.4923 707.333 50.3333V65.3333C707.333 67.1742 708.826 68.6666 710.667 68.6666H714C715.145 68.6666 716.156 68.0891 716.756 67.2094C717.261 67.5364 717.825 67.8094 718.439 68.0288C719.842 68.531 721.235 68.6853 722.391 68.6641L734 68.6651C738.592 68.6651 740.667 61.9044 740.667 51.9985ZM719.561 64.8903C718.087 64.3626 717.333 63.5022 717.333 61.9985V50.3333V50.3318C717.333 49.9315 717.407 49.577 717.57 49.1984C717.861 48.5185 720.503 45.5037 723.008 42.6463C724.3 41.1715 725.556 39.7387 726.433 38.6903C726.852 38.7218 727.247 38.7862 727.649 38.903C728.604 39.1811 729 39.5802 729 40.3318C729 40.8594 728.893 41.5023 728.684 42.2628C728.527 42.8311 728.324 43.4324 728.038 44.1996C727.998 44.3084 727.896 44.5751 727.789 44.8586C727.658 45.2044 727.517 45.5753 727.465 45.716C727.248 46.3021 727.105 46.7336 727.008 47.1256C726.593 48.7924 727.009 50.3318 729 50.3318H735.667C736.819 50.3318 737.333 50.9316 737.333 51.9985C737.333 59.983 735.692 65.3318 734 65.3318H722.333L722.272 65.3328C721.542 65.3459 720.518 65.2324 719.561 64.8903ZM710.667 65.3333V50.3333H714V65.3333H710.667Z" fill="#1C3554"/>
<path d="M129.536 92.24L132.528 89.392C134.08 87.936 134.384 86.944 134.384 85.856C134.384 83.872 132.816 82.64 130.384 82.64C128.544 82.64 126.992 83.328 126.128 84.496L127.584 85.616C128.208 84.816 129.12 84.448 130.208 84.448C131.584 84.448 132.288 85.04 132.288 86.064C132.288 86.688 132.096 87.344 131.008 88.384L126.56 92.608V94H134.816V92.24H129.536ZM151.83 85.36C150.47 85.36 149.318 85.904 148.63 86.784C148.038 85.824 146.998 85.36 145.75 85.36C144.582 85.36 143.59 85.776 142.95 86.544V85.456H141.046V94H143.046V89.664C143.046 87.968 143.942 87.104 145.27 87.104C146.486 87.104 147.19 87.84 147.19 89.36V94H149.19V89.664C149.19 87.968 150.102 87.104 151.414 87.104C152.63 87.104 153.334 87.84 153.334 89.36V94H155.334V89.104C155.334 86.528 153.894 85.36 151.83 85.36ZM161.808 94.112C164.464 94.112 166.368 92.288 166.368 89.728C166.368 87.168 164.464 85.36 161.808 85.36C159.184 85.36 157.264 87.168 157.264 89.728C157.264 92.288 159.184 94.112 161.808 94.112ZM161.808 92.4C160.368 92.4 159.28 91.36 159.28 89.728C159.28 88.096 160.368 87.056 161.808 87.056C163.264 87.056 164.352 88.096 164.352 89.728C164.352 91.36 163.264 92.4 161.808 92.4ZM173.129 85.36C171.881 85.36 170.841 85.776 170.185 86.56V85.456H168.281V94H170.281V89.68C170.281 87.968 171.241 87.104 172.665 87.104C173.945 87.104 174.697 87.84 174.697 89.36V94H176.697V89.104C176.697 86.528 175.177 85.36 173.129 85.36ZM183.81 92.112C183.506 92.352 183.106 92.464 182.69 92.464C181.922 92.464 181.506 92.016 181.506 91.184V87.12H183.794V85.52H181.506V83.568H179.506V85.52H178.098V87.12H179.506V91.232C179.506 93.12 180.578 94.112 182.45 94.112C183.17 94.112 183.89 93.92 184.37 93.536L183.81 92.112ZM190.863 85.36C189.679 85.36 188.671 85.744 188.015 86.448V82.128H186.015V94H188.015V89.68C188.015 87.968 188.975 87.104 190.399 87.104C191.679 87.104 192.431 87.84 192.431 89.36V94H194.431V89.104C194.431 86.528 192.911 85.36 190.863 85.36ZM204.654 85.36C203.278 85.36 201.95 85.712 201.038 86.416L201.822 87.872C202.462 87.344 203.454 87.024 204.414 87.024C205.838 87.024 206.542 87.712 206.542 88.88V89.008H204.334C201.742 89.008 200.782 90.128 200.782 91.552C200.782 93.04 202.014 94.112 203.966 94.112C205.246 94.112 206.174 93.696 206.654 92.96V94H208.542V88.992C208.542 86.528 207.118 85.36 204.654 85.36ZM204.382 92.656C203.358 92.656 202.75 92.192 202.75 91.472C202.75 90.848 203.118 90.336 204.478 90.336H206.542V91.328C206.206 92.208 205.358 92.656 204.382 92.656ZM217.763 85.456V86.592C217.059 85.744 216.003 85.36 214.803 85.36C212.355 85.36 210.483 86.992 210.483 89.472C210.483 91.952 212.355 93.616 214.803 93.616C215.955 93.616 216.963 93.248 217.667 92.48V92.928C217.667 94.656 216.835 95.52 214.947 95.52C213.763 95.52 212.547 95.12 211.795 94.496L210.899 96C211.875 96.8 213.459 97.216 215.059 97.216C218.051 97.216 219.667 95.808 219.667 92.704V85.456H217.763ZM215.107 91.92C213.587 91.92 212.499 90.928 212.499 89.472C212.499 88.032 213.587 87.056 215.107 87.056C216.611 87.056 217.699 88.032 217.699 89.472C217.699 90.928 216.611 91.92 215.107 91.92ZM226.136 94.112C228.792 94.112 230.696 92.288 230.696 89.728C230.696 87.168 228.792 85.36 226.136 85.36C223.512 85.36 221.592 87.168 221.592 89.728C221.592 92.288 223.512 94.112 226.136 94.112ZM226.136 92.4C224.696 92.4 223.608 91.36 223.608 89.728C223.608 88.096 224.696 87.056 226.136 87.056C227.592 87.056 228.68 88.096 228.68 89.728C228.68 91.36 227.592 92.4 226.136 92.4Z" fill="#808080"/>
<path fill-rule="evenodd" clip-rule="evenodd" d="M138 59.2884L145.416 64L143.448 55.12L150 49.1453L141.372 48.3747L138 40L134.628 48.3747L126 49.1453L132.552 55.12L130.584 64L138 59.2884Z" fill="#FAA307"/>
<path fill-rule="evenodd" clip-rule="evenodd" d="M170 59.2884L177.416 64L175.448 55.12L182 49.1453L173.372 48.3747L170 40L166.628 48.3747L158 49.1453L164.552 55.12L162.584 64L170 59.2884Z" fill="#FAA307"/>
<path fill-rule="evenodd" clip-rule="evenodd" d="M202 59.2884L209.416 64L207.448 55.12L214 49.1453L205.372 48.3747L202 40L198.628 48.3747L190 49.1453L196.552 55.12L194.584 64L202 59.2884Z" fill="#FAA307"/>
<path fill-rule="evenodd" clip-rule="evenodd" d="M234 59.2884L241.416 64L239.448 55.12L246 49.1453L237.372 48.3747L234 40L230.628 48.3747L222 49.1453L228.552 55.12L226.584 64L234 59.2884Z" fill="#FAA307"/>
<path fill-rule="evenodd" clip-rule="evenodd" d="M266 59.2884L273.416 64L271.448 55.12L278 49.1453L269.372 48.3747L266 40L262.628 48.3747L254 49.1453L260.552 55.12L258.584 64L266 59.2884Z" fill="#FAA307"/>
<path d="M128.448 24C128.288 24 128.152 23.944 128.04 23.832C127.928 23.72 127.872 23.584 127.872 23.424V7.8C127.872 7.624 127.92 7.48 128.016 7.368C128.128 7.256 128.272 7.2 128.448 7.2H134.88C136.8 7.2 138.312 7.656 139.416 8.568C140.52 9.464 141.072 10.784 141.072 12.528C141.072 14.272 140.52 15.592 139.416 16.488C138.328 17.368 136.816 17.808 134.88 17.808H131.304V23.424C131.304 23.584 131.248 23.72 131.136 23.832C131.04 23.944 130.904 24 130.728 24H128.448ZM134.76 15.144C135.688 15.144 136.4 14.928 136.896 14.496C137.392 14.048 137.64 13.392 137.64 12.528C137.64 11.696 137.4 11.048 136.92 10.584C136.44 10.104 135.72 9.864 134.76 9.864H131.256V15.144H134.76ZM146.771 24.24C145.955 24.24 145.203 24.08 144.515 23.76C143.843 23.424 143.307 22.976 142.907 22.416C142.523 21.856 142.331 21.24 142.331 20.568C142.331 19.48 142.771 18.6 143.651 17.928C144.531 17.256 145.739 16.8 147.275 16.56L150.563 16.08V15.576C150.563 14.872 150.387 14.344 150.035 13.992C149.683 13.64 149.115 13.464 148.331 13.464C147.803 13.464 147.371 13.568 147.035 13.776C146.715 13.968 146.459 14.16 146.267 14.352C146.075 14.56 145.947 14.696 145.883 14.76C145.819 14.952 145.699 15.048 145.523 15.048H143.675C143.531 15.048 143.403 15 143.291 14.904C143.195 14.808 143.146 14.68 143.146 14.52C143.163 14.12 143.355 13.664 143.723 13.152C144.107 12.64 144.691 12.2 145.475 11.832C146.259 11.464 147.219 11.28 148.355 11.28C150.243 11.28 151.619 11.704 152.483 12.552C153.347 13.4 153.779 14.512 153.779 15.888V23.424C153.779 23.584 153.723 23.72 153.611 23.832C153.515 23.944 153.379 24 153.203 24H151.259C151.099 24 150.963 23.944 150.851 23.832C150.739 23.72 150.683 23.584 150.683 23.424V22.488C150.331 23 149.827 23.424 149.171 23.76C148.531 24.08 147.731 24.24 146.771 24.24ZM147.587 21.96C148.467 21.96 149.187 21.672 149.747 21.096C150.307 20.52 150.587 19.68 150.587 18.576V18.072L148.187 18.456C147.259 18.6 146.555 18.832 146.075 19.152C145.611 19.472 145.379 19.864 145.379 20.328C145.379 20.84 145.595 21.24 146.027 21.528C146.459 21.816 146.979 21.96 147.587 21.96ZM157.457 24C157.297 24 157.161 23.944 157.049 23.832C156.937 23.72 156.881 23.584 156.881 23.424V7.536C156.881 7.36 156.937 7.224 157.049 7.128C157.161 7.016 157.297 6.96 157.457 6.96H159.401C159.577 6.96 159.713 7.016 159.809 7.128C159.921 7.224 159.977 7.36 159.977 7.536V15.744L164.009 11.928C164.057 11.896 164.137 11.832 164.249 11.736C164.345 11.656 164.441 11.6 164.537 11.568C164.633 11.536 164.753 11.52 164.897 11.52H167.129C167.289 11.52 167.417 11.568 167.513 11.664C167.609 11.76 167.657 11.888 167.657 12.048C167.657 12.192 167.577 12.336 167.417 12.48L162.473 17.112L168.017 23.064C168.177 23.224 168.257 23.36 168.257 23.472C168.257 23.632 168.201 23.76 168.089 23.856C167.993 23.952 167.873 24 167.729 24H165.449C165.225 24 165.057 23.976 164.945 23.928C164.849 23.864 164.721 23.752 164.561 23.592L159.977 18.768V23.424C159.977 23.584 159.921 23.72 159.809 23.832C159.713 23.944 159.577 24 159.401 24H157.457ZM170.797 9.456C170.637 9.456 170.501 9.4 170.389 9.288C170.277 9.176 170.221 9.04 170.221 8.88V7.152C170.221 6.992 170.277 6.856 170.389 6.744C170.501 6.632 170.637 6.576 170.797 6.576H173.053C173.213 6.576 173.349 6.632 173.461 6.744C173.589 6.856 173.653 6.992 173.653 7.152V8.88C173.653 9.04 173.597 9.176 173.485 9.288C173.373 9.4 173.229 9.456 173.053 9.456H170.797ZM167.989 28.56C167.813 28.56 167.677 28.504 167.581 28.392C167.469 28.296 167.413 28.16 167.413 27.984V26.616C167.413 26.44 167.469 26.296 167.581 26.184C167.693 26.072 167.829 26.016 167.989 26.016H168.613C169.285 26.016 169.733 25.84 169.957 25.488C170.197 25.152 170.317 24.648 170.317 23.976V12.096C170.317 11.92 170.373 11.784 170.485 11.688C170.597 11.576 170.733 11.52 170.893 11.52H172.981C173.141 11.52 173.277 11.576 173.389 11.688C173.501 11.8 173.557 11.936 173.557 12.096V24.024C173.557 25.464 173.165 26.576 172.381 27.36C171.613 28.16 170.453 28.56 168.901 28.56H167.989ZM182.276 24.24C180.404 24.24 178.956 23.76 177.932 22.8C176.908 21.824 176.356 20.496 176.276 18.816L176.252 17.76L176.276 16.704C176.356 15.04 176.916 13.72 177.956 12.744C178.996 11.768 180.436 11.28 182.276 11.28C184.116 11.28 185.556 11.768 186.596 12.744C187.636 13.72 188.196 15.04 188.276 16.704C188.292 16.896 188.3 17.248 188.3 17.76C188.3 18.272 188.292 18.624 188.276 18.816C188.196 20.496 187.644 21.824 186.62 22.8C185.596 23.76 184.148 24.24 182.276 24.24ZM182.276 21.864C183.124 21.864 183.78 21.6 184.244 21.072C184.708 20.528 184.964 19.736 185.012 18.696C185.028 18.536 185.036 18.224 185.036 17.76C185.036 17.296 185.028 16.984 185.012 16.824C184.964 15.784 184.708 15 184.244 14.472C183.78 13.928 183.124 13.656 182.276 13.656C181.428 13.656 180.772 13.928 180.308 14.472C179.844 15 179.588 15.784 179.54 16.824L179.516 17.76L179.54 18.696C179.588 19.736 179.844 20.528 180.308 21.072C180.772 21.6 181.428 21.864 182.276 21.864ZM196.479 24.24C194.607 24.24 193.159 23.76 192.135 22.8C191.111 21.824 190.559 20.496 190.479 18.816L190.455 17.76L190.479 16.704C190.559 15.04 191.119 13.72 192.159 12.744C193.199 11.768 194.639 11.28 196.479 11.28C198.319 11.28 199.759 11.768 200.799 12.744C201.839 13.72 202.399 15.04 202.479 16.704C202.495 16.896 202.503 17.248 202.503 17.76C202.503 18.272 202.495 18.624 202.479 18.816C202.399 20.496 201.847 21.824 200.823 22.8C199.799 23.76 198.351 24.24 196.479 24.24ZM196.479 21.864C197.327 21.864 197.983 21.6 198.447 21.072C198.911 20.528 199.167 19.736 199.215 18.696C199.231 18.536 199.239 18.224 199.239 17.76C199.239 17.296 199.231 16.984 199.215 16.824C199.167 15.784 198.911 15 198.447 14.472C197.983 13.928 197.327 13.656 196.479 13.656C195.631 13.656 194.975 13.928 194.511 14.472C194.047 15 193.791 15.784 193.743 16.824L193.719 17.76L193.743 18.696C193.791 19.736 194.047 20.528 194.511 21.072C194.975 21.6 195.631 21.864 196.479 21.864Z" fill="#1C3554"/>
<circle cx="51" cy="52" r="51" fill="#CCCCCC"/>
</svg>
