<svg width="816" height="104" viewBox="0 0 816 104" fill="none" xmlns="http://www.w3.org/2000/svg">
<path fill-rule="evenodd" clip-rule="evenodd" d="M802.895 57.9298L802.895 57.9294C802.768 57.5953 802.638 57.2514 802.591 57.1262C802.575 57.0829 802.56 57.0409 802.545 57H807.667C810.783 57 812.667 54.8041 812.667 52C812.667 42.094 810.592 35.3333 806 35.3333C806 35.3333 794.372 35.3337 794.332 35.3328C793.235 35.3131 791.842 35.4674 790.439 35.9697C789.825 36.1892 789.261 36.4622 788.755 36.7895C788.155 35.9104 787.145 35.3333 786 35.3333H782.667C780.826 35.3333 779.333 36.8257 779.333 38.6666V53.6666C779.333 55.5076 780.826 57 782.667 57H786C786.331 57 786.65 56.9518 786.951 56.8622C788.113 58.5534 791.051 61.9108 793.412 64.6083C794.692 66.0709 795.802 67.3396 796.367 68.0435L796.867 68.6666H797.679C798.691 68.6668 799.57 68.5899 800.58 68.2958C802.82 67.6438 804.333 66.12 804.333 63.6666C804.333 62.7998 804.18 61.8756 803.897 60.8497C803.71 60.171 803.479 59.4857 803.162 58.6351C803.116 58.5135 803.007 58.2255 802.895 57.9298ZM789.333 53.6666V42C789.333 40.4962 790.087 39.6358 791.561 39.1082C792.518 38.766 793.542 38.6525 794.276 38.6656C800.12 38.6663 801.838 38.6665 803.556 38.6666L806 38.6666C807.692 38.6666 809.333 44.0154 809.333 52C809.333 53.0668 808.819 53.6666 807.667 53.6666H801C799.009 53.6666 798.593 55.206 799.008 56.8728C799.105 57.2649 799.248 57.6963 799.465 58.2824C799.517 58.4231 799.658 58.7941 799.789 59.1398L799.79 59.142L799.791 59.1446C799.898 59.4264 799.998 59.6906 800.038 59.7989C800.324 60.566 800.527 61.1673 800.684 61.7356C800.893 62.4961 801 63.139 801 63.6666C801 64.4182 800.604 64.8173 799.649 65.0954C799.247 65.2122 798.852 65.2766 798.433 65.3081C797.556 64.2597 796.3 62.8269 795.008 61.3522C792.503 58.4947 789.861 55.48 789.57 54.8C789.407 54.4214 789.333 54.067 789.333 53.6666ZM782.667 53.6666V38.6666H786V53.6666H782.667Z" fill="#1C3554"/>
<path fill-rule="evenodd" clip-rule="evenodd" d="M740.667 51.9985C740.667 49.1943 738.783 46.9985 735.667 46.9985H730.545C730.56 46.9575 730.575 46.9155 730.591 46.8722C730.638 46.7469 730.768 46.4028 730.895 46.0685C731.007 45.7728 731.116 45.4849 731.162 45.3633C731.479 44.5127 731.71 43.8274 731.897 43.1487C732.18 42.1228 732.333 41.1986 732.333 40.3318C732.333 37.8784 730.82 36.3547 728.58 35.7026C727.57 35.4085 726.691 35.3316 725.667 35.3318H724.867L724.367 35.9549C723.802 36.6589 722.692 37.9275 721.412 39.3901C719.05 42.0883 716.112 45.4466 714.951 47.1375C714.649 47.048 714.33 46.9999 714 46.9999H710.667C708.826 46.9999 707.333 48.4923 707.333 50.3333V65.3333C707.333 67.1742 708.826 68.6666 710.667 68.6666H714C715.145 68.6666 716.156 68.0891 716.756 67.2094C717.261 67.5364 717.825 67.8094 718.439 68.0288C719.842 68.531 721.235 68.6853 722.391 68.6641L734 68.6651C738.592 68.6651 740.667 61.9044 740.667 51.9985ZM719.561 64.8903C718.087 64.3626 717.333 63.5022 717.333 61.9985V50.3333V50.3318C717.333 49.9315 717.407 49.577 717.57 49.1984C717.861 48.5185 720.503 45.5037 723.008 42.6463C724.3 41.1715 725.556 39.7387 726.433 38.6903C726.852 38.7218 727.247 38.7862 727.649 38.903C728.604 39.1811 729 39.5802 729 40.3318C729 40.8594 728.893 41.5023 728.684 42.2628C728.527 42.8311 728.324 43.4324 728.038 44.1996C727.998 44.3084 727.896 44.5751 727.789 44.8586C727.658 45.2044 727.517 45.5753 727.465 45.716C727.248 46.3021 727.105 46.7336 727.008 47.1256C726.593 48.7924 727.009 50.3318 729 50.3318H735.667C736.819 50.3318 737.333 50.9316 737.333 51.9985C737.333 59.983 735.692 65.3318 734 65.3318H722.333L722.272 65.3328C721.542 65.3459 720.518 65.2324 719.561 64.8903ZM710.667 65.3333V50.3333H714V65.3333H710.667Z" fill="#1C3554"/>
<path d="M129.536 92.24L132.528 89.392C134.08 87.936 134.384 86.944 134.384 85.856C134.384 83.872 132.816 82.64 130.384 82.64C128.544 82.64 126.992 83.328 126.128 84.496L127.584 85.616C128.208 84.816 129.12 84.448 130.208 84.448C131.584 84.448 132.288 85.04 132.288 86.064C132.288 86.688 132.096 87.344 131.008 88.384L126.56 92.608V94H134.816V92.24H129.536ZM151.83 85.36C150.47 85.36 149.318 85.904 148.63 86.784C148.038 85.824 146.998 85.36 145.75 85.36C144.582 85.36 143.59 85.776 142.95 86.544V85.456H141.046V94H143.046V89.664C143.046 87.968 143.942 87.104 145.27 87.104C146.486 87.104 147.19 87.84 147.19 89.36V94H149.19V89.664C149.19 87.968 150.102 87.104 151.414 87.104C152.63 87.104 153.334 87.84 153.334 89.36V94H155.334V89.104C155.334 86.528 153.894 85.36 151.83 85.36ZM161.808 94.112C164.464 94.112 166.368 92.288 166.368 89.728C166.368 87.168 164.464 85.36 161.808 85.36C159.184 85.36 157.264 87.168 157.264 89.728C157.264 92.288 159.184 94.112 161.808 94.112ZM161.808 92.4C160.368 92.4 159.28 91.36 159.28 89.728C159.28 88.096 160.368 87.056 161.808 87.056C163.264 87.056 164.352 88.096 164.352 89.728C164.352 91.36 163.264 92.4 161.808 92.4ZM173.129 85.36C171.881 85.36 170.841 85.776 170.185 86.56V85.456H168.281V94H170.281V89.68C170.281 87.968 171.241 87.104 172.665 87.104C173.945 87.104 174.697 87.84 174.697 89.36V94H176.697V89.104C176.697 86.528 175.177 85.36 173.129 85.36ZM183.81 92.112C183.506 92.352 183.106 92.464 182.69 92.464C181.922 92.464 181.506 92.016 181.506 91.184V87.12H183.794V85.52H181.506V83.568H179.506V85.52H178.098V87.12H179.506V91.232C179.506 93.12 180.578 94.112 182.45 94.112C183.17 94.112 183.89 93.92 184.37 93.536L183.81 92.112ZM190.863 85.36C189.679 85.36 188.671 85.744 188.015 86.448V82.128H186.015V94H188.015V89.68C188.015 87.968 188.975 87.104 190.399 87.104C191.679 87.104 192.431 87.84 192.431 89.36V94H194.431V89.104C194.431 86.528 192.911 85.36 190.863 85.36ZM204.654 85.36C203.278 85.36 201.95 85.712 201.038 86.416L201.822 87.872C202.462 87.344 203.454 87.024 204.414 87.024C205.838 87.024 206.542 87.712 206.542 88.88V89.008H204.334C201.742 89.008 200.782 90.128 200.782 91.552C200.782 93.04 202.014 94.112 203.966 94.112C205.246 94.112 206.174 93.696 206.654 92.96V94H208.542V88.992C208.542 86.528 207.118 85.36 204.654 85.36ZM204.382 92.656C203.358 92.656 202.75 92.192 202.75 91.472C202.75 90.848 203.118 90.336 204.478 90.336H206.542V91.328C206.206 92.208 205.358 92.656 204.382 92.656ZM217.763 85.456V86.592C217.059 85.744 216.003 85.36 214.803 85.36C212.355 85.36 210.483 86.992 210.483 89.472C210.483 91.952 212.355 93.616 214.803 93.616C215.955 93.616 216.963 93.248 217.667 92.48V92.928C217.667 94.656 216.835 95.52 214.947 95.52C213.763 95.52 212.547 95.12 211.795 94.496L210.899 96C211.875 96.8 213.459 97.216 215.059 97.216C218.051 97.216 219.667 95.808 219.667 92.704V85.456H217.763ZM215.107 91.92C213.587 91.92 212.499 90.928 212.499 89.472C212.499 88.032 213.587 87.056 215.107 87.056C216.611 87.056 217.699 88.032 217.699 89.472C217.699 90.928 216.611 91.92 215.107 91.92ZM226.136 94.112C228.792 94.112 230.696 92.288 230.696 89.728C230.696 87.168 228.792 85.36 226.136 85.36C223.512 85.36 221.592 87.168 221.592 89.728C221.592 92.288 223.512 94.112 226.136 94.112ZM226.136 92.4C224.696 92.4 223.608 91.36 223.608 89.728C223.608 88.096 224.696 87.056 226.136 87.056C227.592 87.056 228.68 88.096 228.68 89.728C228.68 91.36 227.592 92.4 226.136 92.4Z" fill="#808080"/>
<path fill-rule="evenodd" clip-rule="evenodd" d="M138 59.2884L145.416 64L143.448 55.12L150 49.1453L141.372 48.3747L138 40L134.628 48.3747L126 49.1453L132.552 55.12L130.584 64L138 59.2884Z" fill="#FAA307"/>
<path fill-rule="evenodd" clip-rule="evenodd" d="M170 59.2884L177.416 64L175.448 55.12L182 49.1453L173.372 48.3747L170 40L166.628 48.3747L158 49.1453L164.552 55.12L162.584 64L170 59.2884Z" fill="#FAA307"/>
<path fill-rule="evenodd" clip-rule="evenodd" d="M202 59.2884L209.416 64L207.448 55.12L214 49.1453L205.372 48.3747L202 40L198.628 48.3747L190 49.1453L196.552 55.12L194.584 64L202 59.2884Z" fill="#FAA307"/>
<path fill-rule="evenodd" clip-rule="evenodd" d="M234 59.2884L241.416 64L239.448 55.12L246 49.1453L237.372 48.3747L234 40L230.628 48.3747L222 49.1453L228.552 55.12L226.584 64L234 59.2884Z" fill="#FAA307"/>
<path fill-rule="evenodd" clip-rule="evenodd" d="M266 59.2884L273.416 64L271.448 55.12L278 49.1453L269.372 48.3747L266 40L262.628 48.3747L254 49.1453L260.552 55.12L258.584 64L266 59.2884Z" fill="#FAA307"/>
<path d="M128.472 24C128.296 24 128.152 23.952 128.04 23.856C127.928 23.744 127.872 23.6 127.872 23.424V7.8C127.872 7.624 127.928 7.48 128.04 7.368C128.152 7.256 128.296 7.2 128.472 7.2H130.368C130.704 7.2 130.944 7.352 131.088 7.656L135.72 16.296L140.4 7.656C140.56 7.352 140.8 7.2 141.12 7.2H142.992C143.168 7.2 143.312 7.256 143.424 7.368C143.536 7.48 143.592 7.624 143.592 7.8V23.424C143.592 23.6 143.536 23.744 143.424 23.856C143.312 23.952 143.168 24 142.992 24H140.976C140.816 24 140.68 23.944 140.568 23.832C140.456 23.72 140.4 23.584 140.4 23.424V13.032L137.04 19.44C136.832 19.792 136.56 19.968 136.224 19.968H135.24C134.904 19.968 134.632 19.792 134.424 19.44L131.064 13.032V23.424C131.064 23.584 131.008 23.72 130.896 23.832C130.8 23.944 130.664 24 130.488 24H128.472ZM150.661 24.24C149.845 24.24 149.093 24.08 148.405 23.76C147.733 23.424 147.197 22.976 146.797 22.416C146.413 21.856 146.221 21.24 146.221 20.568C146.221 19.48 146.661 18.6 147.541 17.928C148.421 17.256 149.629 16.8 151.165 16.56L154.453 16.08V15.576C154.453 14.872 154.277 14.344 153.925 13.992C153.573 13.64 153.005 13.464 152.221 13.464C151.693 13.464 151.261 13.568 150.925 13.776C150.605 13.968 150.349 14.16 150.157 14.352C149.965 14.56 149.837 14.696 149.773 14.76C149.709 14.952 149.589 15.048 149.413 15.048H147.565C147.421 15.048 147.293 15 147.181 14.904C147.085 14.808 147.037 14.68 147.037 14.52C147.053 14.12 147.245 13.664 147.613 13.152C147.997 12.64 148.581 12.2 149.365 11.832C150.149 11.464 151.109 11.28 152.245 11.28C154.133 11.28 155.509 11.704 156.373 12.552C157.237 13.4 157.669 14.512 157.669 15.888V23.424C157.669 23.584 157.613 23.72 157.501 23.832C157.405 23.944 157.269 24 157.093 24H155.149C154.989 24 154.853 23.944 154.741 23.832C154.629 23.72 154.573 23.584 154.573 23.424V22.488C154.221 23 153.717 23.424 153.061 23.76C152.421 24.08 151.621 24.24 150.661 24.24ZM151.477 21.96C152.357 21.96 153.077 21.672 153.637 21.096C154.197 20.52 154.477 19.68 154.477 18.576V18.072L152.077 18.456C151.149 18.6 150.445 18.832 149.965 19.152C149.501 19.472 149.269 19.864 149.269 20.328C149.269 20.84 149.485 21.24 149.917 21.528C150.349 21.816 150.869 21.96 151.477 21.96ZM165.476 24.24C164.276 24.24 163.268 24.064 162.452 23.712C161.636 23.344 161.028 22.92 160.628 22.44C160.244 21.944 160.052 21.52 160.052 21.168C160.052 21.008 160.108 20.88 160.22 20.784C160.332 20.688 160.46 20.64 160.604 20.64H162.5C162.644 20.64 162.764 20.696 162.86 20.808C162.924 20.856 163.092 21 163.364 21.24C163.636 21.496 163.956 21.696 164.324 21.84C164.692 21.984 165.1 22.056 165.548 22.056C166.188 22.056 166.716 21.928 167.132 21.672C167.548 21.416 167.756 21.064 167.756 20.616C167.756 20.28 167.66 20.008 167.468 19.8C167.292 19.592 166.964 19.408 166.484 19.248C166.004 19.072 165.292 18.888 164.348 18.696C162.988 18.408 161.98 17.968 161.324 17.376C160.684 16.784 160.364 16 160.364 15.024C160.364 14.384 160.556 13.784 160.94 13.224C161.324 12.648 161.892 12.184 162.644 11.832C163.412 11.464 164.324 11.28 165.38 11.28C166.452 11.28 167.38 11.456 168.164 11.808C168.948 12.144 169.54 12.552 169.94 13.032C170.356 13.496 170.564 13.912 170.564 14.28C170.564 14.424 170.508 14.552 170.396 14.664C170.3 14.76 170.18 14.808 170.036 14.808H168.26C168.132 14.808 167.996 14.752 167.852 14.64C167.74 14.56 167.564 14.408 167.324 14.184C167.084 13.96 166.804 13.784 166.484 13.656C166.164 13.528 165.788 13.464 165.356 13.464C164.764 13.464 164.3 13.592 163.964 13.848C163.644 14.104 163.484 14.44 163.484 14.856C163.484 15.16 163.564 15.408 163.724 15.6C163.884 15.792 164.196 15.976 164.66 16.152C165.124 16.328 165.82 16.504 166.748 16.68C168.284 16.984 169.38 17.456 170.036 18.096C170.708 18.736 171.044 19.52 171.044 20.448C171.044 21.568 170.556 22.48 169.58 23.184C168.604 23.888 167.236 24.24 165.476 24.24ZM179.87 24C179.71 24 179.574 23.944 179.462 23.832C179.35 23.72 179.294 23.584 179.294 23.424V7.8C179.294 7.624 179.342 7.48 179.438 7.368C179.55 7.256 179.694 7.2 179.87 7.2H190.43C190.606 7.2 190.75 7.256 190.862 7.368C190.974 7.48 191.03 7.624 191.03 7.8V9.384C191.03 9.56 190.974 9.704 190.862 9.816C190.75 9.912 190.606 9.96 190.43 9.96H182.534V14.208H189.902C190.078 14.208 190.222 14.264 190.334 14.376C190.446 14.472 190.502 14.608 190.502 14.784V16.272C190.502 16.448 190.446 16.592 190.334 16.704C190.222 16.8 190.078 16.848 189.902 16.848H182.534V21.24H190.622C190.798 21.24 190.942 21.296 191.054 21.408C191.166 21.52 191.222 21.664 191.222 21.84V23.424C191.222 23.6 191.166 23.744 191.054 23.856C190.942 23.952 190.798 24 190.622 24H179.87ZM194.536 24C194.376 24 194.24 23.944 194.128 23.832C194.016 23.72 193.96 23.584 193.96 23.424V7.536C193.96 7.36 194.016 7.224 194.128 7.128C194.24 7.016 194.376 6.96 194.536 6.96H196.672C196.848 6.96 196.984 7.016 197.08 7.128C197.192 7.224 197.248 7.36 197.248 7.536V13.008C198.208 11.856 199.504 11.28 201.136 11.28C202.608 11.28 203.784 11.768 204.664 12.744C205.544 13.704 205.984 15.016 205.984 16.68V23.424C205.984 23.584 205.928 23.72 205.816 23.832C205.72 23.944 205.584 24 205.408 24H203.248C203.088 24 202.952 23.944 202.84 23.832C202.728 23.72 202.672 23.584 202.672 23.424V16.824C202.672 15.88 202.44 15.152 201.976 14.64C201.528 14.112 200.872 13.848 200.008 13.848C199.16 13.848 198.488 14.112 197.992 14.64C197.496 15.168 197.248 15.896 197.248 16.824V23.424C197.248 23.584 197.192 23.72 197.08 23.832C196.984 23.944 196.848 24 196.672 24H194.536ZM212.653 24.24C211.837 24.24 211.085 24.08 210.397 23.76C209.725 23.424 209.189 22.976 208.789 22.416C208.405 21.856 208.213 21.24 208.213 20.568C208.213 19.48 208.653 18.6 209.533 17.928C210.413 17.256 211.621 16.8 213.157 16.56L216.445 16.08V15.576C216.445 14.872 216.269 14.344 215.917 13.992C215.565 13.64 214.997 13.464 214.213 13.464C213.685 13.464 213.253 13.568 212.917 13.776C212.597 13.968 212.341 14.16 212.149 14.352C211.957 14.56 211.829 14.696 211.765 14.76C211.701 14.952 211.581 15.048 211.405 15.048H209.557C209.413 15.048 209.285 15 209.173 14.904C209.077 14.808 209.029 14.68 209.029 14.52C209.045 14.12 209.237 13.664 209.605 13.152C209.989 12.64 210.573 12.2 211.357 11.832C212.141 11.464 213.101 11.28 214.237 11.28C216.125 11.28 217.501 11.704 218.365 12.552C219.229 13.4 219.661 14.512 219.661 15.888V23.424C219.661 23.584 219.605 23.72 219.493 23.832C219.397 23.944 219.261 24 219.085 24H217.141C216.981 24 216.845 23.944 216.733 23.832C216.621 23.72 216.565 23.584 216.565 23.424V22.488C216.213 23 215.709 23.424 215.053 23.76C214.413 24.08 213.613 24.24 212.653 24.24ZM213.469 21.96C214.349 21.96 215.069 21.672 215.629 21.096C216.189 20.52 216.469 19.68 216.469 18.576V18.072L214.069 18.456C213.141 18.6 212.437 18.832 211.957 19.152C211.493 19.472 211.261 19.864 211.261 20.328C211.261 20.84 211.477 21.24 211.909 21.528C212.341 21.816 212.861 21.96 213.469 21.96ZM223.316 24C223.156 24 223.02 23.944 222.908 23.832C222.796 23.72 222.74 23.584 222.74 23.424V12.096C222.74 11.936 222.796 11.8 222.908 11.688C223.02 11.576 223.156 11.52 223.316 11.52H225.284C225.444 11.52 225.58 11.576 225.692 11.688C225.804 11.8 225.86 11.936 225.86 12.096V13.08C226.804 11.88 228.14 11.28 229.868 11.28C231.34 11.28 232.508 11.768 233.372 12.744C234.236 13.704 234.668 15.016 234.668 16.68V23.424C234.668 23.584 234.612 23.72 234.5 23.832C234.404 23.944 234.268 24 234.092 24H231.98C231.82 24 231.684 23.944 231.572 23.832C231.46 23.72 231.404 23.584 231.404 23.424V16.824C231.404 15.88 231.172 15.152 230.708 14.64C230.26 14.112 229.604 13.848 228.74 13.848C227.892 13.848 227.22 14.112 226.724 14.64C226.244 15.168 226.004 15.896 226.004 16.824V23.424C226.004 23.584 225.948 23.72 225.836 23.832C225.74 23.944 225.604 24 225.428 24H223.316Z" fill="#1C3554"/>
<circle cx="51" cy="52" r="51" fill="#CCCCCC"/>
</svg>
