<svg width="559" height="150" viewBox="0 0 559 150" fill="none" xmlns="http://www.w3.org/2000/svg">
<path d="M177.632 108C177.525 108 177.435 107.963 177.36 107.888C177.285 107.813 177.248 107.723 177.248 107.616V97.2C177.248 97.0827 177.28 96.9867 177.344 96.912C177.419 96.8373 177.515 96.8 177.632 96.8H184.576C184.693 96.8 184.789 96.8373 184.864 96.912C184.939 96.9867 184.976 97.0827 184.976 97.2V98.32C184.976 98.4373 184.939 98.5333 184.864 98.608C184.789 98.672 184.693 98.704 184.576 98.704H179.44V101.744H184.256C184.373 101.744 184.469 101.781 184.544 101.856C184.619 101.931 184.656 102.027 184.656 102.144V103.264C184.656 103.381 184.619 103.477 184.544 103.552C184.469 103.616 184.373 103.648 184.256 103.648H179.44V107.616C179.44 107.733 179.403 107.829 179.328 107.904C179.253 107.968 179.157 108 179.04 108H177.632ZM189.628 108.16C188.647 108.16 187.874 107.84 187.308 107.2C186.743 106.549 186.46 105.669 186.46 104.56V100.064C186.46 99.9573 186.498 99.8667 186.572 99.792C186.647 99.7173 186.738 99.68 186.844 99.68H188.252C188.37 99.68 188.46 99.7173 188.524 99.792C188.599 99.856 188.636 99.9467 188.636 100.064V104.464C188.636 105.787 189.218 106.448 190.38 106.448C190.935 106.448 191.372 106.272 191.692 105.92C192.023 105.568 192.188 105.083 192.188 104.464V100.064C192.188 99.9573 192.226 99.8667 192.3 99.792C192.375 99.7173 192.466 99.68 192.572 99.68H193.98C194.098 99.68 194.188 99.7173 194.252 99.792C194.327 99.856 194.364 99.9467 194.364 100.064V107.616C194.364 107.723 194.327 107.813 194.252 107.888C194.188 107.963 194.098 108 193.98 108H192.684C192.578 108 192.487 107.963 192.412 107.888C192.338 107.813 192.3 107.723 192.3 107.616V106.96C191.703 107.76 190.812 108.16 189.628 108.16ZM196.878 108C196.771 108 196.681 107.963 196.606 107.888C196.531 107.813 196.494 107.723 196.494 107.616V97.024C196.494 96.9067 196.531 96.816 196.606 96.752C196.681 96.6773 196.771 96.64 196.878 96.64H198.206C198.323 96.64 198.414 96.6773 198.478 96.752C198.553 96.816 198.59 96.9067 198.59 97.024V107.616C198.59 107.723 198.553 107.813 198.478 107.888C198.414 107.963 198.323 108 198.206 108H196.878ZM201.112 108C201.006 108 200.915 107.963 200.84 107.888C200.766 107.813 200.728 107.723 200.728 107.616V97.024C200.728 96.9067 200.766 96.816 200.84 96.752C200.915 96.6773 201.006 96.64 201.112 96.64H202.44C202.558 96.64 202.648 96.6773 202.712 96.752C202.787 96.816 202.824 96.9067 202.824 97.024V107.616C202.824 107.723 202.787 107.813 202.712 107.888C202.648 107.963 202.558 108 202.44 108H201.112ZM212.683 108.16C211.734 108.16 210.918 108.016 210.235 107.728C209.552 107.44 209.035 107.061 208.683 106.592C208.331 106.123 208.144 105.616 208.123 105.072C208.123 104.976 208.155 104.896 208.219 104.832C208.283 104.768 208.363 104.736 208.459 104.736H209.883C210.011 104.736 210.107 104.763 210.171 104.816C210.246 104.859 210.315 104.933 210.379 105.04C210.486 105.403 210.731 105.707 211.115 105.952C211.499 106.197 212.022 106.32 212.683 106.32C213.44 106.32 214.011 106.197 214.395 105.952C214.779 105.696 214.971 105.344 214.971 104.896C214.971 104.597 214.87 104.352 214.667 104.16C214.475 103.968 214.182 103.803 213.787 103.664C213.403 103.525 212.827 103.355 212.059 103.152C210.8 102.853 209.878 102.459 209.291 101.968C208.715 101.467 208.427 100.757 208.427 99.84C208.427 99.2213 208.592 98.672 208.923 98.192C209.264 97.712 209.75 97.3333 210.379 97.056C211.019 96.7787 211.76 96.64 212.603 96.64C213.478 96.64 214.235 96.7947 214.875 97.104C215.515 97.4133 216 97.8027 216.331 98.272C216.672 98.7307 216.854 99.1893 216.875 99.648C216.875 99.744 216.843 99.824 216.779 99.888C216.715 99.952 216.635 99.984 216.539 99.984H215.051C214.827 99.984 214.672 99.8827 214.587 99.68C214.523 99.3387 214.31 99.056 213.947 98.832C213.584 98.5973 213.136 98.48 212.603 98.48C212.006 98.48 211.536 98.592 211.195 98.816C210.854 99.04 210.683 99.3653 210.683 99.792C210.683 100.091 210.768 100.336 210.939 100.528C211.11 100.72 211.376 100.891 211.739 101.04C212.112 101.189 212.646 101.355 213.339 101.536C214.278 101.749 215.024 101.989 215.579 102.256C216.144 102.523 216.56 102.859 216.827 103.264C217.094 103.669 217.227 104.187 217.227 104.816C217.227 105.499 217.035 106.096 216.651 106.608C216.278 107.109 215.744 107.493 215.051 107.76C214.368 108.027 213.579 108.16 212.683 108.16ZM222.629 108C221.658 108 220.927 107.749 220.437 107.248C219.957 106.736 219.717 105.989 219.717 105.008V101.376H218.453C218.346 101.376 218.255 101.339 218.181 101.264C218.106 101.179 218.069 101.083 218.069 100.976V100.064C218.069 99.9573 218.106 99.8667 218.181 99.792C218.255 99.7173 218.346 99.68 218.453 99.68H219.717V97.024C219.717 96.9067 219.754 96.816 219.829 96.752C219.903 96.6773 219.994 96.64 220.101 96.64H221.397C221.514 96.64 221.605 96.6773 221.669 96.752C221.743 96.816 221.781 96.9067 221.781 97.024V99.68H223.781C223.898 99.68 223.989 99.7173 224.053 99.792C224.127 99.856 224.165 99.9467 224.165 100.064V100.976C224.165 101.093 224.127 101.189 224.053 101.264C223.978 101.339 223.887 101.376 223.781 101.376H221.781V104.848C221.781 105.307 221.861 105.653 222.021 105.888C222.181 106.123 222.447 106.24 222.821 106.24H223.925C224.031 106.24 224.122 106.277 224.197 106.352C224.271 106.427 224.309 106.517 224.309 106.624V107.616C224.309 107.723 224.271 107.813 224.197 107.888C224.133 107.963 224.042 108 223.925 108H222.629ZM228.144 108.16C227.6 108.16 227.099 108.053 226.64 107.84C226.192 107.616 225.835 107.317 225.568 106.944C225.312 106.571 225.184 106.16 225.184 105.712C225.184 104.987 225.477 104.4 226.064 103.952C226.651 103.504 227.456 103.2 228.48 103.04L230.672 102.72V102.384C230.672 101.915 230.555 101.563 230.32 101.328C230.085 101.093 229.707 100.976 229.184 100.976C228.832 100.976 228.544 101.045 228.32 101.184C228.107 101.312 227.936 101.44 227.808 101.568C227.68 101.707 227.595 101.797 227.552 101.84C227.509 101.968 227.429 102.032 227.312 102.032H226.08C225.984 102.032 225.899 102 225.824 101.936C225.76 101.872 225.728 101.787 225.728 101.68C225.739 101.413 225.867 101.109 226.112 100.768C226.368 100.427 226.757 100.133 227.28 99.888C227.803 99.6427 228.443 99.52 229.2 99.52C230.459 99.52 231.376 99.8027 231.952 100.368C232.528 100.933 232.816 101.675 232.816 102.592V107.616C232.816 107.723 232.779 107.813 232.704 107.888C232.64 107.963 232.549 108 232.432 108H231.136C231.029 108 230.939 107.963 230.864 107.888C230.789 107.813 230.752 107.723 230.752 107.616V106.992C230.517 107.333 230.181 107.616 229.744 107.84C229.317 108.053 228.784 108.16 228.144 108.16ZM228.688 106.64C229.275 106.64 229.755 106.448 230.128 106.064C230.501 105.68 230.688 105.12 230.688 104.384V104.048L229.088 104.304C228.469 104.4 228 104.555 227.68 104.768C227.371 104.981 227.216 105.243 227.216 105.552C227.216 105.893 227.36 106.16 227.648 106.352C227.936 106.544 228.283 106.64 228.688 106.64ZM238.469 108.16C237.295 108.16 236.357 107.835 235.653 107.184C234.959 106.533 234.591 105.632 234.549 104.48L234.533 103.84L234.549 103.2C234.591 102.048 234.959 101.147 235.653 100.496C236.357 99.8453 237.295 99.52 238.469 99.52C239.301 99.52 240.005 99.6693 240.581 99.968C241.167 100.267 241.599 100.635 241.877 101.072C242.165 101.499 242.319 101.904 242.341 102.288C242.351 102.395 242.314 102.485 242.229 102.56C242.154 102.635 242.063 102.672 241.957 102.672H240.549C240.442 102.672 240.357 102.651 240.293 102.608C240.239 102.555 240.186 102.469 240.133 102.352C239.973 101.936 239.759 101.637 239.493 101.456C239.237 101.275 238.906 101.184 238.501 101.184C237.957 101.184 237.53 101.36 237.221 101.712C236.911 102.053 236.746 102.576 236.725 103.28L236.709 103.872L236.725 104.4C236.767 105.797 237.359 106.496 238.501 106.496C238.917 106.496 239.253 106.405 239.509 106.224C239.765 106.043 239.973 105.744 240.133 105.328C240.186 105.211 240.239 105.131 240.293 105.088C240.357 105.035 240.442 105.008 240.549 105.008H241.957C242.063 105.008 242.154 105.045 242.229 105.12C242.314 105.195 242.351 105.285 242.341 105.392C242.319 105.765 242.17 106.165 241.892 106.592C241.615 107.019 241.189 107.387 240.613 107.696C240.037 108.005 239.322 108.16 238.469 108.16ZM244.409 108C244.302 108 244.212 107.963 244.137 107.888C244.062 107.813 244.025 107.723 244.025 107.616V97.024C244.025 96.9067 244.062 96.816 244.137 96.752C244.212 96.6773 244.302 96.64 244.409 96.64H245.705C245.822 96.64 245.913 96.6773 245.977 96.752C246.052 96.816 246.089 96.9067 246.089 97.024V102.496L248.777 99.952C248.809 99.9307 248.862 99.888 248.937 99.824C249.001 99.7707 249.065 99.7333 249.129 99.712C249.193 99.6907 249.273 99.68 249.369 99.68H250.857C250.964 99.68 251.049 99.712 251.113 99.776C251.177 99.84 251.209 99.9253 251.209 100.032C251.209 100.128 251.156 100.224 251.049 100.32L247.753 103.408L251.449 107.376C251.556 107.483 251.609 107.573 251.609 107.648C251.609 107.755 251.572 107.84 251.497 107.904C251.433 107.968 251.353 108 251.257 108H249.737C249.588 108 249.476 107.984 249.401 107.952C249.337 107.909 249.252 107.835 249.145 107.728L246.089 104.512V107.616C246.089 107.723 246.052 107.813 245.977 107.888C245.913 107.963 245.822 108 245.705 108H244.409ZM258.197 108C258.037 108 257.909 107.957 257.813 107.872C257.717 107.787 257.659 107.669 257.637 107.52L255.733 97.264L255.717 97.136C255.717 97.04 255.749 96.96 255.813 96.896C255.888 96.832 255.968 96.8 256.053 96.8H257.461C257.728 96.8 257.877 96.9067 257.909 97.12L259.237 104.368L260.677 99.68C260.784 99.4133 260.96 99.28 261.205 99.28H262.069C262.336 99.28 262.507 99.4133 262.581 99.68L264.037 104.352L265.365 97.12C265.387 97.0027 265.429 96.9227 265.493 96.88C265.568 96.8267 265.675 96.8 265.813 96.8H267.221C267.307 96.8 267.381 96.832 267.445 96.896C267.509 96.96 267.541 97.04 267.541 97.136C267.541 97.1893 267.536 97.232 267.525 97.264L265.621 107.52C265.568 107.84 265.381 108 265.061 108H263.989C263.84 108 263.717 107.963 263.621 107.888C263.525 107.813 263.461 107.717 263.429 107.6L261.637 102.256L259.845 107.6C259.739 107.867 259.547 108 259.269 108H258.197ZM272.499 108.16C271.315 108.16 270.371 107.819 269.667 107.136C268.974 106.443 268.606 105.472 268.563 104.224L268.547 103.824L268.563 103.424C268.617 102.208 268.99 101.253 269.683 100.56C270.387 99.8667 271.326 99.52 272.499 99.52C273.758 99.52 274.729 99.904 275.411 100.672C276.105 101.44 276.451 102.464 276.451 103.744V104.08C276.451 104.187 276.414 104.277 276.339 104.352C276.265 104.427 276.169 104.464 276.051 104.464H270.739V104.592C270.761 105.179 270.921 105.675 271.219 106.08C271.529 106.475 271.95 106.672 272.483 106.672C273.113 106.672 273.619 106.427 274.003 105.936C274.099 105.819 274.174 105.744 274.227 105.712C274.291 105.68 274.382 105.664 274.499 105.664H275.875C275.971 105.664 276.051 105.696 276.115 105.76C276.19 105.813 276.227 105.883 276.227 105.968C276.227 106.224 276.073 106.528 275.763 106.88C275.465 107.221 275.033 107.52 274.467 107.776C273.902 108.032 273.246 108.16 272.499 108.16ZM274.275 103.12V103.072C274.275 102.443 274.115 101.936 273.795 101.552C273.486 101.168 273.054 100.976 272.499 100.976C271.945 100.976 271.513 101.168 271.203 101.552C270.894 101.936 270.739 102.443 270.739 103.072V103.12H274.275ZM282.758 108.16C281.659 108.16 280.806 107.781 280.198 107.024V107.616C280.198 107.723 280.16 107.813 280.086 107.888C280.022 107.963 279.931 108 279.814 108H278.55C278.443 108 278.352 107.963 278.278 107.888C278.203 107.813 278.166 107.723 278.166 107.616V97.024C278.166 96.9067 278.203 96.816 278.278 96.752C278.352 96.6773 278.443 96.64 278.55 96.64H279.91C280.027 96.64 280.118 96.6773 280.182 96.752C280.256 96.816 280.294 96.9067 280.294 97.024V100.576C280.902 99.872 281.723 99.52 282.758 99.52C283.835 99.52 284.662 99.872 285.238 100.576C285.814 101.28 286.123 102.192 286.166 103.312C286.176 103.44 286.182 103.611 286.182 103.824C286.182 104.048 286.176 104.224 286.166 104.352C286.123 105.504 285.814 106.427 285.238 107.12C284.662 107.813 283.835 108.16 282.758 108.16ZM282.166 106.448C283.318 106.448 283.931 105.739 284.006 104.32C284.016 104.213 284.022 104.053 284.022 103.84C284.022 103.627 284.016 103.467 284.006 103.36C283.931 101.941 283.318 101.232 282.166 101.232C281.568 101.232 281.11 101.424 280.79 101.808C280.48 102.181 280.315 102.635 280.294 103.168L280.278 103.776L280.294 104.4C280.326 104.976 280.491 105.461 280.79 105.856C281.088 106.251 281.547 106.448 282.166 106.448ZM292.195 108C292.088 108 291.997 107.963 291.923 107.888C291.848 107.813 291.811 107.723 291.811 107.616V97.2C291.811 97.0827 291.843 96.9867 291.907 96.912C291.981 96.8373 292.077 96.8 292.195 96.8H296.099C299.235 96.8 300.835 98.2507 300.899 101.152C300.92 101.771 300.931 102.187 300.931 102.4C300.931 102.603 300.92 103.013 300.899 103.632C300.856 105.125 300.456 106.229 299.699 106.944C298.941 107.648 297.768 108 296.179 108H292.195ZM296.099 106.16C296.995 106.16 297.64 105.963 298.035 105.568C298.429 105.163 298.637 104.501 298.659 103.584C298.68 102.944 298.691 102.544 298.691 102.384C298.691 102.213 298.68 101.819 298.659 101.2C298.637 100.325 298.413 99.68 297.987 99.264C297.571 98.848 296.915 98.64 296.019 98.64H294.035V106.16H296.099ZM306.453 108.16C305.269 108.16 304.325 107.819 303.621 107.136C302.927 106.443 302.559 105.472 302.517 104.224L302.501 103.824L302.517 103.424C302.57 102.208 302.943 101.253 303.637 100.56C304.341 99.8667 305.279 99.52 306.453 99.52C307.711 99.52 308.682 99.904 309.365 100.672C310.058 101.44 310.405 102.464 310.405 103.744V104.08C310.405 104.187 310.367 104.277 310.293 104.352C310.218 104.427 310.122 104.464 310.005 104.464H304.693V104.592C304.714 105.179 304.874 105.675 305.173 106.08C305.482 106.475 305.903 106.672 306.437 106.672C307.066 106.672 307.573 106.427 307.957 105.936C308.053 105.819 308.127 105.744 308.181 105.712C308.245 105.68 308.335 105.664 308.453 105.664H309.829C309.925 105.664 310.005 105.696 310.069 105.76C310.143 105.813 310.181 105.883 310.181 105.968C310.181 106.224 310.026 106.528 309.717 106.88C309.418 107.221 308.986 107.52 308.421 107.776C307.855 108.032 307.199 108.16 306.453 108.16ZM308.229 103.12V103.072C308.229 102.443 308.069 101.936 307.749 101.552C307.439 101.168 307.007 100.976 306.453 100.976C305.898 100.976 305.466 101.168 305.157 101.552C304.847 101.936 304.693 102.443 304.693 103.072V103.12H308.229ZM315.255 108.16C314.455 108.16 313.783 108.043 313.239 107.808C312.695 107.563 312.29 107.28 312.023 106.96C311.767 106.629 311.639 106.347 311.639 106.112C311.639 106.005 311.676 105.92 311.751 105.856C311.826 105.792 311.911 105.76 312.007 105.76H313.271C313.367 105.76 313.447 105.797 313.511 105.872C313.554 105.904 313.666 106 313.847 106.16C314.028 106.331 314.242 106.464 314.487 106.56C314.732 106.656 315.004 106.704 315.303 106.704C315.73 106.704 316.082 106.619 316.359 106.448C316.636 106.277 316.775 106.043 316.775 105.744C316.775 105.52 316.711 105.339 316.583 105.2C316.466 105.061 316.247 104.939 315.927 104.832C315.607 104.715 315.132 104.592 314.503 104.464C313.596 104.272 312.924 103.979 312.487 103.584C312.06 103.189 311.847 102.667 311.847 102.016C311.847 101.589 311.975 101.189 312.231 100.816C312.487 100.432 312.866 100.123 313.367 99.888C313.879 99.6427 314.487 99.52 315.191 99.52C315.906 99.52 316.524 99.6373 317.047 99.872C317.57 100.096 317.964 100.368 318.231 100.688C318.508 100.997 318.647 101.275 318.647 101.52C318.647 101.616 318.61 101.701 318.535 101.776C318.471 101.84 318.391 101.872 318.295 101.872H317.111C317.026 101.872 316.935 101.835 316.839 101.76C316.764 101.707 316.647 101.605 316.487 101.456C316.327 101.307 316.14 101.189 315.927 101.104C315.714 101.019 315.463 100.976 315.175 100.976C314.78 100.976 314.471 101.061 314.247 101.232C314.034 101.403 313.927 101.627 313.927 101.904C313.927 102.107 313.98 102.272 314.087 102.4C314.194 102.528 314.402 102.651 314.711 102.768C315.02 102.885 315.484 103.003 316.103 103.12C317.127 103.323 317.858 103.637 318.295 104.064C318.743 104.491 318.967 105.013 318.967 105.632C318.967 106.379 318.642 106.987 317.991 107.456C317.34 107.925 316.428 108.16 315.255 108.16ZM320.939 98.304C320.832 98.304 320.741 98.2667 320.667 98.192C320.592 98.1173 320.555 98.0267 320.555 97.92V96.768C320.555 96.6613 320.592 96.5707 320.667 96.496C320.741 96.4213 320.832 96.384 320.939 96.384H322.395C322.501 96.384 322.592 96.4213 322.667 96.496C322.752 96.5707 322.795 96.6613 322.795 96.768V97.92C322.795 98.0267 322.757 98.1173 322.683 98.192C322.608 98.2667 322.512 98.304 322.395 98.304H320.939ZM321.003 108C320.896 108 320.805 107.963 320.731 107.888C320.656 107.813 320.618 107.723 320.618 107.616V100.064C320.618 99.9573 320.656 99.8667 320.731 99.792C320.805 99.7173 320.896 99.68 321.003 99.68H322.331C322.448 99.68 322.539 99.7173 322.603 99.792C322.677 99.856 322.715 99.9467 322.715 100.064V107.616C322.715 107.723 322.677 107.813 322.603 107.888C322.539 107.963 322.448 108 322.331 108H321.003ZM328.597 111.52C327.648 111.52 326.88 111.36 326.293 111.04C325.707 110.731 325.291 110.373 325.045 109.968C324.8 109.563 324.677 109.216 324.677 108.928C324.677 108.832 324.715 108.747 324.789 108.672C324.875 108.597 324.965 108.56 325.061 108.56H326.453C326.549 108.56 326.629 108.581 326.693 108.624C326.768 108.677 326.827 108.768 326.869 108.896C326.976 109.184 327.147 109.424 327.381 109.616C327.627 109.819 328.005 109.92 328.517 109.92C329.157 109.92 329.627 109.776 329.925 109.488C330.235 109.2 330.389 108.704 330.389 108V106.912C329.803 107.605 328.981 107.952 327.925 107.952C326.816 107.952 325.979 107.611 325.413 106.928C324.859 106.245 324.56 105.328 324.517 104.176L324.501 103.744L324.517 103.312C324.56 102.181 324.864 101.269 325.429 100.576C325.995 99.872 326.827 99.52 327.925 99.52C328.491 99.52 328.987 99.6267 329.413 99.84C329.84 100.053 330.197 100.347 330.485 100.72V100.08C330.485 99.9627 330.523 99.8667 330.597 99.792C330.672 99.7173 330.763 99.68 330.869 99.68H332.165C332.272 99.68 332.363 99.7227 332.437 99.808C332.512 99.8827 332.549 99.9733 332.549 100.08L332.565 107.792C332.565 108.976 332.235 109.893 331.573 110.544C330.912 111.195 329.92 111.52 328.597 111.52ZM328.517 106.256C329.125 106.256 329.579 106.064 329.877 105.68C330.187 105.296 330.357 104.827 330.389 104.272C330.4 104.187 330.405 104.011 330.405 103.744C330.405 103.488 330.4 103.317 330.389 103.232C330.357 102.667 330.187 102.192 329.877 101.808C329.579 101.424 329.125 101.232 328.517 101.232C327.365 101.232 326.757 101.941 326.693 103.36L326.677 103.744C326.677 104.501 326.811 105.109 327.077 105.568C327.355 106.027 327.835 106.256 328.517 106.256ZM335.081 108C334.974 108 334.883 107.963 334.809 107.888C334.734 107.813 334.697 107.723 334.697 107.616V100.064C334.697 99.9573 334.734 99.8667 334.809 99.792C334.883 99.7173 334.974 99.68 335.081 99.68H336.393C336.499 99.68 336.59 99.7173 336.665 99.792C336.739 99.8667 336.777 99.9573 336.777 100.064V100.72C337.406 99.92 338.297 99.52 339.449 99.52C340.43 99.52 341.209 99.8453 341.785 100.496C342.361 101.136 342.649 102.011 342.649 103.12V107.616C342.649 107.723 342.611 107.813 342.537 107.888C342.473 107.963 342.382 108 342.265 108H340.857C340.75 108 340.659 107.963 340.585 107.888C340.51 107.813 340.473 107.723 340.473 107.616V103.216C340.473 102.587 340.318 102.101 340.009 101.76C339.71 101.408 339.273 101.232 338.697 101.232C338.131 101.232 337.683 101.408 337.353 101.76C337.033 102.112 336.873 102.597 336.873 103.216V107.616C336.873 107.723 336.835 107.813 336.761 107.888C336.697 107.963 336.606 108 336.489 108H335.081ZM348.265 108.16C347.081 108.16 346.137 107.819 345.433 107.136C344.74 106.443 344.372 105.472 344.329 104.224L344.313 103.824L344.329 103.424C344.382 102.208 344.756 101.253 345.449 100.56C346.153 99.8667 347.092 99.52 348.265 99.52C349.524 99.52 350.494 99.904 351.177 100.672C351.87 101.44 352.217 102.464 352.217 103.744V104.08C352.217 104.187 352.18 104.277 352.105 104.352C352.03 104.427 351.934 104.464 351.817 104.464H346.505V104.592C346.526 105.179 346.686 105.675 346.985 106.08C347.294 106.475 347.716 106.672 348.249 106.672C348.878 106.672 349.385 106.427 349.769 105.936C349.865 105.819 349.94 105.744 349.993 105.712C350.057 105.68 350.148 105.664 350.265 105.664H351.641C351.737 105.664 351.817 105.696 351.881 105.76C351.956 105.813 351.993 105.883 351.993 105.968C351.993 106.224 351.838 106.528 351.529 106.88C351.23 107.221 350.798 107.52 350.233 107.776C349.668 108.032 349.012 108.16 348.265 108.16ZM350.041 103.12V103.072C350.041 102.443 349.881 101.936 349.561 101.552C349.252 101.168 348.82 100.976 348.265 100.976C347.71 100.976 347.278 101.168 346.969 101.552C346.66 101.936 346.505 102.443 346.505 103.072V103.12H350.041ZM354.299 108C354.193 108 354.102 107.963 354.027 107.888C353.953 107.813 353.915 107.723 353.915 107.616V100.08C353.915 99.9733 353.953 99.8827 354.027 99.808C354.102 99.7227 354.193 99.68 354.299 99.68H355.595C355.713 99.68 355.809 99.7173 355.883 99.792C355.958 99.8667 355.995 99.9627 355.995 100.08V100.736C356.251 100.395 356.571 100.133 356.955 99.952C357.35 99.7707 357.798 99.68 358.299 99.68H358.955C359.073 99.68 359.163 99.7173 359.227 99.792C359.302 99.856 359.339 99.9467 359.339 100.064V101.216C359.339 101.323 359.302 101.413 359.227 101.488C359.163 101.563 359.073 101.6 358.955 101.6H357.707C357.206 101.6 356.811 101.744 356.523 102.032C356.235 102.32 356.091 102.715 356.091 103.216V107.616C356.091 107.723 356.054 107.813 355.979 107.888C355.905 107.963 355.809 108 355.691 108H354.299Z" fill="#808080"/>
<path d="M177.04 70C176.805 70 176.613 69.9253 176.464 69.776C176.315 69.6053 176.24 69.4133 176.24 69.2V48.4C176.24 48.1653 176.315 47.9733 176.464 47.824C176.613 47.6747 176.805 47.6 177.04 47.6H185.744C188.517 47.6 190.693 48.24 192.272 49.52C193.851 50.7787 194.64 52.5707 194.64 54.896C194.64 56.4107 194.277 57.6907 193.552 58.736C192.827 59.7813 191.867 60.5707 190.672 61.104L195.056 68.976C195.12 69.104 195.152 69.2213 195.152 69.328C195.152 69.4987 195.077 69.6587 194.928 69.808C194.8 69.936 194.651 70 194.48 70H190.224C189.819 70 189.52 69.904 189.328 69.712C189.136 69.4987 188.997 69.3067 188.912 69.136L185.264 62.096H182V69.2C182 69.4133 181.915 69.6053 181.744 69.776C181.595 69.9253 181.403 70 181.168 70H177.04ZM182 57.552H185.68C186.683 57.552 187.429 57.3067 187.92 56.816C188.432 56.3253 188.688 55.664 188.688 54.832C188.688 54 188.443 53.328 187.952 52.816C187.483 52.304 186.725 52.048 185.68 52.048H182V57.552ZM205.666 70.32C203.874 70.32 202.36 70.032 201.122 69.456C199.906 68.88 198.968 68.0587 198.306 66.992C197.666 65.904 197.304 64.6133 197.218 63.12C197.197 62.6933 197.186 62.2133 197.186 61.68C197.186 61.1253 197.197 60.6453 197.218 60.24C197.304 58.7253 197.688 57.4347 198.37 56.368C199.053 55.3013 200.002 54.48 201.218 53.904C202.456 53.328 203.938 53.04 205.666 53.04C207.416 53.04 208.898 53.328 210.114 53.904C211.352 54.48 212.312 55.3013 212.994 56.368C213.677 57.4347 214.061 58.7253 214.146 60.24C214.168 60.6453 214.178 61.1253 214.178 61.68C214.178 62.2133 214.168 62.6933 214.146 63.12C214.061 64.6133 213.688 65.904 213.026 66.992C212.386 68.0587 211.448 68.88 210.21 69.456C208.994 70.032 207.48 70.32 205.666 70.32ZM205.666 66.416C206.626 66.416 207.32 66.128 207.746 65.552C208.194 64.976 208.45 64.112 208.514 62.96C208.536 62.64 208.546 62.2133 208.546 61.68C208.546 61.1467 208.536 60.72 208.514 60.4C208.45 59.2693 208.194 58.416 207.746 57.84C207.32 57.2427 206.626 56.944 205.666 56.944C204.749 56.944 204.056 57.2427 203.586 57.84C203.138 58.416 202.893 59.2693 202.85 60.4C202.829 60.72 202.818 61.1467 202.818 61.68C202.818 62.2133 202.829 62.64 202.85 62.96C202.893 64.112 203.138 64.976 203.586 65.552C204.056 66.128 204.749 66.416 205.666 66.416ZM218.157 70C217.922 70 217.73 69.9253 217.581 69.776C217.431 69.6053 217.357 69.4133 217.357 69.2V54.16C217.357 53.9253 217.431 53.7333 217.581 53.584C217.73 53.4347 217.922 53.36 218.157 53.36H221.645C221.879 53.36 222.071 53.4347 222.221 53.584C222.37 53.7333 222.445 53.9253 222.445 54.16V55.248C222.871 54.672 223.469 54.1707 224.237 53.744C225.005 53.296 225.911 53.0613 226.957 53.04C229.431 52.976 231.127 53.8933 232.045 55.792C232.535 54.9813 233.229 54.32 234.125 53.808C235.042 53.296 236.045 53.04 237.133 53.04C238.242 53.04 239.234 53.296 240.109 53.808C241.005 54.2987 241.719 55.0667 242.253 56.112C242.786 57.136 243.053 58.4693 243.053 60.112V69.2C243.053 69.4133 242.978 69.6053 242.829 69.776C242.679 69.9253 242.487 70 242.253 70H238.541C238.306 70 238.103 69.9253 237.933 69.776C237.783 69.6053 237.709 69.4133 237.709 69.2V60.336C237.709 59.5893 237.602 59.0027 237.389 58.576C237.175 58.128 236.887 57.808 236.525 57.616C236.162 57.424 235.746 57.328 235.277 57.328C234.893 57.328 234.509 57.424 234.125 57.616C233.762 57.808 233.463 58.128 233.229 58.576C233.015 59.0027 232.909 59.5893 232.909 60.336V69.2C232.909 69.4133 232.834 69.6053 232.685 69.776C232.535 69.9253 232.343 70 232.109 70H228.397C228.162 70 227.97 69.9253 227.821 69.776C227.671 69.6053 227.597 69.4133 227.597 69.2V60.336C227.597 59.5893 227.479 59.0027 227.245 58.576C227.01 58.128 226.711 57.808 226.349 57.616C225.986 57.424 225.591 57.328 225.165 57.328C224.759 57.328 224.365 57.424 223.981 57.616C223.618 57.808 223.319 58.128 223.085 58.576C222.871 59.0027 222.765 59.5787 222.765 60.304V69.2C222.765 69.4133 222.679 69.6053 222.509 69.776C222.359 69.9253 222.178 70 221.965 70H218.157ZM251.661 70.32C250.509 70.32 249.475 70.1067 248.557 69.68C247.661 69.232 246.947 68.6347 246.413 67.888C245.88 67.1413 245.613 66.2987 245.613 65.36C245.613 63.8453 246.232 62.6507 247.469 61.776C248.707 60.88 250.349 60.272 252.397 59.952L256.397 59.344V58.896C256.397 58.128 256.237 57.5413 255.917 57.136C255.597 56.7307 255.011 56.528 254.157 56.528C253.56 56.528 253.069 56.6453 252.685 56.88C252.323 57.1147 252.035 57.4347 251.821 57.84C251.629 58.1173 251.363 58.256 251.021 58.256H247.437C247.203 58.256 247.021 58.192 246.893 58.064C246.765 57.9147 246.712 57.744 246.733 57.552C246.733 57.168 246.872 56.7307 247.149 56.24C247.448 55.728 247.896 55.2267 248.493 54.736C249.091 54.2453 249.859 53.84 250.797 53.52C251.736 53.2 252.877 53.04 254.221 53.04C255.587 53.04 256.76 53.2 257.741 53.52C258.723 53.84 259.523 54.288 260.141 54.864C260.76 55.44 261.208 56.1227 261.485 56.912C261.784 57.68 261.933 58.5333 261.933 59.472V69.2C261.933 69.4133 261.848 69.6053 261.677 69.776C261.528 69.9253 261.347 70 261.133 70H257.421C257.187 70 256.995 69.9253 256.845 69.776C256.696 69.6053 256.621 69.4133 256.621 69.2V68.08C256.344 68.4853 255.971 68.8587 255.501 69.2C255.032 69.5413 254.477 69.808 253.837 70C253.219 70.2133 252.493 70.32 251.661 70.32ZM253.165 66.672C253.784 66.672 254.339 66.544 254.829 66.288C255.341 66.0107 255.736 65.5947 256.013 65.04C256.312 64.464 256.461 63.7493 256.461 62.896V62.448L253.741 62.928C252.739 63.0987 252.003 63.3653 251.533 63.728C251.085 64.0693 250.861 64.4747 250.861 64.944C250.861 65.3067 250.968 65.616 251.181 65.872C251.395 66.128 251.672 66.3307 252.013 66.48C252.376 66.608 252.76 66.672 253.165 66.672ZM271.752 70.32C270.728 70.32 269.8 70.16 268.968 69.84C268.158 69.4987 267.454 69.008 266.856 68.368C266.28 67.7067 265.832 66.9173 265.512 66C265.192 65.0613 265.011 63.9947 264.968 62.8C264.947 62.3733 264.936 62 264.936 61.68C264.936 61.3387 264.947 60.9547 264.968 60.528C265.011 59.3973 265.192 58.3733 265.512 57.456C265.832 56.5173 266.28 55.728 266.856 55.088C267.432 54.4267 268.136 53.9253 268.968 53.584C269.8 53.2213 270.728 53.04 271.752 53.04C272.819 53.04 273.736 53.2213 274.504 53.584C275.272 53.9253 275.923 54.3733 276.456 54.928V48.08C276.456 47.8453 276.531 47.6533 276.68 47.504C276.83 47.3547 277.022 47.28 277.256 47.28H281.16C281.374 47.28 281.555 47.3547 281.704 47.504C281.875 47.6533 281.96 47.8453 281.96 48.08V69.2C281.96 69.4133 281.875 69.6053 281.704 69.776C281.555 69.9253 281.374 70 281.16 70H277.544C277.31 70 277.118 69.9253 276.968 69.776C276.819 69.6053 276.744 69.4133 276.744 69.2V68.176C276.232 68.7947 275.571 69.3067 274.76 69.712C273.95 70.1173 272.947 70.32 271.752 70.32ZM273.512 66.032C274.216 66.032 274.771 65.8827 275.176 65.584C275.603 65.264 275.912 64.8587 276.104 64.368C276.318 63.8773 276.435 63.344 276.456 62.768C276.478 62.3413 276.488 61.936 276.488 61.552C276.488 61.168 276.478 60.7733 276.456 60.368C276.435 59.8347 276.318 59.344 276.104 58.896C275.891 58.4267 275.571 58.0533 275.144 57.776C274.718 57.4773 274.174 57.328 273.512 57.328C272.808 57.328 272.243 57.4773 271.816 57.776C271.411 58.0747 271.112 58.48 270.92 58.992C270.75 59.504 270.643 60.0693 270.6 60.688C270.536 61.3493 270.536 62.0107 270.6 62.672C270.643 63.2907 270.75 63.856 270.92 64.368C271.112 64.88 271.411 65.2853 271.816 65.584C272.243 65.8827 272.808 66.032 273.512 66.032ZM286.532 70C286.297 70 286.105 69.9253 285.956 69.776C285.806 69.6053 285.732 69.4133 285.732 69.2V48.08C285.732 47.8453 285.806 47.6533 285.956 47.504C286.105 47.3547 286.297 47.28 286.532 47.28H290.628C290.862 47.28 291.054 47.3547 291.204 47.504C291.353 47.6533 291.428 47.8453 291.428 48.08V55.216C292.004 54.5547 292.708 54.032 293.54 53.648C294.393 53.2427 295.374 53.04 296.484 53.04C297.721 53.04 298.82 53.3173 299.78 53.872C300.761 54.4267 301.529 55.2373 302.084 56.304C302.638 57.3707 302.916 58.6933 302.916 60.272V69.2C302.916 69.4133 302.841 69.6053 302.692 69.776C302.542 69.9253 302.35 70 302.116 70H297.988C297.774 70 297.582 69.9253 297.412 69.776C297.262 69.6053 297.188 69.4133 297.188 69.2V60.464C297.188 59.4613 296.942 58.6933 296.452 58.16C295.982 57.6053 295.289 57.328 294.372 57.328C293.476 57.328 292.761 57.6053 292.228 58.16C291.694 58.6933 291.428 59.4613 291.428 60.464V69.2C291.428 69.4133 291.353 69.6053 291.204 69.776C291.054 69.9253 290.862 70 290.628 70H286.532ZM314.416 70.32C312.624 70.32 311.11 70.032 309.872 69.456C308.656 68.88 307.718 68.0587 307.056 66.992C306.416 65.904 306.054 64.6133 305.968 63.12C305.947 62.6933 305.936 62.2133 305.936 61.68C305.936 61.1253 305.947 60.6453 305.968 60.24C306.054 58.7253 306.438 57.4347 307.12 56.368C307.803 55.3013 308.752 54.48 309.968 53.904C311.206 53.328 312.688 53.04 314.416 53.04C316.166 53.04 317.648 53.328 318.864 53.904C320.102 54.48 321.062 55.3013 321.744 56.368C322.427 57.4347 322.811 58.7253 322.896 60.24C322.918 60.6453 322.928 61.1253 322.928 61.68C322.928 62.2133 322.918 62.6933 322.896 63.12C322.811 64.6133 322.438 65.904 321.776 66.992C321.136 68.0587 320.198 68.88 318.96 69.456C317.744 70.032 316.23 70.32 314.416 70.32ZM314.416 66.416C315.376 66.416 316.07 66.128 316.496 65.552C316.944 64.976 317.2 64.112 317.264 62.96C317.286 62.64 317.296 62.2133 317.296 61.68C317.296 61.1467 317.286 60.72 317.264 60.4C317.2 59.2693 316.944 58.416 316.496 57.84C316.07 57.2427 315.376 56.944 314.416 56.944C313.499 56.944 312.806 57.2427 312.336 57.84C311.888 58.416 311.643 59.2693 311.6 60.4C311.579 60.72 311.568 61.1467 311.568 61.68C311.568 62.2133 311.579 62.64 311.6 62.96C311.643 64.112 311.888 64.976 312.336 65.552C312.806 66.128 313.499 66.416 314.416 66.416ZM326.907 70C326.672 70 326.48 69.9253 326.331 69.776C326.181 69.6053 326.107 69.4133 326.107 69.2V54.16C326.107 53.9253 326.181 53.7333 326.331 53.584C326.48 53.4347 326.672 53.36 326.907 53.36H330.587C330.821 53.36 331.013 53.4347 331.163 53.584C331.333 53.7333 331.419 53.9253 331.419 54.16V55.376C331.952 54.7147 332.667 54.16 333.563 53.712C334.459 53.264 335.515 53.04 336.731 53.04C337.968 53.04 339.056 53.3173 339.995 53.872C340.955 54.4267 341.701 55.2373 342.235 56.304C342.789 57.3707 343.067 58.6933 343.067 60.272V69.2C343.067 69.4133 342.992 69.6053 342.843 69.776C342.693 69.9253 342.501 70 342.267 70H338.235C338.021 70 337.829 69.9253 337.659 69.776C337.509 69.6053 337.435 69.4133 337.435 69.2V60.464C337.435 59.4613 337.189 58.6933 336.699 58.16C336.229 57.6053 335.525 57.328 334.587 57.328C333.712 57.328 333.008 57.6053 332.475 58.16C331.963 58.6933 331.707 59.4613 331.707 60.464V69.2C331.707 69.4133 331.621 69.6053 331.451 69.776C331.301 69.9253 331.12 70 330.907 70H326.907ZM351.661 70.32C350.509 70.32 349.475 70.1067 348.557 69.68C347.661 69.232 346.947 68.6347 346.413 67.888C345.88 67.1413 345.613 66.2987 345.613 65.36C345.613 63.8453 346.232 62.6507 347.469 61.776C348.707 60.88 350.349 60.272 352.397 59.952L356.397 59.344V58.896C356.397 58.128 356.237 57.5413 355.917 57.136C355.597 56.7307 355.011 56.528 354.157 56.528C353.56 56.528 353.069 56.6453 352.685 56.88C352.323 57.1147 352.035 57.4347 351.821 57.84C351.629 58.1173 351.363 58.256 351.021 58.256H347.437C347.203 58.256 347.021 58.192 346.893 58.064C346.765 57.9147 346.712 57.744 346.733 57.552C346.733 57.168 346.872 56.7307 347.149 56.24C347.448 55.728 347.896 55.2267 348.493 54.736C349.091 54.2453 349.859 53.84 350.797 53.52C351.736 53.2 352.877 53.04 354.221 53.04C355.587 53.04 356.76 53.2 357.741 53.52C358.723 53.84 359.523 54.288 360.141 54.864C360.76 55.44 361.208 56.1227 361.485 56.912C361.784 57.68 361.933 58.5333 361.933 59.472V69.2C361.933 69.4133 361.848 69.6053 361.677 69.776C361.528 69.9253 361.347 70 361.133 70H357.421C357.187 70 356.995 69.9253 356.845 69.776C356.696 69.6053 356.621 69.4133 356.621 69.2V68.08C356.344 68.4853 355.971 68.8587 355.501 69.2C355.032 69.5413 354.477 69.808 353.837 70C353.219 70.2133 352.493 70.32 351.661 70.32ZM353.165 66.672C353.784 66.672 354.339 66.544 354.829 66.288C355.341 66.0107 355.736 65.5947 356.013 65.04C356.312 64.464 356.461 63.7493 356.461 62.896V62.448L353.741 62.928C352.739 63.0987 352.003 63.3653 351.533 63.728C351.085 64.0693 350.861 64.4747 350.861 64.944C350.861 65.3067 350.968 65.616 351.181 65.872C351.395 66.128 351.672 66.3307 352.013 66.48C352.376 66.608 352.76 66.672 353.165 66.672ZM381.061 70.32C378.927 70.32 377.157 70.0213 375.749 69.424C374.341 68.8053 373.274 68.0053 372.549 67.024C371.823 66.0427 371.439 64.9973 371.397 63.888C371.397 63.7173 371.461 63.568 371.589 63.44C371.738 63.2907 371.909 63.216 372.101 63.216H376.133C376.431 63.216 376.655 63.2693 376.805 63.376C376.975 63.4827 377.125 63.6213 377.253 63.792C377.423 64.112 377.658 64.4213 377.957 64.72C378.277 65.0187 378.693 65.264 379.205 65.456C379.717 65.6267 380.335 65.712 381.061 65.712C382.298 65.712 383.226 65.52 383.845 65.136C384.485 64.752 384.805 64.2293 384.805 63.568C384.805 63.0773 384.634 62.6827 384.293 62.384C383.951 62.0853 383.397 61.8187 382.629 61.584C381.882 61.328 380.879 61.072 379.621 60.816C377.999 60.4747 376.613 60.0373 375.461 59.504C374.33 58.9493 373.466 58.2347 372.869 57.36C372.271 56.464 371.973 55.3547 371.973 54.032C371.973 52.7307 372.335 51.568 373.061 50.544C373.807 49.52 374.842 48.72 376.165 48.144C377.487 47.568 379.055 47.28 380.869 47.28C382.341 47.28 383.631 47.472 384.741 47.856C385.871 48.24 386.821 48.752 387.589 49.392C388.357 50.032 388.933 50.7147 389.317 51.44C389.722 52.144 389.935 52.8373 389.957 53.52C389.957 53.6907 389.893 53.8507 389.765 54C389.658 54.128 389.498 54.192 389.285 54.192H385.061C384.826 54.192 384.623 54.1493 384.453 54.064C384.282 53.9787 384.133 53.84 384.005 53.648C383.877 53.1787 383.535 52.7733 382.981 52.432C382.447 52.0693 381.743 51.888 380.869 51.888C379.93 51.888 379.194 52.0587 378.661 52.4C378.149 52.72 377.893 53.2213 377.893 53.904C377.893 54.3307 378.031 54.704 378.309 55.024C378.607 55.344 379.087 55.6213 379.749 55.856C380.431 56.0907 381.359 56.336 382.533 56.592C384.474 56.9547 386.042 57.4133 387.237 57.968C388.431 58.5013 389.306 59.2053 389.861 60.08C390.437 60.9333 390.725 62.0107 390.725 63.312C390.725 64.7627 390.309 66.0107 389.477 67.056C388.645 68.1013 387.503 68.912 386.053 69.488C384.623 70.0427 382.959 70.32 381.061 70.32ZM396.586 76.08C396.394 76.08 396.234 76.016 396.106 75.888C395.978 75.76 395.914 75.6 395.914 75.408C395.914 75.3653 395.914 75.3013 395.914 75.216C395.935 75.152 395.967 75.0773 396.01 74.992L398.506 68.976L392.362 54.448C392.298 54.2987 392.266 54.1707 392.266 54.064C392.308 53.872 392.394 53.712 392.522 53.584C392.65 53.4347 392.81 53.36 393.002 53.36H396.65C396.927 53.36 397.13 53.4347 397.258 53.584C397.407 53.712 397.514 53.8613 397.578 54.032L401.226 63.344L404.97 54.032C405.055 53.8613 405.162 53.712 405.29 53.584C405.439 53.4347 405.652 53.36 405.93 53.36H409.514C409.706 53.36 409.866 53.4347 409.994 53.584C410.143 53.712 410.218 53.8613 410.218 54.032C410.218 54.1387 410.186 54.2773 410.122 54.448L401.066 75.408C401.002 75.5787 400.895 75.728 400.746 75.856C400.596 76.0053 400.383 76.08 400.106 76.08H396.586ZM416.849 70.32C415.697 70.32 414.662 70.1067 413.745 69.68C412.849 69.232 412.134 68.6347 411.601 67.888C411.067 67.1413 410.801 66.2987 410.801 65.36C410.801 63.8453 411.419 62.6507 412.657 61.776C413.894 60.88 415.537 60.272 417.585 59.952L421.585 59.344V58.896C421.585 58.128 421.425 57.5413 421.105 57.136C420.785 56.7307 420.198 56.528 419.345 56.528C418.747 56.528 418.257 56.6453 417.873 56.88C417.51 57.1147 417.222 57.4347 417.009 57.84C416.817 58.1173 416.55 58.256 416.209 58.256H412.625C412.39 58.256 412.209 58.192 412.081 58.064C411.953 57.9147 411.899 57.744 411.921 57.552C411.921 57.168 412.059 56.7307 412.337 56.24C412.635 55.728 413.083 55.2267 413.681 54.736C414.278 54.2453 415.046 53.84 415.985 53.52C416.923 53.2 418.065 53.04 419.409 53.04C420.774 53.04 421.947 53.2 422.929 53.52C423.91 53.84 424.71 54.288 425.329 54.864C425.947 55.44 426.395 56.1227 426.673 56.912C426.971 57.68 427.121 58.5333 427.121 59.472V69.2C427.121 69.4133 427.035 69.6053 426.865 69.776C426.715 69.9253 426.534 70 426.321 70H422.609C422.374 70 422.182 69.9253 422.033 69.776C421.883 69.6053 421.809 69.4133 421.809 69.2V68.08C421.531 68.4853 421.158 68.8587 420.689 69.2C420.219 69.5413 419.665 69.808 419.025 70C418.406 70.2133 417.681 70.32 416.849 70.32ZM418.353 66.672C418.971 66.672 419.526 66.544 420.017 66.288C420.529 66.0107 420.923 65.5947 421.201 65.04C421.499 64.464 421.649 63.7493 421.649 62.896V62.448L418.929 62.928C417.926 63.0987 417.19 63.3653 416.721 63.728C416.273 64.0693 416.049 64.4747 416.049 64.944C416.049 65.3067 416.155 65.616 416.369 65.872C416.582 66.128 416.859 66.3307 417.201 66.48C417.563 66.608 417.947 66.672 418.353 66.672ZM431.532 70C431.297 70 431.105 69.9253 430.956 69.776C430.806 69.6053 430.732 69.4133 430.732 69.2V54.16C430.732 53.9467 430.806 53.7653 430.956 53.616C431.105 53.4453 431.297 53.36 431.532 53.36H435.212C435.446 53.36 435.638 53.4453 435.788 53.616C435.958 53.7653 436.044 53.9467 436.044 54.16V55.44C436.598 54.7787 437.27 54.2667 438.06 53.904C438.87 53.5413 439.777 53.36 440.78 53.36H442.188C442.422 53.36 442.614 53.4347 442.764 53.584C442.913 53.7333 442.988 53.9253 442.988 54.16V57.456C442.988 57.6693 442.913 57.8613 442.764 58.032C442.614 58.1813 442.422 58.256 442.188 58.256H439.084C438.209 58.256 437.526 58.5013 437.036 58.992C436.566 59.4613 436.332 60.1333 436.332 61.008V69.2C436.332 69.4133 436.246 69.6053 436.076 69.776C435.926 69.9253 435.734 70 435.5 70H431.532ZM446.063 70C445.828 70 445.636 69.9253 445.487 69.776C445.338 69.6053 445.263 69.4133 445.263 69.2V54.16C445.263 53.9253 445.338 53.7333 445.487 53.584C445.636 53.4347 445.828 53.36 446.063 53.36H449.839C450.074 53.36 450.266 53.4347 450.415 53.584C450.564 53.7333 450.639 53.9253 450.639 54.16V69.2C450.639 69.4133 450.564 69.6053 450.415 69.776C450.266 69.9253 450.074 70 449.839 70H446.063ZM446.031 50.96C445.796 50.96 445.604 50.8853 445.455 50.736C445.306 50.5867 445.231 50.3947 445.231 50.16V47.28C445.231 47.0667 445.306 46.8853 445.455 46.736C445.604 46.5653 445.796 46.48 446.031 46.48H449.871C450.084 46.48 450.266 46.5653 450.415 46.736C450.586 46.8853 450.671 47.0667 450.671 47.28V50.16C450.671 50.3947 450.586 50.5867 450.415 50.736C450.266 50.8853 450.084 50.96 449.871 50.96H446.031ZM457.107 70C456.894 70 456.702 69.9253 456.531 69.776C456.382 69.6053 456.307 69.4133 456.307 69.2V57.552H453.875C453.641 57.552 453.449 57.4773 453.299 57.328C453.15 57.1787 453.075 56.9867 453.075 56.752V54.16C453.075 53.9253 453.15 53.7333 453.299 53.584C453.449 53.4347 453.641 53.36 453.875 53.36H456.307V52.336C456.307 50.8853 456.585 49.7227 457.139 48.848C457.715 47.952 458.526 47.312 459.571 46.928C460.617 46.5227 461.865 46.32 463.315 46.32H465.811C466.046 46.32 466.238 46.3947 466.387 46.544C466.537 46.6933 466.611 46.8853 466.611 47.12V49.712C466.611 49.9467 466.537 50.1387 466.387 50.288C466.238 50.4373 466.046 50.512 465.811 50.512H463.571C462.846 50.512 462.334 50.6827 462.035 51.024C461.758 51.3653 461.619 51.856 461.619 52.496V53.36H465.491C465.726 53.36 465.918 53.4347 466.067 53.584C466.217 53.7333 466.291 53.9253 466.291 54.16V56.752C466.291 56.9867 466.217 57.1787 466.067 57.328C465.918 57.4773 465.726 57.552 465.491 57.552H461.619V69.2C461.619 69.4133 461.545 69.6053 461.395 69.776C461.246 69.9253 461.054 70 460.819 70H457.107ZM474.719 70.32C473.503 70.32 472.415 70.0427 471.455 69.488C470.516 68.9333 469.78 68.1227 469.247 67.056C468.713 65.968 468.447 64.6453 468.447 63.088V54.16C468.447 53.9253 468.521 53.7333 468.671 53.584C468.82 53.4347 469.012 53.36 469.247 53.36H473.247C473.481 53.36 473.673 53.4347 473.823 53.584C473.993 53.7333 474.079 53.9253 474.079 54.16V62.896C474.079 64.9867 475.007 66.032 476.863 66.032C477.737 66.032 478.431 65.7653 478.943 65.232C479.476 64.6773 479.743 63.8987 479.743 62.896V54.16C479.743 53.9253 479.817 53.7333 479.967 53.584C480.116 53.4347 480.308 53.36 480.543 53.36H484.543C484.777 53.36 484.969 53.4347 485.119 53.584C485.268 53.7333 485.343 53.9253 485.343 54.16V69.2C485.343 69.4133 485.268 69.6053 485.119 69.776C484.969 69.9253 484.777 70 484.543 70H480.831C480.617 70 480.425 69.9253 480.255 69.776C480.105 69.6053 480.031 69.4133 480.031 69.2V67.984C479.476 68.752 478.751 69.3387 477.855 69.744C476.98 70.128 475.935 70.32 474.719 70.32ZM495.315 70.32C494.291 70.32 493.363 70.16 492.531 69.84C491.72 69.4987 491.016 69.008 490.419 68.368C489.843 67.7067 489.395 66.9173 489.075 66C488.755 65.0613 488.573 63.9947 488.531 62.8C488.509 62.3733 488.499 62 488.499 61.68C488.499 61.3387 488.509 60.9547 488.531 60.528C488.573 59.3973 488.755 58.3733 489.075 57.456C489.395 56.5173 489.843 55.728 490.419 55.088C490.995 54.4267 491.699 53.9253 492.531 53.584C493.363 53.2213 494.291 53.04 495.315 53.04C496.381 53.04 497.299 53.2213 498.067 53.584C498.835 53.9253 499.485 54.3733 500.019 54.928V48.08C500.019 47.8453 500.093 47.6533 500.243 47.504C500.392 47.3547 500.584 47.28 500.819 47.28H504.723C504.936 47.28 505.117 47.3547 505.267 47.504C505.437 47.6533 505.523 47.8453 505.523 48.08V69.2C505.523 69.4133 505.437 69.6053 505.267 69.776C505.117 69.9253 504.936 70 504.723 70H501.107C500.872 70 500.68 69.9253 500.531 69.776C500.381 69.6053 500.307 69.4133 500.307 69.2V68.176C499.795 68.7947 499.133 69.3067 498.323 69.712C497.512 70.1173 496.509 70.32 495.315 70.32ZM497.075 66.032C497.779 66.032 498.333 65.8827 498.739 65.584C499.165 65.264 499.475 64.8587 499.667 64.368C499.88 63.8773 499.997 63.344 500.019 62.768C500.04 62.3413 500.051 61.936 500.051 61.552C500.051 61.168 500.04 60.7733 500.019 60.368C499.997 59.8347 499.88 59.344 499.667 58.896C499.453 58.4267 499.133 58.0533 498.707 57.776C498.28 57.4773 497.736 57.328 497.075 57.328C496.371 57.328 495.805 57.4773 495.379 57.776C494.973 58.0747 494.675 58.48 494.483 58.992C494.312 59.504 494.205 60.0693 494.163 60.688C494.099 61.3493 494.099 62.0107 494.163 62.672C494.205 63.2907 494.312 63.856 494.483 64.368C494.675 64.88 494.973 65.2853 495.379 65.584C495.805 65.8827 496.371 66.032 497.075 66.032ZM515.502 70.32C514.478 70.32 513.55 70.16 512.718 69.84C511.908 69.4987 511.204 69.008 510.606 68.368C510.03 67.7067 509.582 66.9173 509.262 66C508.942 65.0613 508.761 63.9947 508.718 62.8C508.697 62.3733 508.686 62 508.686 61.68C508.686 61.3387 508.697 60.9547 508.718 60.528C508.761 59.3973 508.942 58.3733 509.262 57.456C509.582 56.5173 510.03 55.728 510.606 55.088C511.182 54.4267 511.886 53.9253 512.718 53.584C513.55 53.2213 514.478 53.04 515.502 53.04C516.569 53.04 517.486 53.2213 518.254 53.584C519.022 53.9253 519.673 54.3733 520.206 54.928V48.08C520.206 47.8453 520.281 47.6533 520.43 47.504C520.58 47.3547 520.772 47.28 521.006 47.28H524.91C525.124 47.28 525.305 47.3547 525.454 47.504C525.625 47.6533 525.71 47.8453 525.71 48.08V69.2C525.71 69.4133 525.625 69.6053 525.454 69.776C525.305 69.9253 525.124 70 524.91 70H521.294C521.06 70 520.868 69.9253 520.718 69.776C520.569 69.6053 520.494 69.4133 520.494 69.2V68.176C519.982 68.7947 519.321 69.3067 518.51 69.712C517.7 70.1173 516.697 70.32 515.502 70.32ZM517.262 66.032C517.966 66.032 518.521 65.8827 518.926 65.584C519.353 65.264 519.662 64.8587 519.854 64.368C520.068 63.8773 520.185 63.344 520.206 62.768C520.228 62.3413 520.238 61.936 520.238 61.552C520.238 61.168 520.228 60.7733 520.206 60.368C520.185 59.8347 520.068 59.344 519.854 58.896C519.641 58.4267 519.321 58.0533 518.894 57.776C518.468 57.4773 517.924 57.328 517.262 57.328C516.558 57.328 515.993 57.4773 515.566 57.776C515.161 58.0747 514.862 58.48 514.67 58.992C514.5 59.504 514.393 60.0693 514.35 60.688C514.286 61.3493 514.286 62.0107 514.35 62.672C514.393 63.2907 514.5 63.856 514.67 64.368C514.862 64.88 515.161 65.2853 515.566 65.584C515.993 65.8827 516.558 66.032 517.262 66.032ZM530.282 70C530.047 70 529.855 69.9253 529.706 69.776C529.556 69.6053 529.482 69.4133 529.482 69.2V54.16C529.482 53.9253 529.556 53.7333 529.706 53.584C529.855 53.4347 530.047 53.36 530.282 53.36H534.058C534.292 53.36 534.484 53.4347 534.634 53.584C534.783 53.7333 534.858 53.9253 534.858 54.16V69.2C534.858 69.4133 534.783 69.6053 534.634 69.776C534.484 69.9253 534.292 70 534.058 70H530.282ZM530.25 50.96C530.015 50.96 529.823 50.8853 529.674 50.736C529.524 50.5867 529.45 50.3947 529.45 50.16V47.28C529.45 47.0667 529.524 46.8853 529.674 46.736C529.823 46.5653 530.015 46.48 530.25 46.48H534.09C534.303 46.48 534.484 46.5653 534.634 46.736C534.804 46.8853 534.89 47.0667 534.89 47.28V50.16C534.89 50.3947 534.804 50.5867 534.634 50.736C534.484 50.8853 534.303 50.96 534.09 50.96H530.25ZM540.438 70C540.203 70 540.011 69.9253 539.862 69.776C539.713 69.6053 539.638 69.4133 539.638 69.2V54.16C539.638 53.9253 539.713 53.7333 539.862 53.584C540.011 53.4347 540.203 53.36 540.438 53.36H544.118C544.353 53.36 544.545 53.4347 544.694 53.584C544.865 53.7333 544.95 53.9253 544.95 54.16V55.376C545.483 54.7147 546.198 54.16 547.094 53.712C547.99 53.264 549.046 53.04 550.262 53.04C551.499 53.04 552.587 53.3173 553.526 53.872C554.486 54.4267 555.233 55.2373 555.766 56.304C556.321 57.3707 556.598 58.6933 556.598 60.272V69.2C556.598 69.4133 556.523 69.6053 556.374 69.776C556.225 69.9253 556.033 70 555.798 70H551.766C551.553 70 551.361 69.9253 551.19 69.776C551.041 69.6053 550.966 69.4133 550.966 69.2V60.464C550.966 59.4613 550.721 58.6933 550.23 58.16C549.761 57.6053 549.057 57.328 548.118 57.328C547.243 57.328 546.539 57.6053 546.006 58.16C545.494 58.6933 545.238 59.4613 545.238 60.464V69.2C545.238 69.4133 545.153 69.6053 544.982 69.776C544.833 69.9253 544.651 70 544.438 70H540.438Z" fill="#1C3554"/>
<circle cx="75" cy="75" r="75" fill="#CCCCCC"/>
</svg>
